<svg width="61" height="61" viewBox="0 0 61 61" fill="none" xmlns="http://www.w3.org/2000/svg">
<path d="M58.3438 10.5C59.7148 10.5 60.875 11.6602 60.875 13.0312V48.4688C60.875 49.9453 59.7148 51 58.3438 51H5.1875C2.33984 51 0.125 48.7852 0.125 45.9375V16.4062C0.125 15.0352 1.17969 13.875 2.65625 13.875H6.875V13.0312C6.875 11.6602 7.92969 10.5 9.40625 10.5H58.3438ZM3.5 45.9375C3.5 46.8867 4.23828 47.625 5.1875 47.625C6.03125 47.625 6.875 46.8867 6.875 45.9375V17.25H3.5V45.9375ZM57.5 47.625V13.875H10.25V45.9375V46.043C10.25 46.4648 10.0391 47.2031 9.93359 47.625H57.5ZM14.8906 37.5C14.1523 37.5 13.625 36.9727 13.625 36.2344V18.5156C13.625 17.8828 14.1523 17.25 14.8906 17.25H32.6094C33.2422 17.25 33.875 17.8828 33.875 18.5156V36.2344C33.875 36.9727 33.2422 37.5 32.6094 37.5H14.8906ZM17 20.625V34.125H30.5V20.625H17ZM13.625 42.9844V42.1406C13.625 41.5078 14.1523 40.875 14.8906 40.875H32.6094C33.2422 40.875 33.875 41.5078 33.875 42.1406V42.9844C33.875 43.7227 33.2422 44.25 32.6094 44.25H14.8906C14.1523 44.25 13.625 43.7227 13.625 42.9844ZM37.25 42.9844V42.1406C37.25 41.5078 37.7773 40.875 38.5156 40.875H52.8594C53.4922 40.875 54.125 41.5078 54.125 42.1406V42.9844C54.125 43.7227 53.4922 44.25 52.8594 44.25H38.5156C37.7773 44.25 37.25 43.7227 37.25 42.9844ZM37.25 36.2344V35.3906C37.25 34.7578 37.7773 34.125 38.5156 34.125H52.8594C53.4922 34.125 54.125 34.7578 54.125 35.3906V36.2344C54.125 36.9727 53.4922 37.5 52.8594 37.5H38.5156C37.7773 37.5 37.25 36.9727 37.25 36.2344ZM37.25 22.7344V21.8906C37.25 21.2578 37.7773 20.625 38.5156 20.625H52.8594C53.4922 20.625 54.125 21.2578 54.125 21.8906V22.7344C54.125 23.4727 53.4922 24 52.8594 24H38.5156C37.7773 24 37.25 23.4727 37.25 22.7344ZM37.25 29.4844V28.6406C37.25 28.0078 37.7773 27.375 38.5156 27.375H52.8594C53.4922 27.375 54.125 28.0078 54.125 28.6406V29.4844C54.125 30.2227 53.4922 30.75 52.8594 30.75H38.5156C37.7773 30.75 37.25 30.2227 37.25 29.4844Z" fill="#EBECEF"/>
</svg>
