<svg width="25" height="24" viewBox="0 0 25 24" fill="none" xmlns="http://www.w3.org/2000/svg">
<path d="M14.8125 6.0625C16.043 6.0625 17.3789 5.64062 18.6445 5.07812C19.7344 4.62109 21 5.42969 21 6.625V15.0625C21 15.6602 20.6836 16.1875 20.2266 16.5039C19.2773 17.1016 17.7656 17.875 15.6914 17.875C13.3008 17.875 11.7188 16.75 9.99609 16.75C8.02734 16.75 6.83203 17.1719 5.53125 17.7695V20.6875C5.53125 21.0039 5.25 21.25 4.96875 21.25H4.40625C4.08984 21.25 3.84375 21.0039 3.84375 20.6875V6.41406C3.31641 6.13281 3 5.57031 3 4.9375C3 3.98828 3.80859 3.21484 4.79297 3.28516C5.60156 3.32031 6.26953 3.95312 6.33984 4.76172C6.33984 4.83203 6.33984 4.90234 6.33984 4.9375C6.33984 5.14844 6.33984 5.32422 6.26953 5.5C7.04297 5.18359 7.99219 4.9375 9.11719 4.9375C11.5078 4.9375 13.0898 6.0625 14.8125 6.0625ZM19.3125 15.0625V6.625C18.1875 7.15234 16.3242 7.75 14.8125 7.75C12.7031 7.75 11.2266 6.625 9.11719 6.625C7.64062 6.625 6.26953 7.22266 5.53125 7.75V15.9062C6.62109 15.4141 8.48438 15.0625 9.99609 15.0625C12.1055 15.0625 13.582 16.1875 15.6914 16.1875C17.168 16.1875 18.5391 15.625 19.3125 15.0625Z" fill="#292B32"/>
<mask id="path-4-outside-1_6795_24186" maskUnits="userSpaceOnUse" x="-1" y="2" width="26" height="21" fill="black">
<rect fill="white" x="-1" y="2" width="26" height="21"/>
<path d="M21.9844 21.1445L0.960938 4.69141C0.714844 4.51562 0.644531 4.16406 0.855469 3.91797L1.20703 3.46094C1.41797 3.25 1.76953 3.17969 2.01562 3.39062L23.0391 19.8438C23.25 20.0195 23.3203 20.3711 23.1094 20.6172L22.7578 21.0391C22.5469 21.2852 22.1953 21.3555 21.9844 21.1445Z"/>
</mask>
<path d="M21.9844 21.1445L0.960938 4.69141C0.714844 4.51562 0.644531 4.16406 0.855469 3.91797L1.20703 3.46094C1.41797 3.25 1.76953 3.17969 2.01562 3.39062L23.0391 19.8438C23.25 20.0195 23.3203 20.3711 23.1094 20.6172L22.7578 21.0391C22.5469 21.2852 22.1953 21.3555 21.9844 21.1445Z" fill="#292B32"/>
<path d="M21.9844 21.1445L22.6915 20.4374L22.6485 20.3945L22.6007 20.357L21.9844 21.1445ZM0.960938 4.69141L1.57725 3.9039L1.56 3.8904L1.54218 3.87767L0.960938 4.69141ZM0.855469 3.91797L1.61473 4.56876L1.63195 4.54866L1.64809 4.52768L0.855469 3.91797ZM1.20703 3.46094L0.499924 2.75383L0.454003 2.79975L0.414407 2.85123L1.20703 3.46094ZM2.01562 3.39062L1.36483 4.14988L1.38176 4.16439L1.39932 4.17813L2.01562 3.39062ZM23.0391 19.8438L23.6792 19.0755L23.6675 19.0657L23.6554 19.0562L23.0391 19.8438ZM23.1094 20.6172L22.35 19.9663L22.3412 19.977L23.1094 20.6172ZM22.7578 21.0391L23.5171 21.6899L23.526 21.6792L22.7578 21.0391ZM21.9844 21.1445L22.6007 20.357L1.57725 3.9039L0.960938 4.69141L0.344629 5.47891L21.3681 21.932L21.9844 21.1445ZM0.960938 4.69141L1.54218 3.87767C1.63854 3.9465 1.70545 4.05267 1.72483 4.17668C1.74573 4.31046 1.70893 4.45886 1.61473 4.56876L0.855469 3.91797L0.0962121 3.26718C-0.539872 4.00928 -0.28862 5.02777 0.379699 5.50514L0.960938 4.69141ZM0.855469 3.91797L1.64809 4.52768L1.99966 4.07065L1.20703 3.46094L0.414407 2.85123L0.0628448 3.30826L0.855469 3.91797ZM1.20703 3.46094L1.91414 4.16804C1.86884 4.21334 1.80563 4.24975 1.71848 4.26031C1.61748 4.27255 1.47829 4.24713 1.36483 4.14988L2.01562 3.39062L2.66642 2.63137C1.91528 1.98754 0.970108 2.28365 0.499924 2.75383L1.20703 3.46094ZM2.01562 3.39062L1.39932 4.17813L22.4228 20.6313L23.0391 19.8438L23.6554 19.0562L2.63193 2.60312L2.01562 3.39062ZM23.0391 19.8438L22.3989 20.612C22.3004 20.5299 22.2525 20.427 22.2401 20.3281C22.2261 20.2157 22.2555 20.0768 22.3501 19.9664L23.1094 20.6172L23.8686 21.268C24.4917 20.541 24.2582 19.558 23.6792 19.0755L23.0391 19.8438ZM23.1094 20.6172L22.3412 19.977L21.9896 20.3989L22.7578 21.0391L23.526 21.6792L23.8776 21.2574L23.1094 20.6172ZM22.7578 21.0391L21.9986 20.3883C22.0356 20.345 22.1037 20.2928 22.2167 20.2752C22.3438 20.2553 22.5389 20.2849 22.6915 20.4374L21.9844 21.1445L21.2773 21.8516C22.0528 22.6272 23.0837 22.1955 23.5171 21.6899L22.7578 21.0391Z" fill="white" mask="url(#path-4-outside-1_6795_24186)"/>
</svg>
