<svg width="25" height="24" viewBox="0 0 25 24" fill="none" xmlns="http://www.w3.org/2000/svg">
<path d="M8.71875 14.5C8.22656 14.5 7.875 14.1484 7.875 13.6562C7.875 13.1992 8.22656 12.8125 8.71875 12.8125H16.0312C16.4883 12.8125 16.875 13.1992 16.875 13.6562C16.875 14.1484 16.4883 14.5 16.0312 14.5H8.71875ZM8.71875 17.875C8.22656 17.875 7.875 17.5234 7.875 17.0312C7.875 16.5742 8.22656 16.1875 8.71875 16.1875H12.6562C13.1133 16.1875 13.5 16.5742 13.5 17.0312C13.5 17.5234 13.1133 17.875 12.6562 17.875H8.71875ZM8.71875 11.125C8.22656 11.125 7.875 10.7734 7.875 10.2812C7.875 9.82422 8.22656 9.4375 8.71875 9.4375H16.0312C16.4883 9.4375 16.875 9.82422 16.875 10.2812C16.875 10.7734 16.4883 11.125 16.0312 11.125H8.71875ZM18 3.25C19.2305 3.25 20.25 4.26953 20.25 5.5V19C20.25 20.2656 19.2305 21.25 18 21.25H6.75C5.48438 21.25 4.5 20.2656 4.5 19V5.5C4.5 4.26953 5.48438 3.25 6.75 3.25H18ZM18.5625 19V7.75H6.1875V19C6.1875 19.3164 6.43359 19.5625 6.75 19.5625H18C18.2812 19.5625 18.5625 19.3164 18.5625 19Z" fill="#292B32"/>
</svg>
