<svg width="25" height="24" viewBox="0 0 25 24" fill="none" xmlns="http://www.w3.org/2000/svg">
<path d="M12.3418 3.53125C17.123 3.53125 21.0605 7.46875 21.0605 12.25C21.0605 17.0664 17.123 20.9688 12.3418 20.9688C7.52539 20.9688 3.62305 17.0664 3.62305 12.25C3.62305 7.46875 7.52539 3.53125 12.3418 3.53125ZM12.3418 19.2812C16.209 19.2812 19.373 16.1523 19.373 12.25C19.373 8.38281 16.209 5.21875 12.3418 5.21875C8.43945 5.21875 5.31055 8.38281 5.31055 12.25C5.31055 16.1523 8.43945 19.2812 12.3418 19.2812ZM13.8184 15.625C13.8184 16.4688 13.1504 17.1016 12.3418 17.1016C11.498 17.1016 10.8652 16.4688 10.8652 15.625C10.8652 14.8164 11.498 14.1484 12.3418 14.1484C13.1504 14.1484 13.8184 14.8164 13.8184 15.625ZM10.9355 8.20703C10.9355 7.96094 11.1113 7.75 11.3574 7.75H13.291C13.5371 7.75 13.7129 7.96094 13.7129 8.20703L13.4668 12.9883C13.4668 13.1992 13.2559 13.375 13.0449 13.375H11.6035C11.3926 13.375 11.1816 13.1992 11.1816 12.9883L10.9355 8.20703Z" fill="white"/>
</svg>
