<svg width="25" height="24" viewBox="0 0 25 24" fill="none" xmlns="http://www.w3.org/2000/svg">
<path d="M15.5234 6.0625C16.7539 6.0625 18.0898 5.64062 19.3555 5.07812C20.4453 4.62109 21.7109 5.42969 21.7109 6.625V15.0625C21.7109 15.6602 21.3945 16.1875 20.9375 16.5039C19.9883 17.1016 18.4766 17.875 16.4023 17.875C14.0117 17.875 12.4297 16.75 10.707 16.75C8.73828 16.75 7.54297 17.1719 6.24219 17.7695V20.6875C6.24219 21.0039 5.96094 21.25 5.67969 21.25H5.11719C4.80078 21.25 4.55469 21.0039 4.55469 20.6875V6.41406C4.02734 6.13281 3.71094 5.57031 3.71094 4.9375C3.71094 3.98828 4.51953 3.21484 5.50391 3.28516C6.3125 3.32031 6.98047 3.95312 7.05078 4.76172C7.05078 4.79688 7.08594 4.90234 7.08594 4.9375C7.08594 5.11328 7.01562 5.35938 6.98047 5.5C7.75391 5.18359 8.70312 4.9375 9.82812 4.9375C12.2188 4.9375 13.8008 6.0625 15.5234 6.0625ZM20.0234 15.0625V6.625C18.8984 7.15234 17.0352 7.75 15.5234 7.75C13.4141 7.75 11.9375 6.625 9.82812 6.625C8.35156 6.625 6.98047 7.22266 6.24219 7.75V15.9062C7.33203 15.4141 9.19531 15.0625 10.707 15.0625C12.8164 15.0625 14.293 16.1875 16.4023 16.1875C17.8789 16.1875 19.25 15.625 20.0234 15.0625Z" fill="#292B32"/>
</svg>
