<svg width="20" height="17" viewBox="0 0 20 17" fill="none" xmlns="http://www.w3.org/2000/svg">
<path d="M7 8.40002C4.78125 8.40002 3 6.61877 3 4.40002C3 2.21252 4.78125 0.400024 7 0.400024C9.1875 0.400024 11 2.21252 11 4.40002C11 6.61877 9.1875 8.40002 7 8.40002ZM10 10.4V15.4C10 15.775 10.0938 16.1188 10.25 16.4H1.5C0.65625 16.4 0 15.7438 0 14.9V13.6188C0 11.3063 1.875 9.43127 4.1875 9.40002H4.71875C5.40625 9.74377 6.1875 9.90002 7 9.90002C7.8125 9.90002 8.5625 9.74377 9.25 9.40002H9.78125C9.9375 9.40002 10.0938 9.43127 10.25 9.46252C10.0938 9.74377 10 10.0563 10 10.4ZM19 9.40002C19.5312 9.40002 20 9.86877 20 10.4V15.4C20 15.9625 19.5312 16.4 19 16.4H12C11.4375 16.4 11 15.9625 11 15.4V10.4C11 9.86877 11.4375 9.40002 12 9.40002H13V6.90002C13 5.52502 14.0938 4.43127 15.4688 4.43127C15.5 4.43127 15.5312 4.43127 15.5625 4.43127C16.9375 4.46252 18 5.58752 18 6.93127C18 7.21252 17.7812 7.40002 17.5312 7.40002H17C16.7188 7.40002 16.5 7.18127 16.5 6.90002C16.5 6.36877 16.0312 5.90002 15.5 5.90002C15.4688 5.90002 15.4688 5.93127 15.4688 5.93127C14.9062 5.93127 14.5 6.40002 14.5 6.93127V9.40002H19ZM15.5 13.9C16.0312 13.9 16.5 13.4625 16.5 12.9C16.5 12.3688 16.0312 11.9 15.5 11.9C14.9375 11.9 14.5 12.3688 14.5 12.9C14.5 13.4625 14.9375 13.9 15.5 13.9Z" fill="#292B32"/>
</svg>
