<svg width="19" height="18" viewBox="0 0 19 18" fill="none" xmlns="http://www.w3.org/2000/svg">
<path d="M1.4375 9.0625C0.84375 8.5 0.84375 7.53125 1.4375 6.96875L6.9375 1.46875C7.875 0.5 9.5 1.1875 9.5 2.53125V5.03125C13.7812 5.15625 19 6 19 11.3438C19 13.625 17.7812 15.5312 15.9375 16.75C14.7812 17.5312 13.25 16.4375 13.6875 15.0625C14.4375 12.625 14.0625 11.3438 9.5 11.0625V13.5C9.5 14.8438 7.875 15.5312 6.9375 14.5625L1.4375 9.0625ZM2.5 8L8 13.5V9.53125C13.125 9.5625 16.6562 10.5625 15.0938 15.5C16.25 14.75 17.5 13.4375 17.5 11.3438C17.5 6.875 12.4688 6.53125 8 6.53125V2.5L2.5 8Z" fill="#292B32"/>
</svg>
