<svg width="32" height="33" viewBox="0 0 32 33" fill="none" xmlns="http://www.w3.org/2000/svg">
<circle cx="16" cy="16.5" r="16" fill="url(#paint0_linear_2118_10806)"/>
<path d="M10.7752 12.5999C11.2221 12.5999 11.6002 12.9781 11.6002 13.4249V21.6749C11.6002 22.1562 11.2221 22.4999 10.7752 22.4999H8.0252C7.54395 22.4999 7.2002 22.1562 7.2002 21.6749V13.4249C7.2002 12.9781 7.54395 12.5999 8.0252 12.5999H10.7752ZM9.4002 21.1249C9.84707 21.1249 10.2252 20.7812 10.2252 20.2999C10.2252 19.8531 9.84707 19.4749 9.4002 19.4749C8.91895 19.4749 8.5752 19.8531 8.5752 20.2999C8.5752 20.7812 8.91895 21.1249 9.4002 21.1249ZM20.4002 7.71868C20.4002 9.16243 19.5064 9.98743 19.2314 10.9499H22.7377C23.8721 10.9499 24.7658 11.9124 24.7658 12.9781C24.8002 13.5968 24.5252 14.2499 24.1127 14.6624C24.4564 15.4531 24.3877 16.5874 23.8033 17.3781C24.0783 18.2718 23.8033 19.3718 23.2189 19.9562C23.3908 20.5749 23.3221 21.0906 23.0127 21.5031C22.3252 22.4999 20.5721 22.4999 19.0939 22.4999H18.9908C17.3408 22.4999 16.0002 21.9156 14.9002 21.4343C14.3502 21.1937 13.6283 20.8843 13.0783 20.8843C12.8721 20.8499 12.7002 20.6781 12.7002 20.4718V13.1156C12.7002 13.0124 12.7346 12.9093 12.8033 12.8062C14.1783 11.4656 14.7627 10.0562 15.8627 8.9218C16.3783 8.40618 16.5502 7.64993 16.7564 6.89368C16.8939 6.27492 17.2033 4.89992 17.9252 4.89992C18.7502 4.89992 20.4002 5.17492 20.4002 7.71868Z" fill="white"/>
<defs>
<linearGradient id="paint0_linear_2118_10806" x1="12" y1="3.7" x2="26.4" y2="39.7" gradientUnits="userSpaceOnUse">
<stop stop-color="#63A1FF"/>
<stop offset="1" stop-color="#0041BE"/>
</linearGradient>
</defs>
</svg>
