<svg width="14" height="14" viewBox="0 0 14 14" fill="none" xmlns="http://www.w3.org/2000/svg">
<path fill-rule="evenodd" clip-rule="evenodd" d="M8.65196 7.00017C8.65196 7.91128 7.91078 8.65115 6.99967 8.65115C6.08856 8.65115 5.34869 7.91128 5.34869 7.00017C5.34869 6.08906 6.08856 5.34919 6.99967 5.34919C7.91078 5.34919 8.65196 6.08906 8.65196 7.00017ZM9.37614 3.8982C9.05458 3.8982 8.78007 4.11127 8.68595 4.41062C8.17745 4.07467 7.59837 3.8982 6.99967 3.8982C5.28987 3.8982 3.89771 5.29036 3.89771 7.00016C3.89771 8.70997 5.28987 10.1021 6.99967 10.1021C7.82451 10.1021 8.62059 9.75964 9.20621 9.15964C9.68203 9.7518 10.3997 10.1021 11.1578 10.1021C12.5408 10.1021 13.6663 8.97663 13.6663 7.59363C13.6663 5.3701 12.9487 3.49559 11.5905 2.1701C10.3761 0.985784 8.74608 0.333496 6.99967 0.333496C3.32386 0.333496 0.333008 3.32435 0.333008 7.00016C0.333008 10.676 3.32386 13.6668 6.99967 13.6668C8.48203 13.6668 9.88333 13.191 11.052 12.2917C11.4271 12.0054 11.4023 11.5662 11.184 11.2799C10.9657 10.9936 10.5474 10.8551 10.1709 11.1426C9.25458 11.8459 8.15915 12.2172 6.99967 12.2172C4.12255 12.2172 1.78268 9.87729 1.78268 7.00016C1.78268 4.12304 4.12255 1.78317 6.99967 1.78317C10.584 1.78317 12.2167 4.79493 12.2167 7.59363C12.2167 8.17663 11.7422 8.65114 11.1578 8.65114C10.5761 8.65114 10.1016 8.17663 10.1016 7.59363V4.62369C10.1016 4.22369 9.77614 3.8982 9.37614 3.8982Z" fill="#1054DE"/>
</svg>
