<svg width="32" height="32" viewBox="0 0 32 32" fill="none" xmlns="http://www.w3.org/2000/svg">
<g clip-path="url(#clip0_2638_19821)">
<path d="M16 32C24.8366 32 32 24.8366 32 16C32 7.16344 24.8366 0 16 0C7.16344 0 0 7.16344 0 16C0 24.8366 7.16344 32 16 32Z" fill="#FFD54F"/>
<path d="M27.2933 19.9601C26.9867 20.9334 26.5867 21.8267 26.0667 22.6667H5.93332C5.41332 21.8267 5.01332 20.9334 4.70665 19.9601C4.61332 19.6534 4.66665 19.3334 4.86665 19.0801C5.05332 18.8134 5.34665 18.6667 5.66665 18.6667H26.3333C26.6533 18.6667 26.9467 18.8134 27.1333 19.0801C27.3333 19.3334 27.3867 19.6534 27.2933 19.9601Z" fill="white"/>
<path d="M26.0669 22.6667C23.9603 26.1201 20.1869 28.2934 16.0003 28.2934C11.8136 28.2934 8.04026 26.1201 5.93359 22.6667H26.0669Z" fill="#E53935"/>
<path d="M12.3337 13.6667C11.7817 13.6667 11.3337 13.2187 11.3337 12.6667C11.3337 11.932 10.7363 11.3334 10.0003 11.3334C9.26433 11.3334 8.66699 11.932 8.66699 12.6667C8.66699 13.2187 8.21899 13.6667 7.66699 13.6667C7.11499 13.6667 6.66699 13.2187 6.66699 12.6667C6.66699 10.8294 8.16166 9.33337 10.0003 9.33337C11.839 9.33337 13.3337 10.8294 13.3337 12.6667C13.3337 13.2187 12.8857 13.6667 12.3337 13.6667Z" fill="#6D4C41"/>
<path d="M24.3327 13.6667C23.7807 13.6667 23.3327 13.2187 23.3327 12.6667C23.3327 11.932 22.7353 11.3334 21.9993 11.3334C21.2633 11.3334 20.666 11.932 20.666 12.6667C20.666 13.2187 20.218 13.6667 19.666 13.6667C19.114 13.6667 18.666 13.2187 18.666 12.6667C18.666 10.8294 20.1607 9.33337 21.9993 9.33337C23.838 9.33337 25.3327 10.8294 25.3327 12.6667C25.3327 13.2187 24.8847 13.6667 24.3327 13.6667Z" fill="#6D4C41"/>
</g>
<defs>
<clipPath id="clip0_2638_19821">
<rect width="32" height="32" fill="white"/>
</clipPath>
</defs>
</svg>
