<svg width="21" height="20" viewBox="0 0 21 20" fill="none" xmlns="http://www.w3.org/2000/svg">
<path d="M10.8525 2.25C15.1338 2.25 18.6025 5.71875 18.6025 10C18.6025 14.2812 15.1338 17.75 10.8525 17.75C6.57129 17.75 3.10254 14.2812 3.10254 10C3.10254 5.71875 6.57129 2.25 10.8525 2.25ZM16.4463 7.25C15.79 5.9375 14.6963 4.90625 13.3525 4.3125C13.79 5.125 14.1338 6.125 14.3525 7.25H16.4463ZM10.8525 3.75C10.2588 3.75 9.32129 5.0625 8.85254 7.25H12.8213C12.3525 5.0625 11.415 3.75 10.8525 3.75ZM4.60254 10C4.60254 10.4375 4.63379 10.875 4.72754 11.25H7.13379C7.10254 10.8438 7.10254 10.4375 7.10254 10C7.10254 9.59375 7.10254 9.1875 7.13379 8.75H4.72754C4.63379 9.15625 4.60254 9.59375 4.60254 10ZM5.22754 12.75C5.88379 14.0625 6.97754 15.125 8.32129 15.7188C7.88379 14.9062 7.54004 13.9062 7.32129 12.75H5.22754ZM7.32129 7.25C7.54004 6.125 7.88379 5.125 8.32129 4.3125C6.97754 4.90625 5.88379 5.9375 5.22754 7.25H7.32129ZM10.8525 16.25C11.415 16.25 12.3525 14.9688 12.8213 12.75H8.85254C9.32129 14.9688 10.2588 16.25 10.8525 16.25ZM13.04 11.25C13.0713 10.875 13.1025 10.4375 13.1025 10C13.1025 9.5625 13.0713 9.15625 13.04 8.75H8.63379C8.60254 9.15625 8.60254 9.5625 8.60254 10C8.60254 10.4375 8.60254 10.875 8.63379 11.25H13.04ZM13.3525 15.7188C14.6963 15.125 15.79 14.0625 16.4463 12.75H14.3525C14.1338 13.9062 13.79 14.9062 13.3525 15.7188ZM14.54 11.25H16.9775C17.04 10.875 17.1025 10.4375 17.1025 10C17.1025 9.59375 17.04 9.15625 16.9775 8.75H14.54C14.5713 9.1875 14.6025 9.59375 14.6025 10C14.6025 10.4375 14.5713 10.8438 14.54 11.25Z" fill="white"/>
</svg>
