<svg width="25" height="24" viewBox="0 0 25 24" fill="none" xmlns="http://www.w3.org/2000/svg">
<rect x="0.897949" width="24" height="24" rx="4" fill="none"/>
<path d="M14.5854 12.25C14.5854 13.1992 13.812 13.9375 12.8979 13.9375C11.9487 13.9375 11.2104 13.1992 11.2104 12.25C11.2104 11.3359 11.9487 10.5625 12.8979 10.5625C13.812 10.5625 14.5854 11.3359 14.5854 12.25ZM18.8042 10.5625C19.7183 10.5625 20.4917 11.3359 20.4917 12.25C20.4917 13.1992 19.7183 13.9375 18.8042 13.9375C17.855 13.9375 17.1167 13.1992 17.1167 12.25C17.1167 11.3359 17.855 10.5625 18.8042 10.5625ZM6.9917 10.5625C7.90576 10.5625 8.6792 11.3359 8.6792 12.25C8.6792 13.1992 7.90576 13.9375 6.9917 13.9375C6.04248 13.9375 5.3042 13.1992 5.3042 12.25C5.3042 11.3359 6.04248 10.5625 6.9917 10.5625Z" fill="#292B32"/>
</svg>
