<svg width="32" height="32" viewBox="0 0 32 32" fill="none" xmlns="http://www.w3.org/2000/svg">
<circle cx="16" cy="16" r="16" fill="white" fill-opacity="0.8"/>
<path d="M17.6523 16.25L21.4492 20.0469C21.6602 20.2578 21.6602 20.6445 21.4492 20.8555L20.5703 21.7344C20.3594 21.9453 19.9727 21.9453 19.7617 21.7344L16 17.9375L12.2031 21.7344C11.9922 21.9453 11.6055 21.9453 11.3945 21.7344L10.5156 20.8555C10.3047 20.6445 10.3047 20.2578 10.5156 20.0469L14.3125 16.25L10.5156 12.4883C10.3047 12.2773 10.3047 11.8906 10.5156 11.6797L11.3945 10.8008C11.6055 10.5898 11.9922 10.5898 12.2031 10.8008L16 14.5977L19.7617 10.8008C19.9727 10.5898 20.3594 10.5898 20.5703 10.8008L21.4492 11.6797C21.6602 11.8906 21.6602 12.2773 21.4492 12.4883L17.6523 16.25Z" fill="black" fill-opacity="0.5"/>
</svg>
