<svg width="32" height="32" viewBox="0 0 32 32" fill="none" xmlns="http://www.w3.org/2000/svg">
<rect width="32" height="32" rx="16" fill="#EBECEF"/>
<path d="M16 19.9062C17.0547 19.9062 17.9688 20.8203 17.9688 21.875C17.9688 22.9648 17.0547 23.8438 16 23.8438C14.9102 23.8438 14.0312 22.9648 14.0312 21.875C14.0312 20.8203 14.9102 19.9062 16 19.9062ZM16 14.2812C17.0547 14.2812 17.9688 15.1953 17.9688 16.25C17.9688 17.3398 17.0547 18.2188 16 18.2188C14.9102 18.2188 14.0312 17.3398 14.0312 16.25C14.0312 15.1953 14.9102 14.2812 16 14.2812ZM17.9688 10.625C17.9688 11.7148 17.0547 12.5938 16 12.5938C14.9102 12.5938 14.0312 11.7148 14.0312 10.625C14.0312 9.57031 14.9102 8.65625 16 8.65625C17.0547 8.65625 17.9688 9.57031 17.9688 10.625Z" fill="#292B32"/>
</svg>
