<svg width="24" height="24" viewBox="0 0 24 24" fill="none" xmlns="http://www.w3.org/2000/svg">
<path d="M11.9951 3.53125C16.7764 3.53125 20.7139 7.46875 20.7139 12.25C20.7139 17.0664 16.7764 20.9688 11.9951 20.9688C7.17871 20.9688 3.27637 17.0664 3.27637 12.25C3.27637 7.46875 7.17871 3.53125 11.9951 3.53125ZM11.9951 5.21875C8.09277 5.21875 4.96387 8.38281 4.96387 12.25C4.96387 16.1523 8.09277 19.2812 11.9951 19.2812C15.8623 19.2812 19.0264 16.1523 19.0264 12.25C19.0264 8.38281 15.8623 5.21875 11.9951 5.21875ZM16.917 9.82422C17.0576 9.96484 17.0576 10.2461 16.917 10.4219L10.835 16.4336C10.6592 16.6094 10.4131 16.6094 10.2373 16.4336L7.03809 13.1992C6.89746 13.0586 6.89746 12.7773 7.03809 12.6016L7.84668 11.8281C8.02246 11.6523 8.26855 11.6523 8.44434 11.8281L10.5537 13.9375L15.5107 9.01562C15.6865 8.83984 15.9678 8.83984 16.1084 9.01562L16.917 9.82422Z" fill="white"/>
</svg>
