<svg width="14" height="16" viewBox="0 0 14 16" fill="none" xmlns="http://www.w3.org/2000/svg">
<path d="M7 12.875C6.5 12.875 6.125 12.5 6.125 12V10C6.125 9.53125 6.5 9.125 7 9.125C7.46875 9.125 7.875 9.53125 7.875 10V12C7.875 12.5 7.46875 12.875 7 12.875ZM14 7.5V14.5C14 15.3438 13.3125 16 12.5 16H1.5C0.65625 16 0 15.3438 0 14.5V7.5C0 6.6875 0.65625 6 1.5 6H2.5V4.5C2.5 2.03125 4.5 0 7 0C9.5 0.03125 11.5 2.0625 11.5 4.5625V6H12.5C13.3125 6 14 6.6875 14 7.5ZM4 6H10V4.5C10 2.875 8.625 1.5 7 1.5C5.34375 1.5 4 2.875 4 4.5V6ZM12.5 7.5H1.5V14.5H12.5V7.5Z" fill="#292B32"/>
</svg>
