<svg width="62" height="41" viewBox="0 0 62 41" fill="none" xmlns="http://www.w3.org/2000/svg">
<path d="M58.7949 0.378906C60.166 0.378906 61.3262 1.53906 61.3262 2.91016V38.3477C61.3262 39.8242 60.166 40.8789 58.7949 40.8789H5.63867C2.79102 40.8789 0.576172 38.6641 0.576172 35.8164V6.28516C0.576172 4.91406 1.63086 3.75391 3.10742 3.75391H7.32617V2.91016C7.32617 1.53906 8.38086 0.378906 9.85742 0.378906H58.7949ZM3.95117 35.8164C3.95117 36.7656 4.68945 37.5039 5.63867 37.5039C6.48242 37.5039 7.32617 36.7656 7.32617 35.8164V7.12891H3.95117V35.8164ZM57.9512 37.5039V3.75391H10.7012V35.8164V35.9219C10.7012 36.3438 10.4902 37.082 10.3848 37.5039H57.9512Z" fill="#EBECEF"/>
<path d="M36.6387 20.6289L39.7637 23.7852C40.1699 24.1602 40.1699 24.7852 39.7637 25.1602L39.0762 25.8477C38.7012 26.2539 38.0762 26.2539 37.7012 25.8477L34.5762 22.7227L31.4199 25.8477C31.0449 26.2539 30.4199 26.2539 30.0449 25.8477L29.3574 25.1602C28.9512 24.7852 28.9512 24.1602 29.3574 23.7852L32.4824 20.6289L29.3574 17.5039C28.9512 17.1289 28.9512 16.5039 29.3574 16.1289L30.0449 15.4414C30.4199 15.0352 31.0449 15.0352 31.4199 15.4414L34.5762 18.5664L37.7012 15.4414C38.0762 15.0352 38.7012 15.0352 39.0762 15.4414L39.7637 16.1289C40.1699 16.5039 40.1699 17.1289 39.7637 17.5039L36.6387 20.6289Z" fill="#EBECEF"/>
</svg>
