<svg width="61" height="60" viewBox="0 0 61 60" fill="none" xmlns="http://www.w3.org/2000/svg">
<path d="M49.2515 24.375C49.2515 29.7539 47.5054 34.7227 44.564 38.7539L59.3999 53.6016C60.8647 55.0664 60.8647 57.4453 59.3999 58.9102C57.9351 60.375 55.5562 60.375 54.0913 58.9102L39.2554 44.0625C35.2241 47.0156 30.2554 48.75 24.8765 48.75C11.4116 48.75 0.501465 37.8398 0.501465 24.375C0.501465 10.9102 11.4116 0 24.8765 0C38.3413 0 49.2515 10.9102 49.2515 24.375ZM24.8765 41.25C27.0925 41.25 29.2869 40.8135 31.3342 39.9655C33.3816 39.1174 35.2419 37.8744 36.8089 36.3074C38.3759 34.7404 39.6189 32.8802 40.4669 30.8328C41.315 28.7854 41.7515 26.5911 41.7515 24.375C41.7515 22.1589 41.315 19.9646 40.4669 17.9172C39.6189 15.8698 38.3759 14.0096 36.8089 12.4426C35.2419 10.8756 33.3816 9.63258 31.3342 8.78453C29.2869 7.93648 27.0925 7.5 24.8765 7.5C22.6604 7.5 20.4661 7.93648 18.4187 8.78453C16.3713 9.63258 14.511 10.8756 12.944 12.4426C11.377 14.0096 10.134 15.8698 9.286 17.9172C8.43795 19.9646 8.00146 22.1589 8.00146 24.375C8.00146 26.5911 8.43795 28.7854 9.286 30.8328C10.134 32.8802 11.377 34.7404 12.944 36.3074C14.511 37.8744 16.3713 39.1174 18.4187 39.9655C20.4661 40.8135 22.6604 41.25 24.8765 41.25Z" fill="#EBECEF"/>
</svg>
