<svg width="61" height="61" viewBox="0 0 61 61" fill="none" xmlns="http://www.w3.org/2000/svg">
<path d="M54.0195 20.625C55.8125 20.625 57.5 21.9961 57.5 24V51.1055C57.5 53.0039 55.8125 54.375 54.0195 54.375C53.3867 54.375 52.6484 54.1641 52.1211 53.8477L44 48.1523V49.3125C44 52.1602 41.6797 54.375 38.9375 54.375H8.5625C5.71484 54.375 3.5 52.1602 3.5 49.3125V25.6875C3.5 22.9453 5.71484 20.625 8.5625 20.625H10.25V15.5625C10.25 10.9219 13.9414 7.125 18.6875 7.125H36.4062C36.8281 7.125 37.25 7.54688 37.25 7.96875V9.65625C37.25 10.1836 36.8281 10.5 36.4062 10.5H18.6875C15.8398 10.5 13.625 12.8203 13.625 15.5625V20.625H38.9375C41.6797 20.625 44 22.9453 44 25.6875V26.9531L52.1211 21.2578C52.6484 20.9414 53.3867 20.7305 54.0195 20.625V24L44 31.0664V44.0391L54.0195 51L54.125 24L54.0195 20.625ZM40.625 49.3125V25.6875C40.625 24.8438 39.7812 24 38.9375 24H8.5625C7.61328 24 6.875 24.8438 6.875 25.6875V49.3125C6.875 50.2617 7.61328 51 8.5625 51H38.9375C39.7812 51 40.625 50.2617 40.625 49.3125ZM36.5117 27.375C36.9336 27.4805 37.1445 27.6914 37.25 28.1133V30.1172C37.1445 30.5391 36.9336 30.75 36.5117 30.75H10.8828C10.4609 30.75 10.25 30.5391 10.25 30.1172V28.1133C10.25 27.6914 10.4609 27.4805 10.8828 27.375H36.5117Z" fill="#E6E6E6"/>
</svg>
