<svg width="16" height="19" viewBox="0 0 16 19" fill="none" xmlns="http://www.w3.org/2000/svg">
<path d="M8 18.25C6.73438 18.25 5.75 17.2656 5.75 16H10.2148C10.2148 17.2656 9.23047 18.25 8 18.25ZM15.5586 13.0117C15.7695 13.2227 15.875 13.5039 15.875 13.75C15.8398 14.3477 15.418 14.875 14.7148 14.875H1.25C0.546875 14.875 0.125 14.3477 0.125 13.75C0.0898438 13.5039 0.195312 13.2227 0.40625 13.0117C1.07422 12.2734 2.375 11.1836 2.375 7.5625C2.375 4.85547 4.27344 2.67578 6.875 2.11328V1.375C6.875 0.777344 7.36719 0.25 8 0.25C8.59766 0.25 9.08984 0.777344 9.08984 1.375V2.11328C11.6914 2.67578 13.5898 4.85547 13.5898 7.5625C13.5898 11.1836 14.8906 12.2734 15.5586 13.0117Z" fill="#292B32"/>
</svg>
