<svg width="25" height="24" viewBox="0 0 25 24" fill="none" xmlns="http://www.w3.org/2000/svg">
<path d="M8.84375 14.5C8.35156 14.5 8 14.1484 8 13.6562C8 13.1992 8.35156 12.8125 8.84375 12.8125H16.1562C16.6133 12.8125 17 13.1992 17 13.6562C17 14.1484 16.6133 14.5 16.1562 14.5H8.84375ZM8.84375 17.875C8.35156 17.875 8 17.5234 8 17.0312C8 16.5742 8.35156 16.1875 8.84375 16.1875H12.7812C13.2383 16.1875 13.625 16.5742 13.625 17.0312C13.625 17.5234 13.2383 17.875 12.7812 17.875H8.84375ZM8.84375 11.125C8.35156 11.125 8 10.7734 8 10.2812C8 9.82422 8.35156 9.4375 8.84375 9.4375H16.1562C16.6133 9.4375 17 9.82422 17 10.2812C17 10.7734 16.6133 11.125 16.1562 11.125H8.84375ZM18.125 3.25C19.3555 3.25 20.375 4.26953 20.375 5.5V19C20.375 20.2656 19.3555 21.25 18.125 21.25H6.875C5.60938 21.25 4.625 20.2656 4.625 19V5.5C4.625 4.26953 5.60938 3.25 6.875 3.25H18.125ZM18.6875 19V7.75H6.3125V19C6.3125 19.3164 6.55859 19.5625 6.875 19.5625H18.125C18.4062 19.5625 18.6875 19.3164 18.6875 19Z" fill="#292B32"/>
</svg>
