<svg width="24" height="25" viewBox="0 0 24 25" fill="none" xmlns="http://www.w3.org/2000/svg">
<path d="M22.6172 13.1836C23.0039 13.3242 23.25 13.6758 23.25 14.0273C23.25 18.4219 20.3672 20.8477 18.5742 21.5508C18.3984 21.6211 18.1172 21.6914 17.7656 21.5508C15.5156 20.6719 13.125 17.9648 13.125 14.0273C13.125 13.6758 13.3711 13.3242 13.7227 13.1836L17.7656 11.6016C18.1172 11.4609 18.4336 11.5312 18.5742 11.6016L22.6172 13.1836ZM18.1875 19.8984C19.3828 19.3008 21.3164 17.6133 21.5273 14.5547L18.1875 13.2539V19.8984ZM13.2656 19.9336C13.7227 20.6016 14.2148 21.1641 14.7773 21.6211H2.4375C1.48828 21.6211 0.75 20.8828 0.75 19.9336V19.0547C0.75 16.4531 2.85938 14.3086 5.46094 14.3086C6.48047 14.3086 6.9375 14.8711 8.58984 14.8711C10.0312 14.8711 10.5234 14.4844 11.4375 14.3438C11.4375 14.9414 11.5078 15.5039 11.6133 16.0312C11.0859 16.1016 10.2773 16.5586 8.625 16.5586C6.79688 16.5586 5.98828 15.9961 5.46094 15.9961C3.77344 15.9961 2.4375 17.3672 2.4375 19.0547V19.9336H13.2656ZM8.625 13.7461C5.8125 13.7461 3.5625 11.4961 3.5625 8.68359C3.5625 5.90625 5.8125 3.62109 8.625 3.62109C11.4023 3.62109 13.6875 5.90625 13.6875 8.68359C13.6875 11.4961 11.4023 13.7461 8.625 13.7461ZM8.625 5.30859C6.76172 5.30859 5.25 6.85547 5.25 8.68359C5.25 10.5469 6.76172 12.0586 8.625 12.0586C10.4531 12.0586 12 10.5469 12 8.68359C12 6.85547 10.4531 5.30859 8.625 5.30859Z" fill="#292B32"/>
</svg>
