<svg width="20" height="20" viewBox="0 0 20 20" fill="none" xmlns="http://www.w3.org/2000/svg">
<path d="M7 11C4.5 11 2.5 9 2.5 6.5C2.5 4.03125 4.5 2 7 2C9.46875 2 11.5 4.03125 11.5 6.5C11.5 9 9.46875 11 7 11ZM7 3.5C5.34375 3.5 4 4.875 4 6.5C4 8.15625 5.34375 9.5 7 9.5C8.625 9.5 10 8.15625 10 6.5C10 4.875 8.625 3.5 7 3.5ZM9.78125 11.5C12.0938 11.5 14 13.4062 14 15.7188V16.5C14 17.3438 13.3125 18 12.5 18H1.5C0.65625 18 0 17.3438 0 16.5V15.7188C0 13.4062 1.875 11.5 4.1875 11.5C5.09375 11.5 5.5 12 7 12C8.46875 12 8.875 11.5 9.78125 11.5ZM12.5 16.5V15.7188C12.5 14.2188 11.2812 13 9.78125 13C9.3125 13 8.59375 13.5 7 13.5C5.375 13.5 4.65625 13 4.1875 13C2.6875 13 1.5 14.2188 1.5 15.7188V16.5H12.5ZM19.5 8.75C19.75 8.75 20 9 20 9.25V9.75C20 10.0312 19.75 10.25 19.5 10.25H17.25V12.5C17.25 12.7812 17 13 16.75 13H16.25C15.9688 13 15.75 12.7812 15.75 12.5V10.25H13.5C13.2188 10.25 13 10.0312 13 9.75V9.25C13 9 13.2188 8.75 13.5 8.75H15.75V6.5C15.75 6.25 15.9688 6 16.25 6H16.75C17 6 17.25 6.25 17.25 6.5V8.75H19.5Z" fill="#292B32"/>
</svg>
