<svg width="15" height="17" viewBox="0 0 15 17" fill="none" xmlns="http://www.w3.org/2000/svg">
<path d="M14.0312 2.5625C14.2812 2.8125 14.5 3.28125 14.5 3.625V12C14.5 12.8438 13.8125 13.5 13 13.5H10.5V15C10.5 15.8438 9.8125 16.5 9 16.5H2C1.15625 16.5 0.5 15.8438 0.5 15V5C0.5 4.1875 1.15625 3.5 2 3.5H4.5V2C4.5 1.1875 5.15625 0.5 6 0.5H11.375C11.7188 0.5 12.1875 0.71875 12.4375 0.96875L14.0312 2.5625ZM8.8125 15C8.90625 15 9 14.9375 9 14.8125V13.5H6C5.15625 13.5 4.5 12.8438 4.5 12V5H2.1875C2.0625 5 2 5.09375 2 5.1875V14.8125C2 14.9375 2.0625 15 2.1875 15H8.8125ZM12.8125 12C12.9062 12 13 11.9375 13 11.8125V5.5H10.25C9.8125 5.5 9.5 5.1875 9.5 4.75V2H6.1875C6.0625 2 6 2.09375 6 2.1875V11.8125C6 11.9375 6.0625 12 6.1875 12H12.8125ZM13 4V3.71875C13 3.65625 12.9688 3.625 12.9375 3.59375L11.4062 2.0625C11.375 2.03125 11.3438 2 11.2812 2H11V4H13Z" fill="#292B32"/>
</svg>
