<svg width="24" height="24" viewBox="0 0 24 24" fill="none" xmlns="http://www.w3.org/2000/svg">
<path d="M22.6172 12.8125C23.0039 12.9531 23.25 13.3047 23.25 13.6562C23.25 18.0508 20.3672 20.4766 18.5742 21.1797C18.3984 21.25 18.1172 21.3203 17.7656 21.1797C15.5156 20.3008 13.125 17.5938 13.125 13.6562C13.125 13.3047 13.3711 12.9531 13.7227 12.8125L17.7656 11.2305C18.1172 11.0898 18.4336 11.1602 18.5742 11.2305L22.6172 12.8125ZM18.1875 19.5273C19.3828 18.9297 21.3164 17.2422 21.5273 14.1836L18.1875 12.8828V19.5273ZM13.2656 19.5625C13.7227 20.2305 14.2148 20.793 14.7773 21.25H2.4375C1.48828 21.25 0.75 20.5117 0.75 19.5625V18.6836C0.75 16.082 2.85938 13.9375 5.46094 13.9375C6.48047 13.9375 6.9375 14.5 8.58984 14.5C10.0312 14.5 10.5234 14.1133 11.4375 13.9727C11.4375 14.5703 11.5078 15.1328 11.6133 15.6602C11.0859 15.7305 10.2773 16.1875 8.625 16.1875C6.79688 16.1875 5.98828 15.625 5.46094 15.625C3.77344 15.625 2.4375 16.9961 2.4375 18.6836V19.5625H13.2656ZM8.625 13.375C5.8125 13.375 3.5625 11.125 3.5625 8.3125C3.5625 5.53516 5.8125 3.25 8.625 3.25C11.4023 3.25 13.6875 5.53516 13.6875 8.3125C13.6875 11.125 11.4023 13.375 8.625 13.375ZM8.625 4.9375C6.76172 4.9375 5.25 6.48438 5.25 8.3125C5.25 10.1758 6.76172 11.6875 8.625 11.6875C10.4531 11.6875 12 10.1758 12 8.3125C12 6.48438 10.4531 4.9375 8.625 4.9375Z" fill="#292B32"/>
</svg>
