<svg width="24" height="24" viewBox="0 0 24 24" fill="none" xmlns="http://www.w3.org/2000/svg">
<path d="M13.582 4.48047C13.9688 4.65625 14.25 5.07812 14.25 5.5V19C14.25 19.457 13.9688 19.8438 13.582 20.0547C13.4062 20.125 13.2656 20.125 13.125 20.125C12.8438 20.125 12.5625 20.0547 12.3516 19.7734L7.60547 15.5547H4.6875C3.73828 15.5547 3 14.8164 3 13.9023V10.5625C3 9.64844 3.73828 8.875 4.6875 8.875H7.60547L12.3516 4.69141C12.5625 4.48047 12.8438 4.375 13.125 4.375C13.2656 4.375 13.4062 4.41016 13.582 4.48047ZM12.5625 17.7695V6.76562L8.27344 10.5977H4.6875V13.9375H8.27344L12.5625 17.7695ZM17.4844 9.64844C18.293 10.3164 18.75 11.2656 18.75 12.25C18.75 13.2695 18.293 14.2188 17.4844 14.8867C17.3438 14.9922 17.1328 15.0625 16.957 15.0625C16.7109 15.0625 16.4648 14.957 16.2891 14.7461C16.0078 14.3945 16.043 13.8672 16.4297 13.5508C16.8164 13.2344 17.0625 12.7773 17.0625 12.25C17.0625 11.7578 16.8164 11.3008 16.4297 10.9844C16.043 10.668 16.0078 10.1406 16.2891 9.78906C16.4648 9.57812 16.7109 9.47266 16.957 9.47266C17.1328 9.47266 17.3438 9.54297 17.4844 9.64844ZM19.6289 7.04688C21.2109 8.34766 22.125 10.2461 22.125 12.25C22.125 14.2891 21.2109 16.1875 19.6289 17.4883C19.4531 17.5938 19.2773 17.6641 19.0664 17.6641C18.8203 17.6641 18.6094 17.5586 18.4336 17.3477C18.1172 16.9961 18.1875 16.4688 18.5391 16.1523C19.7344 15.2031 20.4375 13.7617 20.4375 12.25C20.4375 10.7734 19.7344 9.33203 18.5391 8.38281C18.1875 8.06641 18.1172 7.53906 18.4336 7.1875C18.6094 6.97656 18.8203 6.87109 19.0664 6.87109C19.2773 6.87109 19.4531 6.94141 19.6289 7.04688Z" fill="#292B32"/>
</svg>
