<svg width="26" height="24" viewBox="0 0 26 24" fill="none" xmlns="http://www.w3.org/2000/svg">
<path d="M15.8125 6.0625C17.043 6.0625 18.3789 5.64062 19.6445 5.07812C20.7344 4.62109 22 5.42969 22 6.625V15.0625C22 15.6602 21.6836 16.1875 21.2266 16.5039C20.2773 17.1016 18.7656 17.875 16.6914 17.875C14.3008 17.875 12.7188 16.75 10.9961 16.75C9.02734 16.75 7.83203 17.1719 6.53125 17.7695V20.6875C6.53125 21.0039 6.25 21.25 5.96875 21.25H5.40625C5.08984 21.25 4.84375 21.0039 4.84375 20.6875V6.41406C4.31641 6.13281 4 5.57031 4 4.9375C4 3.98828 4.80859 3.21484 5.79297 3.28516C6.60156 3.32031 7.26953 3.95312 7.33984 4.76172C7.33984 4.79688 7.375 4.90234 7.375 4.9375C7.375 5.11328 7.30469 5.35938 7.26953 5.5C8.04297 5.18359 8.99219 4.9375 10.1172 4.9375C12.5078 4.9375 14.0898 6.0625 15.8125 6.0625ZM20.3125 15.0625V6.625C19.1875 7.15234 17.3242 7.75 15.8125 7.75C13.7031 7.75 12.2266 6.625 10.1172 6.625C8.64062 6.625 7.26953 7.22266 6.53125 7.75V15.9062C7.62109 15.4141 9.48438 15.0625 10.9961 15.0625C13.1055 15.0625 14.582 16.1875 16.6914 16.1875C18.168 16.1875 19.5391 15.625 20.3125 15.0625Z" fill="#292B32"/>
<mask id="path-4-outside-1_10849_8425" maskUnits="userSpaceOnUse" x="0" y="2" width="26" height="21" fill="black">
<rect fill="white" y="2" width="26" height="21"/>
<path d="M22.9844 21.1445L1.96094 4.69141C1.71484 4.51562 1.64453 4.16406 1.85547 3.91797L2.20703 3.46094C2.41797 3.25 2.76953 3.17969 3.01562 3.39062L24.0391 19.8438C24.25 20.0195 24.3203 20.3711 24.1094 20.6172L23.7578 21.0391C23.5469 21.2852 23.1953 21.3555 22.9844 21.1445Z"/>
</mask>
<path d="M22.9844 21.1445L1.96094 4.69141C1.71484 4.51562 1.64453 4.16406 1.85547 3.91797L2.20703 3.46094C2.41797 3.25 2.76953 3.17969 3.01562 3.39062L24.0391 19.8438C24.25 20.0195 24.3203 20.3711 24.1094 20.6172L23.7578 21.0391C23.5469 21.2852 23.1953 21.3555 22.9844 21.1445Z" fill="#292B32"/>
<path d="M22.9844 21.1445L23.6915 20.4374L23.6485 20.3945L23.6007 20.357L22.9844 21.1445ZM1.96094 4.69141L2.57725 3.9039L2.56 3.8904L2.54218 3.87767L1.96094 4.69141ZM1.85547 3.91797L2.61473 4.56876L2.63195 4.54866L2.64809 4.52768L1.85547 3.91797ZM2.20703 3.46094L1.49992 2.75383L1.454 2.79975L1.41441 2.85123L2.20703 3.46094ZM3.01562 3.39062L2.36483 4.14988L2.38176 4.16439L2.39932 4.17813L3.01562 3.39062ZM24.0391 19.8438L24.6792 19.0755L24.6675 19.0657L24.6554 19.0562L24.0391 19.8438ZM24.1094 20.6172L23.35 19.9663L23.3412 19.977L24.1094 20.6172ZM23.7578 21.0391L24.5171 21.6899L24.526 21.6792L23.7578 21.0391ZM23.6007 20.357L2.57725 3.9039L1.34463 5.47891L22.3681 21.932L23.6007 20.357ZM2.54218 3.87767C2.63854 3.9465 2.70545 4.05267 2.72483 4.17668C2.74573 4.31046 2.70893 4.45886 2.61473 4.56876L1.09621 3.26718C0.460128 4.00928 0.71138 5.02777 1.3797 5.50514L2.54218 3.87767ZM2.64809 4.52768L2.99966 4.07065L1.41441 2.85123L1.06284 3.30826L2.64809 4.52768ZM2.91414 4.16804C2.86884 4.21334 2.80563 4.24975 2.71848 4.26031C2.61748 4.27255 2.47829 4.24713 2.36483 4.14988L3.66642 2.63137C2.91528 1.98754 1.97011 2.28365 1.49992 2.75383L2.91414 4.16804ZM2.39932 4.17813L23.4228 20.6313L24.6554 19.0562L3.63193 2.60312L2.39932 4.17813ZM23.3989 20.612C23.3004 20.5299 23.2525 20.427 23.2401 20.3281C23.2261 20.2157 23.2555 20.0768 23.3501 19.9664L24.8686 21.268C25.4917 20.541 25.2582 19.558 24.6792 19.0755L23.3989 20.612ZM23.3412 19.977L22.9896 20.3989L24.526 21.6792L24.8776 21.2574L23.3412 19.977ZM22.9986 20.3883C23.0356 20.345 23.1037 20.2928 23.2167 20.2752C23.3438 20.2553 23.5389 20.2849 23.6915 20.4374L22.2773 21.8516C23.0528 22.6272 24.0837 22.1955 24.5171 21.6899L22.9986 20.3883Z" fill="white" mask="url(#path-4-outside-1_10849_8425)"/>
</svg>
