<svg width="161" height="160" viewBox="0 0 161 160" fill="none" xmlns="http://www.w3.org/2000/svg">
<path d="M130.452 24H34.4521C30.0339 24 26.4521 27.5817 26.4521 32V128C26.4521 132.418 30.0339 136 34.4521 136H130.452C134.87 136 138.452 132.418 138.452 128V32C138.452 27.5817 134.87 24 130.452 24Z" fill="#EBECEF"/>
<path d="M44.0522 67.7H44.5522H152.052C152.981 67.7 153.871 68.0688 154.527 68.7251C155.184 69.3815 155.552 70.2718 155.552 71.2V91.2C155.552 92.1283 155.184 93.0185 154.527 93.6749C153.871 94.3313 152.981 94.7 152.052 94.7H44.0522C43.124 94.7 42.2337 94.3313 41.5774 93.6749C40.921 93.0185 40.5522 92.1283 40.5522 91.2V71.2C40.5522 70.2718 40.921 69.3815 41.5774 68.7251C42.2337 68.0688 43.124 67.7 44.0522 67.7Z" fill="white" stroke="#EBECEF"/>
<path opacity="0.3" d="M91.2523 73.6H70.4522C69.1268 73.6 68.0522 74.6745 68.0522 76C68.0522 77.3255 69.1268 78.4 70.4522 78.4H91.2523C92.5777 78.4 93.6523 77.3255 93.6523 76C93.6523 74.6745 92.5777 73.6 91.2523 73.6Z" fill="#A5A9B5"/>
<path opacity="0.15" d="M105.652 84H70.4522C69.1268 84 68.0522 85.0745 68.0522 86.4C68.0522 87.7255 69.1268 88.8 70.4522 88.8H105.652C106.978 88.8 108.052 87.7255 108.052 86.4C108.052 85.0745 106.978 84 105.652 84Z" fill="#A5A9B5"/>
<path d="M54.0521 88.8C58.2495 88.8 61.6521 85.3974 61.6521 81.2C61.6521 77.0027 58.2495 73.6 54.0521 73.6C49.8548 73.6 46.4521 77.0027 46.4521 81.2C46.4521 85.3974 49.8548 88.8 54.0521 88.8Z" fill="#A5A9B5"/>
<path d="M9.65234 102.1H10.1523H117.652C118.581 102.1 119.471 102.469 120.127 103.125C120.784 103.782 121.152 104.672 121.152 105.6V125.6C121.152 126.528 120.784 127.419 120.127 128.075C119.471 128.731 118.581 129.1 117.652 129.1H9.65234C8.72409 129.1 7.83385 128.731 7.17747 128.075C6.52109 127.419 6.15234 126.528 6.15234 125.6V105.6C6.15234 104.672 6.52109 103.782 7.17747 103.125C7.83385 102.469 8.72409 102.1 9.65234 102.1Z" fill="white" stroke="#EBECEF"/>
<path opacity="0.3" d="M56.8523 108H36.0523C34.7269 108 33.6523 109.075 33.6523 110.4C33.6523 111.725 34.7269 112.8 36.0523 112.8H56.8523C58.1778 112.8 59.2523 111.725 59.2523 110.4C59.2523 109.075 58.1778 108 56.8523 108Z" fill="#A5A9B5"/>
<path opacity="0.15" d="M71.2523 118.4H36.0523C34.7269 118.4 33.6523 119.475 33.6523 120.8C33.6523 122.126 34.7269 123.2 36.0523 123.2H71.2523C72.5778 123.2 73.6523 122.126 73.6523 120.8C73.6523 119.475 72.5778 118.4 71.2523 118.4Z" fill="#A5A9B5"/>
<path d="M19.6522 123.2C23.8496 123.2 27.2522 119.797 27.2522 115.6C27.2522 111.403 23.8496 108 19.6522 108C15.4549 108 12.0522 111.403 12.0522 115.6C12.0522 119.797 15.4549 123.2 19.6522 123.2Z" fill="#A5A9B5"/>
<path d="M9.65234 33.3H117.652C119.585 33.3 121.152 34.867 121.152 36.8V56.8C121.152 58.733 119.585 60.3 117.652 60.3H9.65234C7.71935 60.3 6.15234 58.733 6.15234 56.8V36.8C6.15234 34.867 7.71935 33.3 9.65234 33.3Z" fill="white" stroke="#EBECEF"/>
<path opacity="0.3" d="M55.2522 39.2H34.4522C33.1268 39.2 32.0522 40.2745 32.0522 41.6C32.0522 42.9255 33.1268 44 34.4522 44H55.2522C56.5777 44 57.6522 42.9255 57.6522 41.6C57.6522 40.2745 56.5777 39.2 55.2522 39.2Z" fill="#A5A9B5"/>
<path opacity="0.15" d="M69.6522 49.6H34.4522C33.1268 49.6 32.0522 50.6745 32.0522 52C32.0522 53.3255 33.1268 54.4 34.4522 54.4H69.6522C70.9777 54.4 72.0522 53.3255 72.0522 52C72.0522 50.6745 70.9777 49.6 69.6522 49.6Z" fill="#A5A9B5"/>
<path d="M19.6522 54.4C23.8496 54.4 27.2522 50.9974 27.2522 46.8C27.2522 42.6026 23.8496 39.2 19.6522 39.2C15.4549 39.2 12.0522 42.6026 12.0522 46.8C12.0522 50.9974 15.4549 54.4 19.6522 54.4Z" fill="#A5A9B5"/>
</svg>
