<svg width="17" height="16" viewBox="0 0 17 16" fill="none" xmlns="http://www.w3.org/2000/svg">
<path d="M16.2734 8C16.2734 12.2812 12.7734 15.75 8.52344 15.75C4.24219 15.75 0.773438 12.2812 0.773438 8C0.773438 3.75 4.24219 0.25 8.52344 0.25C12.7734 0.25 16.2734 3.75 16.2734 8ZM8.52344 9.5625C7.71094 9.5625 7.08594 10.2188 7.08594 11C7.08594 11.8125 7.71094 12.4375 8.52344 12.4375C9.30469 12.4375 9.96094 11.8125 9.96094 11C9.96094 10.2188 9.30469 9.5625 8.52344 9.5625ZM7.14844 4.40625L7.36719 8.65625C7.39844 8.875 7.55469 9 7.74219 9H9.27344C9.46094 9 9.61719 8.875 9.64844 8.65625L9.86719 4.40625C9.89844 4.1875 9.71094 4 9.49219 4H7.52344C7.30469 4 7.11719 4.1875 7.14844 4.40625Z" fill="#898E9E"/>
</svg>
