<svg width="25" height="24" viewBox="0 0 25 24" fill="none" xmlns="http://www.w3.org/2000/svg">
<path d="M20.3804 5.25391C21.2593 6.13281 21.2593 7.53906 20.3804 8.41797L17.7437 11.0547L16.5483 12.25L7.97021 20.8281L3.9624 21.25C3.92725 21.25 3.89209 21.25 3.85693 21.25C3.36475 21.25 2.97803 20.8281 3.04834 20.3359L3.47021 16.3281L12.0483 7.75L13.2437 6.55469L15.8804 3.91797C16.3022 3.49609 16.8999 3.25 17.4624 3.25C18.0249 3.25 18.6226 3.49609 19.0444 3.91797L20.3804 5.25391ZM7.19678 19.2109L15.353 11.0898L16.4429 10L14.2983 7.85547L13.2085 8.94531L5.0874 17.1016L4.84131 19.457L7.19678 19.2109ZM19.1851 7.22266C19.396 7.01172 19.396 6.66016 19.1851 6.44922L17.8491 5.11328C17.7085 4.97266 17.5327 4.9375 17.4624 4.9375C17.3921 4.9375 17.2163 4.97266 17.0757 5.11328L15.4937 6.66016L17.6382 8.80469L19.1851 7.22266Z" fill="#292B32"/>
</svg>
