<svg width="60" height="61" viewBox="0 0 60 61" fill="none" xmlns="http://www.w3.org/2000/svg">
<path d="M18.8203 25.0547L35.5898 41.9297C36.4336 42.7734 36.75 43.9336 36.5391 44.9883C36.3281 46.1484 35.4844 47.0977 34.4297 47.4141L7.53516 57.5391C7.11328 57.75 6.69141 57.75 6.375 57.75C5.42578 57.75 4.58203 57.4336 4.05469 56.8008C3.10547 55.8516 2.78906 54.4805 3.21094 53.2148L13.2305 26.2148C13.6523 25.1602 14.6016 24.4219 15.7617 24.1055C15.9727 24.1055 16.1836 24 16.3945 24C17.3438 24 18.1875 24.4219 18.8203 25.0547ZM6.375 54.375L14.3906 51.3164L9.32812 46.2539L6.375 54.375ZM17.8711 50.0508L24.1992 47.7305L13.0195 36.5508L10.5938 42.8789L17.8711 50.0508ZM27.6797 46.3594L33.2695 44.25L16.3945 27.4805L14.2852 33.0703L27.6797 46.3594ZM55.3125 30.75C56.1562 30.75 57 31.5938 57 32.4375C57 33.3867 56.1562 34.125 55.3125 34.125H54.1523C49.8281 34.125 45.9258 36.3398 43.1836 40.2422C42.7617 40.6641 42.2344 40.875 41.8125 40.875C41.3906 40.875 41.0742 40.7695 40.7578 40.6641C40.0195 40.0312 39.8086 38.9766 40.3359 38.2383C43.8164 33.4922 48.7734 30.75 54.1523 30.75H55.3125ZM21.5625 20.625C21.0352 20.625 20.5078 20.4141 20.0859 19.9922C19.5586 19.2539 19.7695 18.1992 20.6133 17.5664C24.5156 14.8242 26.625 10.9219 26.625 6.59766V5.4375C26.625 4.59375 27.4688 3.75 28.3125 3.75C29.1562 3.75 30 4.59375 30 5.4375V6.59766C30 11.9766 27.2578 16.9336 22.5117 20.3086C22.1953 20.5195 21.8789 20.625 21.5625 20.625ZM9.75 9.65625C8.27344 9.65625 7.21875 8.60156 7.21875 7.125C7.21875 5.75391 8.27344 4.59375 9.75 4.59375C11.1211 4.59375 12.2812 5.75391 12.2812 7.125C12.2812 8.60156 11.1211 9.65625 9.75 9.65625ZM53.625 48.4688C54.9961 48.4688 56.1562 49.6289 56.1562 51C56.1562 52.4766 54.9961 53.5312 53.625 53.5312C52.1484 53.5312 51.0938 52.4766 51.0938 51C51.0938 49.6289 52.1484 48.4688 53.625 48.4688ZM53.625 18.0938C54.9961 18.0938 56.1562 19.2539 56.1562 20.625C56.1562 22.1016 54.9961 23.1562 53.625 23.1562C52.1484 23.1562 51.0938 22.1016 51.0938 20.625C51.0938 19.2539 52.1484 18.0938 53.625 18.0938ZM43.2891 22.3125C41.1797 24.7383 38.8594 24.9492 36.9609 25.1602C35.2734 25.2656 34.1133 25.3711 32.9531 26.8477C32.6367 27.2695 32.1094 27.375 31.6875 27.375C31.2656 27.375 30.8438 27.2695 30.5273 27.0586C29.7891 26.4258 29.7891 25.3711 30.3164 24.6328C32.4258 22.207 34.7461 21.9961 36.6445 21.7852C38.332 21.6797 39.4922 21.5742 40.7578 20.0977C41.918 18.6211 41.918 17.4609 41.8125 15.7734C41.6016 13.7695 41.4961 11.4492 43.6055 8.91797C45.7148 6.49219 48.0352 6.28125 49.9336 6.07031C51.6211 5.96484 52.7812 5.85938 53.9414 4.38281C54.5742 3.64453 55.6289 3.64453 56.3672 4.17188C57.1055 4.80469 57.1055 5.85938 56.5781 6.59766C54.4688 9.02344 52.1484 9.23438 50.25 9.44531C48.5625 9.55078 47.4023 9.76172 46.1367 11.1328C44.9766 12.6094 44.9766 13.7695 45.082 15.5625C45.293 17.4609 45.3984 19.7812 43.2891 22.3125Z" fill="#EBECEF"/>
</svg>
