<svg width="12" height="13" viewBox="0 0 12 13" fill="none" xmlns="http://www.w3.org/2000/svg">
<path d="M10.9023 2.375C11.0898 2.375 11.2773 2.5625 11.2773 2.75V3.125C11.2773 3.33594 11.0898 3.5 10.9023 3.5H10.5273L10.0117 11.4453C9.98828 12.0312 9.47266 12.5 8.88672 12.5H3.14453C2.55859 12.5 2.04297 12.0312 2.01953 11.4453L1.52734 3.5H1.15234C0.941406 3.5 0.777344 3.33594 0.777344 3.125V2.75C0.777344 2.5625 0.941406 2.375 1.15234 2.375H3.07422L3.87109 1.0625C4.05859 0.757812 4.48047 0.5 4.83203 0.5H7.19922C7.55078 0.5 7.97266 0.757812 8.16016 1.0625L8.95703 2.375H10.9023ZM4.83203 1.625L4.38672 2.375H7.64453L7.19922 1.625H4.83203ZM8.88672 11.375L9.37891 3.5H2.65234L3.14453 11.375H8.88672Z" fill="#898E9E"/>
</svg>
