<svg width="21" height="20" viewBox="0 0 21 20" fill="none" xmlns="http://www.w3.org/2000/svg">
<path d="M19.9062 7.0625C20.0312 7.1875 20.0312 7.375 19.9062 7.5L15.8438 11.5938C15.7188 11.7188 15.5 11.7188 15.375 11.5938L13.0938 9.25C12.9688 9.125 12.9688 8.9375 13.0938 8.8125L13.6875 8.1875C13.8125 8.0625 14 8.0625 14.125 8.1875L15.625 9.6875L18.8438 6.4375C18.9688 6.3125 19.1562 6.3125 19.2812 6.4375L19.9062 7.0625ZM7 11C4.5 11 2.5 9 2.5 6.5C2.5 4.03125 4.5 2 7 2C9.46875 2 11.5 4.03125 11.5 6.5C11.5 9 9.46875 11 7 11ZM7 3.5C5.34375 3.5 4 4.875 4 6.5C4 8.15625 5.34375 9.5 7 9.5C8.625 9.5 10 8.15625 10 6.5C10 4.875 8.625 3.5 7 3.5ZM9.78125 11.5C12.0938 11.5 14 13.4062 14 15.7188V16.5C14 17.3438 13.3125 18 12.5 18H1.5C0.65625 18 0 17.3438 0 16.5V15.7188C0 13.4062 1.875 11.5 4.1875 11.5C5.09375 11.5 5.5 12 7 12C8.46875 12 8.875 11.5 9.78125 11.5ZM12.5 16.5V15.7188C12.5 14.2188 11.2812 13 9.78125 13C9.3125 13 8.59375 13.5 7 13.5C5.375 13.5 4.65625 13 4.1875 13C2.6875 13 1.5 14.2188 1.5 15.7188V16.5H12.5Z" fill="#292B32"/>
</svg>
