<svg width="33" height="32" viewBox="0 0 33 32" fill="none" xmlns="http://www.w3.org/2000/svg">
<circle cx="16.6094" cy="16" r="16" fill="#EBECEF"/>
<path d="M24.3908 21.3104C24.672 21.6229 24.672 22.0917 24.3595 22.3729L23.4845 23.2479C23.2033 23.5604 22.7345 23.5604 22.422 23.2479L19.3283 20.1542C19.172 19.9979 19.1095 19.8104 19.1095 19.6229V19.0917C17.9845 19.9667 16.6095 20.4667 15.1095 20.4667C11.5158 20.4667 8.60954 17.5604 8.60954 13.9667C8.60954 10.4042 11.5158 7.46667 15.1095 7.46667C18.672 7.46667 21.6095 10.4042 21.6095 13.9667C21.6095 15.4979 21.0783 16.8729 20.2345 17.9667H20.7345C20.922 17.9667 21.1095 18.0604 21.2658 18.1854L24.3908 21.3104ZM15.1095 17.9667C17.297 17.9667 19.1095 16.1854 19.1095 13.9667C19.1095 11.7792 17.297 9.96667 15.1095 9.96667C12.8908 9.96667 11.1095 11.7792 11.1095 13.9667C11.1095 16.1854 12.8908 17.9667 15.1095 17.9667Z" fill="#292B32"/>
</svg>
