<svg width="25" height="24" viewBox="0 0 25 24" fill="none" xmlns="http://www.w3.org/2000/svg">
<path d="M19.3608 6.0625C19.6421 6.0625 19.9233 6.34375 19.9233 6.625V7.1875C19.9233 7.50391 19.6421 7.75 19.3608 7.75H18.7983L18.0249 19.668C17.9897 20.5469 17.2163 21.25 16.3374 21.25H7.72412C6.84521 21.25 6.07178 20.5469 6.03662 19.668L5.29834 7.75H4.73584C4.41943 7.75 4.17334 7.50391 4.17334 7.1875V6.625C4.17334 6.34375 4.41943 6.0625 4.73584 6.0625H7.61865L8.81396 4.09375C9.09521 3.63672 9.72803 3.25 10.2554 3.25H13.8062C14.3335 3.25 14.9663 3.63672 15.2476 4.09375L16.4429 6.0625H19.3608ZM10.2554 4.9375L9.5874 6.0625H14.4741L13.8062 4.9375H10.2554ZM16.3374 19.5625L17.0757 7.75H6.98584L7.72412 19.5625H16.3374Z" fill="#292B32"/>
</svg>
