<svg width="21" height="20" viewBox="0 0 21 20" fill="none" xmlns="http://www.w3.org/2000/svg">
<path d="M18.4453 16.6562C18.6016 16.8125 18.6016 17.0625 18.4453 17.1875L17.7266 17.9062C17.6016 18.0625 17.3516 18.0625 17.1953 17.9062L13.4141 14.125C13.3516 14.0312 13.3203 13.9375 13.3203 13.8438V13.4375C12.1641 14.4062 10.6953 15 9.07031 15C5.47656 15 2.57031 12.0938 2.57031 8.5C2.57031 4.9375 5.47656 2 9.07031 2C12.6328 2 15.5703 4.9375 15.5703 8.5C15.5703 10.125 14.9453 11.625 13.9766 12.75H14.3828C14.4766 12.75 14.5703 12.8125 14.6641 12.875L18.4453 16.6562ZM9.07031 13.5C11.8203 13.5 14.0703 11.2812 14.0703 8.5C14.0703 5.75 11.8203 3.5 9.07031 3.5C6.28906 3.5 4.07031 5.75 4.07031 8.5C4.07031 11.2812 6.28906 13.5 9.07031 13.5Z" fill="#292B32"/>
</svg>
