<svg width="32" height="32" viewBox="0 0 32 32" fill="none" xmlns="http://www.w3.org/2000/svg">
<circle cx="16" cy="16" r="16" fill="url(#paint0_linear_2638_19812)"/>
<g clip-path="url(#clip0_2638_19812)">
<path d="M21.8757 9.79033C21.3422 9.20788 20.5128 8.42173 20.16 10.1968C20.04 10.8004 19.7596 11.2656 19.5194 11.6402C19.2604 10.3296 18.4813 8.97308 17.7472 8.05843C17.4725 7.71623 16.4978 6.35588 16.3106 4.08008C16.2826 3.74043 15.8792 3.58093 15.6268 3.81003C13.2152 5.99923 11.8915 9.01013 11.8424 12.3998C11.8424 12.3998 10.8382 11.5533 10.2926 9.97863C10.1457 9.55458 9.5772 9.47368 9.33055 9.84863C9.2832 9.92063 9.2393 9.99273 9.1997 10.0627C7.33905 13.3527 6.444 17.348 7.27145 21.065C8.65495 27.2898 17.8067 29.0301 22.6516 25.1177C27.3919 21.2899 25.8851 14.1654 21.8757 9.79033Z" fill="#ED694A"/>
<path d="M20.412 14.3409C20.018 13.9107 19.4054 13.33 19.1448 14.6411C19.0562 15.0869 18.849 15.4306 18.6716 15.7073C18.4804 14.7392 17.9049 13.7372 17.3627 13.0617C17.1598 12.8089 16.4399 11.8042 16.3015 10.1231C16.2809 9.87224 15.983 9.75449 15.7966 9.92369C14.0153 11.5406 13.0376 13.7646 13.0013 16.2682C13.0013 16.2682 12.2596 15.643 11.8567 14.4799C11.7482 14.1667 11.3282 14.107 11.1461 14.3839C11.1111 14.4371 11.0787 14.4904 11.0494 14.5421C9.67505 16.9721 9.01395 19.9231 9.6251 22.6686C10.647 27.2664 17.4066 28.5518 20.9852 25.662C24.4864 22.8347 23.3735 17.5725 20.412 14.3409Z" fill="#F4A32C"/>
<path d="M19.077 18.4949C18.8103 18.2037 18.3955 17.8106 18.2191 18.6982C18.1592 19 18.0189 19.2326 17.8988 19.4199C17.7693 18.7645 17.3798 18.0863 17.0127 17.629C16.8754 17.4579 16.3881 16.7777 16.2944 15.6398C16.2804 15.4699 16.0787 15.3902 15.9525 15.5048C14.7467 16.5994 14.0849 18.1049 14.0603 19.7996C14.0603 19.7996 13.5582 19.3764 13.2855 18.5891C13.212 18.3771 12.9278 18.3366 12.8045 18.5241C12.7808 18.56 12.7589 18.5961 12.739 18.6311C11.8087 20.2761 11.3612 22.2737 11.7749 24.1323C12.4666 27.2447 17.0425 28.1149 19.4649 26.1586C20.2945 25.4887 20.8088 24.5448 20.9131 23.5006C21.0706 21.9191 20.4619 20.0062 19.077 18.4949Z" fill="#F4D44E"/>
<path d="M17.838 22.35C17.6894 22.1878 17.4583 21.9688 17.36 22.4632C17.3266 22.6314 17.2485 22.761 17.1816 22.8653C17.1094 22.5002 16.8924 22.1223 16.6879 21.8676C16.6114 21.7722 16.3399 21.3933 16.2877 20.7593C16.2799 20.6647 16.1675 20.6203 16.0972 20.6841C15.4255 21.2939 15.0567 22.1327 15.043 23.0769C15.043 23.0769 14.7633 22.8411 14.6113 22.4024C14.5704 22.2843 14.412 22.2617 14.3434 22.3662C14.3302 22.3863 14.318 22.4064 14.307 22.4259C13.7887 23.3424 13.5393 24.4553 13.7698 25.4907C14.2947 27.8523 18.5971 27.7807 18.861 25.1388C18.9486 24.2577 18.6095 23.1919 17.838 22.35Z" fill="#EAE9E8"/>
<path d="M14.7688 25.9597C14.5383 25.0334 14.7876 24.0379 15.3059 23.2181C15.3169 23.2006 15.3292 23.1827 15.3423 23.1647C15.411 23.0713 15.5694 23.0914 15.6103 23.1971C15.7622 23.5895 16.042 23.8004 16.042 23.8004C16.0532 23.1064 16.3046 22.4764 16.7664 21.9711C16.6631 21.8281 16.3472 21.4833 16.2877 20.7597C16.2799 20.665 16.1675 20.6207 16.0972 20.6844C15.4255 21.2943 15.0567 22.133 15.043 23.0772C15.043 23.0772 14.7633 22.8414 14.6113 22.4028C14.5704 22.2847 14.412 22.2621 14.3434 22.3666C14.3302 22.3867 14.318 22.4068 14.307 22.4263C13.7887 23.3427 13.5393 24.4557 13.7698 25.4911C13.9831 26.4509 14.8594 27.0277 15.8282 27.1669C15.3056 26.9102 14.904 26.5038 14.7688 25.9597Z" fill="#F7E7A1"/>
</g>
<defs>
<linearGradient id="paint0_linear_2638_19812" x1="7.2" y1="7.2" x2="24.8" y2="28.8" gradientUnits="userSpaceOnUse">
<stop stop-color="#FFF09F"/>
<stop offset="1" stop-color="#FCCF5A"/>
</linearGradient>
<clipPath id="clip0_2638_19812">
<rect width="25.6" height="25.6" fill="white" transform="translate(3.2002 1.59998)"/>
</clipPath>
</defs>
</svg>
