<svg width="15" height="16" viewBox="0 0 15 16" fill="none" xmlns="http://www.w3.org/2000/svg">
<path d="M14.5625 8.96875C14.6875 9.6875 14.5938 10.375 14.2812 10.9375C14.375 11.6875 14.1562 12.4688 13.7188 13.0312C13.6875 14.7812 12.625 16 10.2188 16C10 16 9.75 16 9.5 16C6.3125 16 5.34375 14.8125 3.9375 14.7812C3.84375 15.1875 3.4375 15.5 3 15.5H1C0.4375 15.5 0 15.0625 0 14.5V7C0 6.46875 0.4375 6 1 6H4.0625C4.65625 5.5 5.5 4.125 6.21875 3.40625C6.65625 2.96875 6.53125 0 8.46875 0C10.25 0 11.4375 1 11.4375 3.28125C11.4375 3.875 11.3125 4.34375 11.1562 4.75H12.3125C13.8125 4.75 15 6.03125 15 7.40625C15 8 14.8438 8.5 14.5625 8.96875ZM12.625 10.6562C13.3125 10.0312 13.2188 9.0625 12.7812 8.59375C13.0938 8.59375 13.5 8 13.5 7.4375C13.4688 6.84375 12.9688 6.25 12.3125 6.25H9.0625C9.0625 5.0625 9.9375 4.5 9.9375 3.28125C9.9375 2.53125 9.9375 1.5 8.46875 1.5C7.875 2.09375 8.15625 3.59375 7.28125 4.46875C6.4375 5.3125 5.21875 7.5 4.3125 7.5H4V13.3438C5.65625 13.3438 7.125 14.5 9.34375 14.5H10.5312C11.625 14.5 12.4375 13.9688 12.1875 12.4688C12.6562 12.1875 13.0312 11.3125 12.625 10.6562ZM2.75 13.5C2.75 13.0938 2.40625 12.75 2 12.75C1.5625 12.75 1.25 13.0938 1.25 13.5C1.25 13.9375 1.5625 14.25 2 14.25C2.40625 14.25 2.75 13.9375 2.75 13.5Z" fill="#898E9E"/>
</svg>
