<svg width="33" height="32" viewBox="0 0 33 32" fill="none" xmlns="http://www.w3.org/2000/svg">
<circle cx="16.6094" cy="16" r="16" fill="#EBECEF"/>
<path d="M22.609 13.9667C23.1403 13.9667 23.609 14.4354 23.609 14.9667V15.9667C23.609 16.5292 23.1403 16.9667 22.609 16.9667H18.109V21.4667C18.109 22.0292 17.6403 22.4667 17.109 22.4667H16.109C15.5465 22.4667 15.109 22.0292 15.109 21.4667V16.9667H10.609C10.0465 16.9667 9.60905 16.5292 9.60905 15.9667V14.9667C9.60905 14.4354 10.0465 13.9667 10.609 13.9667H15.109V9.46667C15.109 8.93542 15.5465 8.46667 16.109 8.46667H17.109C17.6403 8.46667 18.109 8.93542 18.109 9.46667V13.9667H22.609Z" fill="#292B32"/>
</svg>
