<svg width="61" height="60" viewBox="0 0 61 60" fill="none" xmlns="http://www.w3.org/2000/svg">
<path d="M19.3203 24.5547L36.0898 41.4297C36.9336 42.2734 37.25 43.4336 37.0391 44.4883C36.8281 45.6484 35.9844 46.5977 34.9297 46.9141L8.03516 57.0391C7.61328 57.25 7.19141 57.25 6.875 57.25C5.92578 57.25 5.08203 56.9336 4.55469 56.3008C3.60547 55.3516 3.28906 53.9805 3.71094 52.7148L13.7305 25.7148C14.1523 24.6602 15.1016 23.9219 16.2617 23.6055C16.4727 23.6055 16.6836 23.5 16.8945 23.5C17.8438 23.5 18.6875 23.9219 19.3203 24.5547ZM6.875 53.875L14.8906 50.8164L9.82812 45.7539L6.875 53.875ZM18.3711 49.5508L24.6992 47.2305L13.5195 36.0508L11.0938 42.3789L18.3711 49.5508ZM28.1797 45.8594L33.7695 43.75L16.8945 26.9805L14.7852 32.5703L28.1797 45.8594ZM55.8125 30.25C56.6562 30.25 57.5 31.0938 57.5 31.9375C57.5 32.8867 56.6562 33.625 55.8125 33.625H54.6523C50.3281 33.625 46.4258 35.8398 43.6836 39.7422C43.2617 40.1641 42.7344 40.375 42.3125 40.375C41.8906 40.375 41.5742 40.2695 41.2578 40.1641C40.5195 39.5312 40.3086 38.4766 40.8359 37.7383C44.3164 32.9922 49.2734 30.25 54.6523 30.25H55.8125ZM22.0625 20.125C21.5352 20.125 21.0078 19.9141 20.5859 19.4922C20.0586 18.7539 20.2695 17.6992 21.1133 17.0664C25.0156 14.3242 27.125 10.4219 27.125 6.09766V4.9375C27.125 4.09375 27.9688 3.25 28.8125 3.25C29.6562 3.25 30.5 4.09375 30.5 4.9375V6.09766C30.5 11.4766 27.7578 16.4336 23.0117 19.8086C22.6953 20.0195 22.3789 20.125 22.0625 20.125ZM10.25 9.15625C8.77344 9.15625 7.71875 8.10156 7.71875 6.625C7.71875 5.25391 8.77344 4.09375 10.25 4.09375C11.6211 4.09375 12.7812 5.25391 12.7812 6.625C12.7812 8.10156 11.6211 9.15625 10.25 9.15625ZM54.125 47.9688C55.4961 47.9688 56.6562 49.1289 56.6562 50.5C56.6562 51.9766 55.4961 53.0312 54.125 53.0312C52.6484 53.0312 51.5938 51.9766 51.5938 50.5C51.5938 49.1289 52.6484 47.9688 54.125 47.9688ZM54.125 17.5938C55.4961 17.5938 56.6562 18.7539 56.6562 20.125C56.6562 21.6016 55.4961 22.6562 54.125 22.6562C52.6484 22.6562 51.5938 21.6016 51.5938 20.125C51.5938 18.7539 52.6484 17.5938 54.125 17.5938ZM43.7891 21.8125C41.6797 24.2383 39.3594 24.4492 37.4609 24.6602C35.7734 24.7656 34.6133 24.8711 33.4531 26.3477C33.1367 26.7695 32.6094 26.875 32.1875 26.875C31.7656 26.875 31.3438 26.7695 31.0273 26.5586C30.2891 25.9258 30.2891 24.8711 30.8164 24.1328C32.9258 21.707 35.2461 21.4961 37.1445 21.2852C38.832 21.1797 39.9922 21.0742 41.2578 19.5977C42.418 18.1211 42.418 16.9609 42.3125 15.2734C42.1016 13.2695 41.9961 10.9492 44.1055 8.41797C46.2148 5.99219 48.5352 5.78125 50.4336 5.57031C52.1211 5.46484 53.2812 5.35938 54.4414 3.88281C55.0742 3.14453 56.1289 3.14453 56.8672 3.67188C57.6055 4.30469 57.6055 5.35938 57.0781 6.09766C54.9688 8.52344 52.6484 8.73438 50.75 8.94531C49.0625 9.05078 47.9023 9.26172 46.6367 10.6328C45.4766 12.1094 45.4766 13.2695 45.582 15.0625C45.793 16.9609 45.8984 19.2812 43.7891 21.8125Z" fill="#EBECEF"/>
</svg>
