<svg width="20" height="21" viewBox="0 0 20 21" fill="none" xmlns="http://www.w3.org/2000/svg">
<path d="M11.4688 10.5L14.8438 13.875C15.0312 14.0625 15.0312 14.4062 14.8438 14.5938L14.0625 15.375C13.875 15.5625 13.5312 15.5625 13.3438 15.375L10 12L6.625 15.375C6.4375 15.5625 6.09375 15.5625 5.90625 15.375L5.125 14.5938C4.9375 14.4062 4.9375 14.0625 5.125 13.875L8.5 10.5L5.125 7.15625C4.9375 6.96875 4.9375 6.625 5.125 6.4375L5.90625 5.65625C6.09375 5.46875 6.4375 5.46875 6.625 5.65625L10 9.03125L13.3438 5.65625C13.5312 5.46875 13.875 5.46875 14.0625 5.65625L14.8438 6.4375C15.0312 6.625 15.0312 6.96875 14.8438 7.15625L11.4688 10.5Z" fill="#898E9E"/>
</svg>
