<svg width="14" height="19" viewBox="0 0 14 19" fill="none" xmlns="http://www.w3.org/2000/svg">
<path d="M12.0625 2.5C12.9766 2.5 13.75 3.27344 13.75 4.1875V16.5625C13.75 17.5117 12.9766 18.25 12.0625 18.25H1.9375C0.988281 18.25 0.25 17.5117 0.25 16.5625V4.1875C0.25 3.27344 0.988281 2.5 1.9375 2.5H4.75C4.75 1.26953 5.73438 0.25 7 0.25C8.23047 0.25 9.25 1.26953 9.25 2.5H12.0625ZM7 1.65625C6.50781 1.65625 6.15625 2.04297 6.15625 2.5C6.15625 2.99219 6.50781 3.34375 7 3.34375C7.45703 3.34375 7.84375 2.99219 7.84375 2.5C7.84375 2.04297 7.45703 1.65625 7 1.65625ZM11.2539 9.8125C11.3945 9.67188 11.4297 9.39062 11.2539 9.21484L10.2695 8.23047C10.0938 8.05469 9.8125 8.05469 9.67188 8.23047L5.94531 11.9219L4.32812 10.3047C4.15234 10.1289 3.87109 10.1289 3.73047 10.2695L2.71094 11.2891C2.57031 11.4297 2.53516 11.7109 2.71094 11.8867L5.62891 14.8047C5.76953 14.9805 6.05078 14.9805 6.22656 14.8047L11.2539 9.8125Z" fill="#292B32"/>
</svg>
