<svg width="33" height="32" viewBox="0 0 33 32" fill="none" xmlns="http://www.w3.org/2000/svg">
<rect x="0.25" width="32" height="32" rx="16" fill="black" fill-opacity="0.5"/>
<path d="M16.4258 23.9141C16.2852 24.0898 16.0039 24.0898 15.8281 23.9141L8.48047 16.5664C8.30469 16.3906 8.30469 16.1445 8.48047 15.9688L15.8281 8.62109C16.0039 8.44531 16.2852 8.44531 16.4258 8.62109L17.1289 9.28906C17.3047 9.46484 17.3047 9.74609 17.1289 9.88672L11.6797 15.3359H23.7031C23.9141 15.3359 24.125 15.5469 24.125 15.7578V16.7422C24.125 16.9883 23.9141 17.1641 23.7031 17.1641H11.6797L17.1289 22.6484C17.3047 22.7891 17.3047 23.0703 17.1289 23.2461L16.4258 23.9141Z" fill="white"/>
</svg>
