<svg width="18" height="16" viewBox="0 0 18 16" fill="none" xmlns="http://www.w3.org/2000/svg">
<path d="M9.96045 7.09375H10.7573C11.189 7.09375 11.5542 7.45898 11.5542 7.89062V8.6875V9.65039L15.5386 6.03125L11.5542 2.44531V3.375V4.17188C11.5542 4.63672 11.189 4.96875 10.7573 4.96875H9.96045H6.2417C3.88428 4.96875 1.9917 6.89453 1.9917 9.21875C1.9917 9.75 2.0249 10.2148 2.15771 10.6133C2.72217 8.58789 4.54834 7.09375 6.77295 7.09375H9.96045ZM9.96045 8.6875V8.7207H8.3667H6.77295C5.01318 8.7207 3.58545 10.1484 3.58545 11.9082C3.58545 12.4727 3.71826 12.9043 3.88428 13.2363C3.95068 13.3359 3.98389 13.4023 4.05029 13.502C4.1499 13.6016 4.21631 13.7012 4.31592 13.7676C4.31592 13.8008 4.34912 13.8008 4.34912 13.834C4.51514 14 4.61475 14.1992 4.61475 14.4316C4.61475 14.7969 4.34912 15.0625 3.98389 15.0625C3.88428 15.0625 3.78467 15.0625 3.71826 15.0293C3.61865 14.9629 3.48584 14.8965 3.35303 14.7969C3.25342 14.7305 3.15381 14.6641 3.0542 14.5977C2.92139 14.498 2.78857 14.3984 2.65576 14.2988C1.65967 13.4355 0.397949 11.8086 0.397949 9.21875C0.397949 5.99805 2.98779 3.375 6.2417 3.375H8.3667H9.96045V1.78125V1.25C9.96045 0.851562 10.1929 0.453125 10.5913 0.287109C10.9565 0.121094 11.4214 0.1875 11.7202 0.486328L17.0327 5.26758C17.2651 5.4668 17.3979 5.73242 17.3979 6.03125C17.3979 6.36328 17.2651 6.62891 17.0327 6.82812L11.7202 11.6094C11.4214 11.9082 10.9565 11.9746 10.5913 11.8086C10.1929 11.6426 9.96045 11.2441 9.96045 10.8125V10.2812V8.6875Z" fill="#898E9E"/>
</svg>
