<svg width="32" height="32" viewBox="0 0 32 32" fill="none" xmlns="http://www.w3.org/2000/svg">
<g clip-path="url(#clip0_2638_19828)">
<path d="M16 32C24.8366 32 32 24.8366 32 16C32 7.16344 24.8366 0 16 0C7.16344 0 0 7.16344 0 16C0 24.8366 7.16344 32 16 32Z" fill="#FFD54F"/>
<path d="M9.33366 14.6667C10.8064 14.6667 12.0003 13.4728 12.0003 12C12.0003 10.5273 10.8064 9.33337 9.33366 9.33337C7.8609 9.33337 6.66699 10.5273 6.66699 12C6.66699 13.4728 7.8609 14.6667 9.33366 14.6667Z" fill="#6D4C41"/>
<path d="M22.6667 14.6667C24.1394 14.6667 25.3333 13.4728 25.3333 12C25.3333 10.5273 24.1394 9.33337 22.6667 9.33337C21.1939 9.33337 20 10.5273 20 12C20 13.4728 21.1939 14.6667 22.6667 14.6667Z" fill="#6D4C41"/>
<path d="M21.0248 26.8372C20.674 26.8372 20.3232 26.7038 20.0564 26.4352C17.8894 24.2682 14.1108 24.2682 11.9456 26.4352C11.4103 26.9705 10.5423 26.9705 10.007 26.4352C9.47163 25.9016 9.47163 25.0319 10.007 24.4966C11.6076 22.896 13.7362 22.0153 16.0001 22.0153C18.264 22.0153 20.3926 22.896 21.9932 24.4984C22.5286 25.0337 22.5286 25.9016 21.9932 26.437C21.7264 26.7038 21.3756 26.8372 21.0248 26.8372Z" fill="#6D4C41"/>
<path d="M24.8223 16.0987C24.449 15.5587 23.5503 15.5587 23.177 16.0987C22.6223 16.9014 21.333 18.8881 21.333 20.0001C21.333 21.4707 22.529 22.6667 23.9997 22.6667C25.4703 22.6667 26.6663 21.4707 26.6663 20.0001C26.6663 18.8881 25.377 16.9014 24.8223 16.0987Z" fill="#00BCD4"/>
</g>
<defs>
<clipPath id="clip0_2638_19828">
<rect width="32" height="32" fill="white"/>
</clipPath>
</defs>
</svg>
