<svg width="25" height="24" viewBox="0 0 25 24" fill="none" xmlns="http://www.w3.org/2000/svg">
<path d="M15.5234 8.3125L14.6797 6.0625H10.2852L9.44141 8.3125H5.1875V18.4375H19.8125V8.3125H15.5234ZM14.8906 4.375C15.4883 4.375 15.9805 4.76172 16.1914 5.28906L16.7188 6.625H19.8125C20.7266 6.625 21.5 7.39844 21.5 8.3125V18.4375C21.5 19.3867 20.7266 20.125 19.8125 20.125H5.1875C4.23828 20.125 3.5 19.3867 3.5 18.4375V8.3125C3.5 7.39844 4.23828 6.625 5.1875 6.625H8.28125L8.70312 5.5C8.94922 4.83203 9.58203 4.375 10.2852 4.375H14.8906ZM12.5 17.5938C10.1445 17.5938 8.28125 15.7305 8.28125 13.375C8.28125 11.0547 10.1445 9.15625 12.5 9.15625C14.8203 9.15625 16.7188 11.0547 16.7188 13.375C16.7188 15.7305 14.8203 17.5938 12.5 17.5938ZM12.5 10.8438C11.0938 10.8438 9.96875 12.0039 9.96875 13.375C9.96875 14.7812 11.0938 15.9062 12.5 15.9062C13.8711 15.9062 15.0312 14.7812 15.0312 13.375C15.0312 12.0039 13.8711 10.8438 12.5 10.8438Z" fill="white"/>
</svg>
