<svg width="49" height="48" viewBox="0 0 49 48" fill="none" xmlns="http://www.w3.org/2000/svg">
<path d="M30.5469 16.625L28.8594 12.125H20.0703L18.3828 16.625H9.875V36.875H39.125V16.625H30.5469ZM29.2812 8.75C30.4766 8.75 31.4609 9.52344 31.8828 10.5781L32.9375 13.25H39.125C40.9531 13.25 42.5 14.7969 42.5 16.625V36.875C42.5 38.7734 40.9531 40.25 39.125 40.25H9.875C7.97656 40.25 6.5 38.7734 6.5 36.875V16.625C6.5 14.7969 7.97656 13.25 9.875 13.25H16.0625L16.9062 11C17.3984 9.66406 18.6641 8.75 20.0703 8.75H29.2812ZM24.5 35.1875C19.7891 35.1875 16.0625 31.4609 16.0625 26.75C16.0625 22.1094 19.7891 18.3125 24.5 18.3125C29.1406 18.3125 32.9375 22.1094 32.9375 26.75C32.9375 31.4609 29.1406 35.1875 24.5 35.1875ZM24.5 21.6875C21.6875 21.6875 19.4375 24.0078 19.4375 26.75C19.4375 29.5625 21.6875 31.8125 24.5 31.8125C27.2422 31.8125 29.5625 29.5625 29.5625 26.75C29.5625 24.0078 27.2422 21.6875 24.5 21.6875Z" fill="white"/>
</svg>
