<svg width="44" height="37" viewBox="0 0 44 37" fill="none" xmlns="http://www.w3.org/2000/svg">
<path d="M19.1875 15.4141C19.1875 14.9219 19.5391 14.5 20.0312 14.5H23.8984C24.3906 14.5 24.7422 14.9219 24.7422 15.4141L24.25 23.2891C24.25 23.7109 23.8281 24.0625 23.4062 24.0625H20.5234C20.0312 24.0625 19.6797 23.7812 19.6797 23.2891L19.1875 15.4141ZM24.9531 28C24.9531 29.6875 23.6172 30.9531 22 30.9531C20.3125 30.9531 19.0469 29.6875 19.0469 28C19.0469 26.3828 20.3125 25.0469 22 25.0469C23.6172 25.0469 24.9531 26.3828 24.9531 28ZM24.8828 2.6875L41.7578 32.0078C43.0234 34.2578 41.4062 37 38.8047 37H5.125C2.52344 37 0.90625 34.1875 2.17188 32.0078L19.0469 2.6875C20.3125 0.4375 23.6172 0.507812 24.8828 2.6875ZM5.47656 33.0625C5.26562 33.3438 5.47656 33.625 5.82812 33.625H38.1016C38.4531 33.625 38.6641 33.3438 38.4531 33.0625L22.3516 5.07812C22.1406 4.79688 21.7891 4.79688 21.5781 5.07812L5.47656 33.0625Z" fill="#A5A9B5"/>
</svg>
