<svg width="64" height="64" viewBox="0 0 64 64" fill="none" xmlns="http://www.w3.org/2000/svg">
<rect width="64" height="64" rx="32" fill="#D9E5FC"/>
<path d="M31.7537 19.2C33.2198 19.2 34.6259 19.7697 35.6627 20.7837C36.6994 21.7976 37.2819 23.1729 37.2819 24.6069C37.2819 26.0409 36.6994 27.4162 35.6627 28.4302C34.6259 29.4441 33.2198 30.0138 31.7537 30.0138C30.2875 30.0138 28.8814 29.4441 27.8446 28.4302C26.8079 27.4162 26.2254 26.0409 26.2254 24.6069C26.2254 23.1729 26.8079 21.7976 27.8446 20.7837C28.8814 19.7697 30.2875 19.2 31.7537 19.2ZM20.6972 23.0621C21.5818 23.0621 22.4031 23.2938 23.1139 23.7109C22.8769 25.92 23.5403 28.1137 24.8987 29.8284C24.1089 31.3115 22.5294 32.331 20.6972 32.331C19.4405 32.331 18.2353 31.8428 17.3466 30.9736C16.458 30.1045 15.9588 28.9257 15.9588 27.6966C15.9588 26.4674 16.458 25.2886 17.3466 24.4195C18.2353 23.5504 19.4405 23.0621 20.6972 23.0621ZM42.8101 23.0621C44.0668 23.0621 45.272 23.5504 46.1607 24.4195C47.0493 25.2886 47.5485 26.4674 47.5485 27.6966C47.5485 28.9257 47.0493 30.1045 46.1607 30.9736C45.272 31.8428 44.0668 32.331 42.8101 32.331C40.9779 32.331 39.3984 31.3115 38.6086 29.8284C39.967 28.1137 40.6304 25.92 40.3934 23.7109C41.1042 23.2938 41.9255 23.0621 42.8101 23.0621ZM21.487 38.8966C21.487 35.6988 26.0833 33.1035 31.7537 33.1035C37.424 33.1035 42.0203 35.6988 42.0203 38.8966V41.6H21.487V38.8966ZM12.7998 41.6V39.2828C12.7998 37.1355 15.785 35.328 19.8285 34.8028C18.8966 35.8533 18.328 37.3054 18.328 38.8966V41.6H12.7998ZM50.7075 41.6H45.1793V38.8966C45.1793 37.3054 44.6107 35.8533 43.6788 34.8028C47.7223 35.328 50.7075 37.1355 50.7075 39.2828V41.6Z" fill="white"/>
</svg>
