<svg width="61" height="60" viewBox="0 0 61 60" fill="none" xmlns="http://www.w3.org/2000/svg">
<g clip-path="url(#clip0_8069_11189)">
<path d="M49.252 24.375C49.252 29.7539 47.5059 34.7227 44.5645 38.7539L59.4004 53.6016C60.8652 55.0664 60.8652 57.4453 59.4004 58.9102C57.9355 60.375 55.5566 60.375 54.0918 58.9102L39.2559 44.0625C35.2246 47.0156 30.2559 48.75 24.877 48.75C11.4121 48.75 0.501953 37.8398 0.501953 24.375C0.501953 10.9102 11.4121 0 24.877 0C38.3418 0 49.252 10.9102 49.252 24.375ZM24.877 41.25C27.093 41.25 29.2874 40.8135 31.3347 39.9655C33.3821 39.1174 35.2424 37.8744 36.8094 36.3074C38.3764 34.7404 39.6194 32.8802 40.4674 30.8328C41.3155 28.7854 41.752 26.5911 41.752 24.375C41.752 22.1589 41.3155 19.9646 40.4674 17.9172C39.6194 15.8698 38.3764 14.0096 36.8094 12.4426C35.2424 10.8756 33.3821 9.63258 31.3347 8.78453C29.2874 7.93648 27.093 7.5 24.877 7.5C22.6609 7.5 20.4665 7.93648 18.4192 8.78453C16.3718 9.63258 14.5115 10.8756 12.9445 12.4426C11.3775 14.0096 10.1345 15.8698 9.28649 17.9172C8.43844 19.9646 8.00195 22.1589 8.00195 24.375C8.00195 26.5911 8.43844 28.7854 9.28649 30.8328C10.1345 32.8802 11.3775 34.7404 12.9445 36.3074C14.5115 37.8744 16.3718 39.1174 18.4192 39.9655C20.4665 40.8135 22.6609 41.25 24.877 41.25Z" fill="#EBECEF"/>
<path d="M25.5008 1.75C12.6577 1.75 2.25195 12.1578 2.25195 25.0034C2.25195 37.849 12.6577 48.2568 25.5008 48.2568C38.3439 48.2568 48.7497 37.849 48.7497 25.0034C48.7497 12.1578 38.3439 1.75 25.5008 1.75ZM25.5008 45.2564C14.3732 45.2564 5.25181 36.2457 5.25181 25.0034C5.25181 13.8737 14.2607 4.75044 25.5008 4.75044C36.6284 4.75044 45.7498 13.7611 45.7498 25.0034C45.7498 36.1332 36.7409 45.2564 25.5008 45.2564ZM34.3879 18.5056L27.8913 25.0034L34.3879 31.5012C34.8285 31.9419 34.8285 32.6545 34.3879 33.0952L33.591 33.8922C33.1504 34.3329 32.438 34.3329 31.9974 33.8922L25.5008 27.3944L19.0043 33.8922C18.5637 34.3329 17.8512 34.3329 17.4106 33.8922L16.6138 33.0952C16.1731 32.6545 16.1731 31.9419 16.6138 31.5012L23.1103 25.0034L16.6138 18.5056C16.1731 18.0649 16.1731 17.3523 16.6138 16.9116L17.4106 16.1146C17.8512 15.6739 18.5637 15.6739 19.0043 16.1146L25.5008 22.6124L31.9974 16.1146C32.438 15.6739 33.1504 15.6739 33.591 16.1146L34.3879 16.9116C34.8191 17.3523 34.8191 18.0649 34.3879 18.5056Z" fill="#EBECEF"/>
</g>
<defs>
<clipPath id="clip0_8069_11189">
<rect width="59.9971" height="60.0088" fill="white" transform="translate(0.501953)"/>
</clipPath>
</defs>
</svg>
