<svg width="18" height="18" viewBox="0 0 18 18" fill="none" xmlns="http://www.w3.org/2000/svg">
<path d="M10.2321 15.5731C9.39337 16.4056 8.59841 16.4118 7.7659 15.5731L6.82697 14.6341C6.73934 14.5465 6.66423 14.5215 6.55156 14.5215H5.22454C4.04149 14.5215 3.47814 13.9581 3.47814 12.7751V11.4481C3.47814 11.3354 3.44684 11.254 3.36547 11.1726L2.42654 10.2275C1.59403 9.39494 1.58777 8.59998 2.42654 7.76747L3.36547 6.82854C3.44684 6.74716 3.47814 6.66579 3.47814 6.55312V5.2261C3.47814 4.03054 4.04149 3.4797 5.22454 3.4797H6.55156C6.66423 3.4797 6.7456 3.4484 6.82697 3.36703L7.7659 2.43436C8.59841 1.58933 9.39337 1.58933 10.2321 2.4281L11.1711 3.36703C11.2524 3.4484 11.3338 3.4797 11.4465 3.4797H12.7735C13.9566 3.4797 14.5199 4.04306 14.5199 5.2261V6.55312C14.5199 6.66579 14.5512 6.74091 14.6326 6.82854L15.5715 7.76747C16.404 8.59998 16.4103 9.39494 15.5715 10.2275L14.6326 11.1726C14.5512 11.254 14.5199 11.3354 14.5199 11.4481V12.7751C14.5199 13.9581 13.9566 14.5215 12.7735 14.5215H11.4465C11.3338 14.5215 11.2587 14.5465 11.1711 14.6341L10.2321 15.5731Z" fill="url(#paint0_linear_1901_2094)"/>
<path d="M7.42849 11.9802C7.56619 12.1242 7.74146 12.2056 7.96054 12.2056C8.19215 12.2056 8.37993 12.1242 8.5239 11.9364L12.0355 7.01018C12.1294 6.87873 12.1795 6.72224 12.1795 6.59705C12.1795 6.234 11.904 5.96484 11.5159 5.96484C11.2656 5.96484 11.1028 6.05248 10.9526 6.2653L7.93551 10.5718L6.42696 8.88803C6.28925 8.73781 6.13277 8.66895 5.91994 8.66895C5.53185 8.66895 5.2627 8.93811 5.2627 9.31368C5.2627 9.47017 5.31903 9.62666 5.42544 9.73933L7.42849 11.9802Z" fill="white"/>
<defs>
<linearGradient id="paint0_linear_1901_2094" x1="4.0498" y1="3.59981" x2="4.0498" y2="17.5498" gradientUnits="userSpaceOnUse">
<stop stop-color="#FFDB7D"/>
<stop offset="1" stop-color="#D49900"/>
</linearGradient>
</defs>
</svg>
