<svg width="29" height="28" viewBox="0 0 29 28" fill="none" xmlns="http://www.w3.org/2000/svg">
<path d="M14.3979 4.8125C19.7104 4.8125 24.0854 9.1875 24.0854 14.5C24.0854 19.8516 19.7104 24.1875 14.3979 24.1875C9.04639 24.1875 4.71045 19.8516 4.71045 14.5C4.71045 9.1875 9.04639 4.8125 14.3979 4.8125ZM14.3979 22.3125C18.6948 22.3125 22.2104 18.8359 22.2104 14.5C22.2104 10.2031 18.6948 6.6875 14.3979 6.6875C10.062 6.6875 6.58545 10.2031 6.58545 14.5C6.58545 18.8359 10.062 22.3125 14.3979 22.3125ZM16.0386 18.25C16.0386 19.1875 15.2964 19.8906 14.3979 19.8906C13.4604 19.8906 12.7573 19.1875 12.7573 18.25C12.7573 17.3516 13.4604 16.6094 14.3979 16.6094C15.2964 16.6094 16.0386 17.3516 16.0386 18.25ZM12.8354 10.0078C12.8354 9.73438 13.0308 9.5 13.3042 9.5H15.4526C15.7261 9.5 15.9214 9.73438 15.9214 10.0078L15.6479 15.3203C15.6479 15.5547 15.4136 15.75 15.1792 15.75H13.5776C13.3433 15.75 13.1089 15.5547 13.1089 15.3203L12.8354 10.0078Z" fill="white"/>
</svg>
