<svg width="61" height="61" viewBox="0 0 61 61" fill="none" xmlns="http://www.w3.org/2000/svg">
<path d="M18.6875 24C15.8398 24 13.625 21.7852 13.625 18.9375C13.625 16.1953 15.8398 13.875 18.6875 13.875C21.4297 13.875 23.75 16.1953 23.75 18.9375C23.75 21.7852 21.4297 24 18.6875 24ZM18.6875 17.25C17.7383 17.25 17 18.0938 17 18.9375C17 19.8867 17.7383 20.625 18.6875 20.625C19.5312 20.625 20.375 19.8867 20.375 18.9375C20.375 18.0938 19.5312 17.25 18.6875 17.25ZM50.75 7.125C52.543 7.125 54.125 8.70703 54.125 10.5V51C54.125 52.8984 52.543 54.375 50.75 54.375H10.25C8.35156 54.375 6.875 52.8984 6.875 51V10.5C6.875 8.70703 8.35156 7.125 10.25 7.125H50.75ZM50.75 51V42.5625H10.25V51H50.75ZM15.8398 39.1875H24.2773L25.543 37.5L21.3242 31.9102L15.8398 39.1875ZM28.4961 39.1875H44.5273L36.5117 28.5352L28.4961 39.1875ZM50.75 39.1875V10.5H10.25V39.1875H11.6211L19.9531 28.1133C20.5859 27.2695 21.957 27.2695 22.6953 28.1133L27.6523 34.7578L35.1406 24.7383C35.7734 23.8945 37.1445 23.8945 37.8828 24.7383L48.7461 39.1875H50.75Z" fill="#E6E6E6"/>
</svg>
