<svg width="25" height="24" viewBox="0 0 25 24" fill="none" xmlns="http://www.w3.org/2000/svg">
<circle cx="12.8184" cy="12" r="12" fill="url(#paint0_linear_2638_12852)"/>
<path d="M8.9 9.82498C9.23516 9.82498 9.51875 10.1086 9.51875 10.4437V16.6312C9.51875 16.9922 9.23516 17.25 8.9 17.25H6.8375C6.47656 17.25 6.21875 16.9922 6.21875 16.6312V10.4437C6.21875 10.1086 6.47656 9.82498 6.8375 9.82498H8.9ZM7.86875 16.2187C8.20391 16.2187 8.4875 15.9609 8.4875 15.6C8.4875 15.2648 8.20391 14.9812 7.86875 14.9812C7.50781 14.9812 7.25 15.2648 7.25 15.6C7.25 15.9609 7.50781 16.2187 7.86875 16.2187ZM16.1188 6.16404C16.1188 7.24685 15.4484 7.8656 15.2422 8.58748H17.8719C18.7227 8.58748 19.393 9.30935 19.393 10.1086C19.4188 10.5726 19.2125 11.0625 18.9031 11.3719C19.1609 11.9648 19.1094 12.8156 18.6711 13.4086C18.8773 14.0789 18.6711 14.9039 18.2328 15.3422C18.3617 15.8062 18.3102 16.1929 18.0781 16.5023C17.5625 17.25 16.2477 17.25 15.1391 17.25H15.0617C13.8242 17.25 12.8188 16.8117 11.9938 16.4508C11.5813 16.2703 11.0398 16.0383 10.6273 16.0383C10.4727 16.0125 10.3438 15.8836 10.3438 15.7289V10.2117C10.3438 10.1344 10.3695 10.057 10.4211 9.97966C11.4523 8.97419 11.8906 7.91716 12.7156 7.06638C13.1023 6.67966 13.2313 6.11248 13.3859 5.54529C13.4891 5.08122 13.7211 4.04997 14.2625 4.04997C14.8813 4.04997 16.1188 4.25622 16.1188 6.16404Z" fill="white"/>
<defs>
<linearGradient id="paint0_linear_2638_12852" x1="9.81836" y1="2.4" x2="20.6184" y2="29.4" gradientUnits="userSpaceOnUse">
<stop stop-color="#67A4FF"/>
<stop offset="1" stop-color="#0041BE"/>
</linearGradient>
</defs>
</svg>
