<svg width="61" height="60" viewBox="0 0 61 60" fill="none" xmlns="http://www.w3.org/2000/svg">
<path d="M49.2515 24.3706C49.2515 29.7495 47.5054 34.7183 44.564 38.7495L59.3999 53.5972C60.8647 55.062 60.8647 57.4409 59.3999 58.9058C57.9351 60.3706 55.5562 60.3706 54.0913 58.9058L39.2554 44.0581C35.2241 47.0112 30.2554 48.7456 24.8765 48.7456C11.4116 48.7456 0.501465 37.8354 0.501465 24.3706C0.501465 10.9058 11.4116 -0.00439453 24.8765 -0.00439453C38.3413 -0.00439453 49.2515 10.9058 49.2515 24.3706ZM24.8765 41.2456C27.0925 41.2456 29.2869 40.8091 31.3342 39.9611C33.3816 39.113 35.2419 37.87 36.8089 36.303C38.3759 34.736 39.6189 32.8758 40.4669 30.8284C41.315 28.781 41.7515 26.5867 41.7515 24.3706C41.7515 22.1545 41.315 19.9602 40.4669 17.9128C39.6189 15.8655 38.3759 14.0052 36.8089 12.4382C35.2419 10.8712 33.3816 9.62819 31.3342 8.78014C29.2869 7.93209 27.0925 7.49561 24.8765 7.49561C22.6604 7.49561 20.4661 7.93209 18.4187 8.78014C16.3713 9.62819 14.511 10.8712 12.944 12.4382C11.377 14.0052 10.134 15.8655 9.286 17.9128C8.43795 19.9602 8.00146 22.1545 8.00146 24.3706C8.00146 26.5867 8.43795 28.781 9.286 30.8284C10.134 32.8758 11.377 34.736 12.944 36.303C14.511 37.87 16.3713 39.113 18.4187 39.9611C20.4661 40.8091 22.6604 41.2456 24.8765 41.2456Z" fill="#EBECEF"/>
</svg>
