<svg width="25" height="22" viewBox="0 0 25 22" fill="none" xmlns="http://www.w3.org/2000/svg">
<path d="M24.5 6.03564V19.5356C24.5 20.8013 23.4688 21.7856 22.25 21.7856H2.75C1.48438 21.7856 0.5 20.8013 0.5 19.5356V6.03564C0.5 4.81689 1.48438 3.78564 2.75 3.78564H6.875L7.4375 2.28564C7.76562 1.39502 8.60938 0.785645 9.54688 0.785645H15.4062C16.3438 0.785645 17.1875 1.39502 17.5156 2.28564L18.125 3.78564H22.25C23.4688 3.78564 24.5 4.81689 24.5 6.03564ZM18.125 12.7856C18.125 9.69189 15.5938 7.16064 12.5 7.16064C9.35938 7.16064 6.875 9.69189 6.875 12.7856C6.875 15.9263 9.35938 18.4106 12.5 18.4106C15.5938 18.4106 18.125 15.9263 18.125 12.7856ZM16.625 12.7856C16.625 15.0825 14.75 16.9106 12.5 16.9106C10.2031 16.9106 8.375 15.0825 8.375 12.7856C8.375 10.5356 10.2031 8.66064 12.5 8.66064C14.75 8.66064 16.625 10.5356 16.625 12.7856Z" fill="white" fill-opacity="0.8"/>
</svg>
