<svg width="343" height="343" viewBox="0 0 343 343" fill="none" xmlns="http://www.w3.org/2000/svg">
<rect width="343" height="343" fill="#EBECEF"/>
<path d="M38.625 11C40.4531 11 42 12.5469 42 14.375V34.625C42 36.5234 40.4531 38 38.625 38H9.375C7.47656 38 6 36.5234 6 34.625V14.375C6 12.5469 7.47656 11 9.375 11H38.625ZM38.2031 34.625C38.4141 34.625 38.625 34.4844 38.625 34.2031V14.7969C38.625 14.5859 38.4141 14.375 38.2031 14.375H9.79688C9.51562 14.375 9.375 14.5859 9.375 14.7969V34.2031C9.375 34.4844 9.51562 34.625 9.79688 34.625H38.2031ZM15 17.1875C16.5469 17.1875 17.8125 18.4531 17.8125 20C17.8125 21.6172 16.5469 22.8125 15 22.8125C13.3828 22.8125 12.1875 21.6172 12.1875 20C12.1875 18.4531 13.3828 17.1875 15 17.1875ZM12.75 31.25V27.875L15.4922 25.1328C15.8438 24.7812 16.3359 24.7812 16.6875 25.1328L19.5 27.875L27.8672 19.5078C28.2188 19.1562 28.7109 19.1562 29.0625 19.5078L35.25 25.625V31.25H12.75Z" fill="#A5A9B5" transform="translate(147.5,147.75)"/>
</svg>
