<svg width="28" height="28" viewBox="0 0 28 28" fill="none" xmlns="http://www.w3.org/2000/svg">
<rect width="28" height="28" rx="14" fill="#A9C4F9"/>
<path d="M19.6 14.6999C19.6 14.328 19.2719 13.9999 18.9 13.9999H15.4C15.0063 13.9999 14.7 14.328 14.7 14.6999V18.1999C14.7 18.5937 15.0063 18.8999 15.4 18.8999H18.9C19.2719 18.8999 19.6 18.5937 19.6 18.1999V14.6999ZM9.8 13.2999C8.24688 13.2999 7 14.5687 7 16.0999C7 17.653 8.24688 18.8999 9.8 18.8999C11.3313 18.8999 12.6 17.653 12.6 16.0999C12.6 14.5687 11.3313 13.2999 9.8 13.2999ZM18.8781 11.8999C19.425 11.8999 19.775 11.3312 19.4906 10.8499L17.4125 7.3499C17.1281 6.89053 16.45 6.89053 16.1656 7.3499L14.0875 10.8499C13.8031 11.3312 14.1531 11.8999 14.7 11.8999H18.8781Z" fill="white"/>
</svg>
