<svg width="24" height="24" viewBox="0 0 24 24" fill="none" xmlns="http://www.w3.org/2000/svg">
<path d="M21.4974 18.2951C21.8703 20.3087 21.3482 22.3223 19.9312 23.7393C19.5832 24.0873 19.0612 24.0625 18.738 23.7393L15.1583 20.1596L12.5729 22.745C12.548 22.7698 12.4983 22.7698 12.4735 22.7947L10.8825 23.5902C10.6587 23.7145 10.3853 23.441 10.5096 23.2173L11.3051 21.6263C11.3299 21.6014 11.3548 21.5766 11.3797 21.5517L13.965 18.9663L10.3853 15.3866C10.0373 15.0386 10.0373 14.5414 10.3853 14.1934C11.8023 12.7764 13.791 12.2295 15.8046 12.6024L17.0227 11.6826L16.3515 11.0114C16.0035 10.6634 16.0035 10.1662 16.3515 9.81816L18.738 7.43167C19.0612 7.1085 19.5832 7.08364 19.9312 7.43167L26.6929 14.1934C27.0161 14.5165 27.0161 15.0635 26.6929 15.3866L24.3065 17.7731C23.9584 18.1211 23.4364 18.0963 23.1132 17.7731L22.4172 17.077L21.4974 18.2951ZM12.2249 14.8397L19.26 21.8749C20.0058 20.7314 20.1053 19.2398 19.6578 17.9471L22.268 14.5414L23.7098 15.9832L24.9031 14.79L19.3346 9.22153L18.1414 10.4148L19.5832 11.8566L16.1775 14.4668C14.86 13.9945 13.3684 14.0939 12.2249 14.8397Z" fill="#A5A9B5"  transform="translate(-4,-3)" />
</svg>
