<svg width="32" height="32" viewBox="0 0 32 32" fill="none" xmlns="http://www.w3.org/2000/svg">
<rect width="32" height="32" rx="16" fill="#EBECEF"/>
<path d="M22.1875 15.125C22.4688 15.125 22.75 15.4062 22.75 15.6875V16.8125C22.75 17.1289 22.4688 17.375 22.1875 17.375H17.125V22.4375C17.125 22.7539 16.8438 23 16.5625 23H15.4375C15.1211 23 14.875 22.7539 14.875 22.4375V17.375H9.8125C9.49609 17.375 9.25 17.1289 9.25 16.8125V15.6875C9.25 15.4062 9.49609 15.125 9.8125 15.125H14.875V10.0625C14.875 9.78125 15.1211 9.5 15.4375 9.5H16.5625C16.8438 9.5 17.125 9.78125 17.125 10.0625V15.125H22.1875Z" fill="#636878"/>
</svg>
