<svg width="24" height="24" viewBox="0 0 24 24" fill="none" xmlns="http://www.w3.org/2000/svg">
<path d="M12 17.7344C11.4375 17.7344 11.0156 17.3125 11.0156 16.75V14.5C11.0156 13.9727 11.4375 13.5156 12 13.5156C12.5273 13.5156 12.9844 13.9727 12.9844 14.5V16.75C12.9844 17.3125 12.5273 17.7344 12 17.7344ZM19.875 11.6875V19.5625C19.875 20.5117 19.1016 21.25 18.1875 21.25H5.8125C4.86328 21.25 4.125 20.5117 4.125 19.5625V11.6875C4.125 10.7734 4.86328 10 5.8125 10H6.9375V8.3125C6.9375 5.53516 9.1875 3.25 12 3.25C14.8125 3.28516 17.0625 5.57031 17.0625 8.38281V10H18.1875C19.1016 10 19.875 10.7734 19.875 11.6875ZM8.625 10H15.375V8.3125C15.375 6.48438 13.8281 4.9375 12 4.9375C10.1367 4.9375 8.625 6.48438 8.625 8.3125V10ZM18.1875 11.6875H5.8125V19.5625H18.1875V11.6875Z" fill="#292B32"/>
</svg>
