<svg width="14" height="17" viewBox="0 0 14 17" fill="none" xmlns="http://www.w3.org/2000/svg">
<path d="M11 16.5H3C1.3125 16.5 0 15.1875 0 13.5V11.25C0 10.8438 0.3125 10.5 0.75 10.5C1.15625 10.5 1.5 10.8438 1.5 11.25V13.5C1.5 14.3438 2.15625 15 3 15H11C11.8125 15 12.5 14.3438 12.5 13.5V11.25C12.5 10.8438 12.8125 10.5 13.25 10.5C13.6562 10.5 14 10.8438 14 11.25V13.5C14 15.1562 12.6562 16.5 11 16.5ZM7.5 11.3125L11.75 7.3125C12.0625 7.03125 12.0625 6.5625 11.7812 6.25C11.5 5.9375 11.0312 5.9375 10.7188 6.21875L7.75 9.03125V1.25C7.75 0.84375 7.40625 0.5 7 0.5C6.5625 0.5 6.25 0.84375 6.25 1.25V9.03125L3.25 6.21875C2.9375 5.9375 2.46875 5.9375 2.1875 6.25C2.0625 6.40625 2 6.59375 2 6.75C2 6.96875 2.0625 7.15625 2.21875 7.3125L6.46875 11.3125C6.75 11.5938 7.21875 11.5938 7.5 11.3125Z" fill="#292B32"/>
</svg>
