<svg width="8" height="9" viewBox="0 0 8 9" fill="none" xmlns="http://www.w3.org/2000/svg">
<path d="M7.30566 1.8125C7.58691 1.9375 7.77441 2.20312 7.77441 2.5C7.77441 5.96875 5.64941 7.89062 4.30566 8.45312C4.11816 8.53125 3.91504 8.53125 3.72754 8.45312C2.05566 7.75 0.274414 5.60938 0.274414 2.5C0.274414 2.20312 0.446289 1.9375 0.727539 1.8125L3.72754 0.5625C3.82129 0.53125 3.91504 0.515625 4.02441 0.515625C4.11816 0.515625 4.21191 0.53125 4.30566 0.5625L7.30566 1.8125ZM6.57129 3.59375C6.66504 3.5 6.66504 3.34375 6.57129 3.25L6.21191 2.89062C6.11816 2.79688 5.96191 2.79688 5.86816 2.89062L3.52441 5.23438L2.41504 4.14062C2.32129 4.04688 2.16504 4.04688 2.07129 4.14062L1.71191 4.5C1.61816 4.59375 1.61816 4.75 1.71191 4.84375L3.33691 6.46875C3.43066 6.57812 3.60254 6.57812 3.69629 6.46875L6.57129 3.59375Z" fill="#1054DE"/>
</svg>
