<svg width="16" height="16" viewBox="0 0 16 16" fill="none" xmlns="http://www.w3.org/2000/svg">
<path d="M15.2656 13.5156C15.5234 13.7031 15.5703 14.0547 15.3594 14.2891C15.2422 14.4297 15.0781 14.5 14.9141 14.5C14.7969 14.5 14.6797 14.4766 14.5625 14.3594L0.710938 3.50781C0.453125 3.32031 0.40625 2.96875 0.617188 2.73438C0.804688 2.47656 1.15625 2.42969 1.39062 2.64062L5.51562 5.875L8.23438 3.46094C8.375 3.32031 8.5625 3.25 8.75 3.25C8.84375 3.25 8.9375 3.27344 9.05469 3.32031C9.3125 3.4375 9.5 3.71875 9.5 4V8.96875L10.7656 9.97656C10.6953 9.76562 10.7656 9.53125 10.9531 9.36719C11.2109 9.15625 11.375 8.85156 11.375 8.5C11.375 8.17188 11.2109 7.86719 10.9531 7.65625C10.6953 7.44531 10.6719 7.09375 10.8594 6.85938C10.9766 6.71875 11.1406 6.64844 11.3047 6.64844C11.4219 6.64844 11.5625 6.69531 11.6562 6.76562C12.1953 7.21094 12.5 7.84375 12.5 8.5C12.5 9.17969 12.1953 9.8125 11.6562 10.2578C11.5625 10.3281 11.4219 10.375 11.3047 10.375C11.2812 10.375 11.2812 10.375 11.2578 10.375L12.3125 11.1719C12.3359 11.1484 12.3359 11.125 12.3594 11.1016C13.1562 10.4688 13.625 9.50781 13.625 8.5C13.625 7.51562 13.1562 6.55469 12.3594 5.94531C12.125 5.73438 12.0781 5.38281 12.2891 5.14844C12.4062 5.00781 12.5469 4.9375 12.7109 4.9375C12.8516 4.9375 12.9688 4.98438 13.0859 5.05469C14.1406 5.89844 14.75 7.16406 14.75 8.5C14.75 9.78906 14.1641 11.0078 13.2031 11.875L15.2656 13.5156ZM8.375 8.07812V4.84375L6.42969 6.57812L8.375 8.07812ZM8.375 12.1797V10.9609L9.5 11.8281V13C9.5 13.3047 9.3125 13.5625 9.05469 13.7031C8.9375 13.75 8.84375 13.75 8.75 13.75C8.5625 13.75 8.375 13.7031 8.23438 13.5391L5.07031 10.75H3.125C2.49219 10.75 2 10.2578 2 9.625V7.375C2 6.95312 2.23438 6.60156 2.5625 6.41406L3.82812 7.39844H3.125V9.625H5.51562L8.375 12.1797Z" fill="#A5A9B5"/>
</svg>
