<svg width="17" height="19" viewBox="0 0 17 19" fill="none" xmlns="http://www.w3.org/2000/svg">
<path d="M4.84375 11.5C4.35156 11.5 4 11.1484 4 10.6562C4 10.1992 4.35156 9.8125 4.84375 9.8125H12.1562C12.6133 9.8125 13 10.1992 13 10.6562C13 11.1484 12.6133 11.5 12.1562 11.5H4.84375ZM4.84375 14.875C4.35156 14.875 4 14.5234 4 14.0312C4 13.5742 4.35156 13.1875 4.84375 13.1875H8.78125C9.23828 13.1875 9.625 13.5742 9.625 14.0312C9.625 14.5234 9.23828 14.875 8.78125 14.875H4.84375ZM4.84375 8.125C4.35156 8.125 4 7.77344 4 7.28125C4 6.82422 4.35156 6.4375 4.84375 6.4375H12.1562C12.6133 6.4375 13 6.82422 13 7.28125C13 7.77344 12.6133 8.125 12.1562 8.125H4.84375ZM14.125 0.25C15.3555 0.25 16.375 1.26953 16.375 2.5V16C16.375 17.2656 15.3555 18.25 14.125 18.25H2.875C1.60938 18.25 0.625 17.2656 0.625 16V2.5C0.625 1.26953 1.60938 0.25 2.875 0.25H14.125ZM14.6875 16V4.75H2.3125V16C2.3125 16.3164 2.55859 16.5625 2.875 16.5625H14.125C14.4062 16.5625 14.6875 16.3164 14.6875 16Z" fill="#292B32"/>
</svg>
