<svg width="24" height="17" viewBox="0 0 24 17" fill="none" xmlns="http://www.w3.org/2000/svg">
<path d="M7.5 8.25C5.32031 8.25 3.5625 6.49219 3.5625 4.3125C3.5625 2.16797 5.32031 0.375 7.5 0.375C9.64453 0.375 11.4375 2.16797 11.4375 4.3125C11.4375 6.49219 9.64453 8.25 7.5 8.25ZM10.1719 9.375C12.4219 9.375 14.25 11.2031 14.25 13.4531V14.4375C14.25 15.3867 13.4766 16.125 12.5625 16.125H2.4375C1.48828 16.125 0.75 15.3867 0.75 14.4375V13.4531C0.75 11.2031 2.54297 9.375 4.79297 9.375H5.07422C5.8125 9.72656 6.62109 9.9375 7.5 9.9375C8.34375 9.9375 9.15234 9.72656 9.89062 9.375H10.1719ZM17.625 8.25C15.7617 8.25 14.25 6.73828 14.25 4.875C14.25 3.01172 15.7617 1.5 17.625 1.5C19.4883 1.5 21 3.01172 21 4.875C21 6.73828 19.4883 8.25 17.625 8.25ZM19.3125 9.375C21.457 9.375 23.25 11.168 23.25 13.3125C23.25 14.2617 22.4766 15 21.5625 15H15.3398C15.3398 14.9297 15.375 14.8594 15.375 14.7891V13.4531C15.375 12.082 14.8125 10.8516 13.9688 9.9375C14.5312 9.58594 15.1992 9.375 15.9375 9.375H16.043C16.5352 9.55078 17.0625 9.65625 17.625 9.65625C18.1523 9.65625 18.6797 9.55078 19.1719 9.375H19.3125Z" fill="#292B32"/>
</svg>
