<svg width="8" height="8" viewBox="0 0 8 8" fill="none" xmlns="http://www.w3.org/2000/svg">
<path fill-rule="evenodd" clip-rule="evenodd" d="M6.54925 2.74286C6.92067 2.74286 7.23496 3.05714 7.23496 3.42857V6.62857C7.23496 7.01429 6.92067 7.31429 6.54925 7.31429H1.52068C1.13496 7.31429 0.834961 7.01429 0.834961 6.62857V3.42857C0.834961 3.05714 1.13496 2.74286 1.52068 2.74286H1.97782V2.05714C1.97782 0.928572 2.8921 0 4.03496 0C5.17782 0.0142857 6.0921 0.942857 6.0921 2.08571V2.74286H6.54925ZM2.66353 2.05714V2.74286H5.40639V2.05714C5.40639 1.31429 4.77782 0.685714 4.03496 0.685714C3.27782 0.685714 2.66353 1.31429 2.66353 2.05714ZM4.03496 5.88572C4.24925 5.88572 4.43496 5.71429 4.43496 5.48572V4.57143C4.43496 4.35715 4.24925 4.17143 4.03496 4.17143C3.80639 4.17143 3.63496 4.35715 3.63496 4.57143V5.48572C3.63496 5.71429 3.80639 5.88572 4.03496 5.88572Z" fill="white"/>
</svg>
