<svg width="23" height="22" viewBox="0 0 23 22" fill="none" xmlns="http://www.w3.org/2000/svg">
<path d="M17.5002 8.96655C18.0314 8.96655 18.5002 9.4353 18.5002 9.96655V10.9666C18.5002 11.5291 18.0314 11.9666 17.5002 11.9666H13.0002V16.4666C13.0002 17.0291 12.5314 17.4666 12.0002 17.4666H11.0002C10.4377 17.4666 10.0002 17.0291 10.0002 16.4666V11.9666H5.50016C4.93766 11.9666 4.50016 11.5291 4.50016 10.9666V9.96655C4.50016 9.4353 4.93766 8.96655 5.50016 8.96655H10.0002V4.46655C10.0002 3.9353 10.4377 3.46655 11.0002 3.46655H12.0002C12.5314 3.46655 13.0002 3.9353 13.0002 4.46655V8.96655H17.5002Z" fill="#292B32"/>
</svg>
