<svg width="18" height="17" viewBox="0 0 18 17" fill="none" xmlns="http://www.w3.org/2000/svg">
<path d="M16.3125 0.375C17.2266 0.375 18 1.14844 18 2.0625V4.875C18 5.19141 17.7188 5.4375 17.4375 5.4375H16.875V15C16.875 15.6328 16.3477 16.125 15.75 16.125H2.25C1.61719 16.125 1.125 15.6328 1.125 15V5.4375H0.5625C0.246094 5.4375 0 5.19141 0 4.875V2.0625C0 1.14844 0.738281 0.375 1.6875 0.375H16.3125ZM15.1875 14.4375V5.4375H2.8125V14.4375H15.1875ZM16.3125 3.75V2.0625H1.6875V3.75H16.3125ZM7.17188 8.8125C6.92578 8.8125 6.75 8.63672 6.75 8.39062V7.54688C6.75 7.33594 6.92578 7.125 7.17188 7.125H10.8281C11.0391 7.125 11.25 7.33594 11.25 7.54688V8.39062C11.25 8.63672 11.0391 8.8125 10.8281 8.8125H7.17188Z" fill="#292B32"/>
</svg>
