<svg width="24" height="24" viewBox="0 0 24 24" fill="none" xmlns="http://www.w3.org/2000/svg">
<path d="M21.5994 11.9999C21.5994 17.3018 17.3013 21.5999 11.9994 21.5999C6.69748 21.5999 2.39941 17.3018 2.39941 11.9999C2.39941 6.69797 6.69748 2.3999 11.9994 2.3999C17.3013 2.3999 21.5994 6.69797 21.5994 11.9999ZM4.31941 11.9999C4.31941 16.2415 7.75787 19.6799 11.9994 19.6799C16.241 19.6799 19.6794 16.2415 19.6794 11.9999C19.6794 7.75836 16.241 4.3199 11.9994 4.3199C7.75787 4.3199 4.31941 7.75836 4.31941 11.9999Z" fill="white"/>
<mask id="mask0_6602_15212" style="mask-type:alpha" maskUnits="userSpaceOnUse" x="12" y="2" width="10" height="20">
<rect x="12" y="2.40063" width="9.6" height="19.2" fill="#C4C4C4"/>
</mask>
<g mask="url(#mask0_6602_15212)">
<path d="M12.0004 3.36063C12.0004 2.83044 12.4313 2.39566 12.9588 2.44859C13.8907 2.5421 14.8057 2.77166 15.6742 3.13139C16.8389 3.61384 17.8972 4.32097 18.7886 5.21241C19.6801 6.10385 20.3872 7.16215 20.8696 8.32688C21.3521 9.4916 21.6004 10.7399 21.6004 12.0006C21.6004 13.2613 21.3521 14.5097 20.8696 15.6744C20.3872 16.8391 19.6801 17.8974 18.7886 18.7889C17.8972 19.6803 16.8389 20.3874 15.6742 20.8699C14.8057 21.2296 13.8907 21.4592 12.9588 21.5527C12.4313 21.6056 12.0004 21.1708 12.0004 20.6406C12.0004 20.1104 12.4318 19.6868 12.9579 19.6207C13.6375 19.5353 14.304 19.3592 14.9394 19.096C15.8712 18.7101 16.7178 18.1444 17.431 17.4312C18.1441 16.7181 18.7098 15.8714 19.0958 14.9396C19.4817 14.0079 19.6804 13.0092 19.6804 12.0006C19.6804 10.9921 19.4817 9.99341 19.0958 9.06163C18.7098 8.12985 18.1441 7.28321 17.431 6.57006C16.7178 5.8569 15.8712 5.2912 14.9394 4.90524C14.304 4.64204 13.6375 4.46595 12.9579 4.38056C12.4318 4.31445 12.0004 3.89083 12.0004 3.36063Z" fill="#1054DE"/>
</g>
</svg>
