<svg width="20" height="20" viewBox="0 0 20 20" fill="none" xmlns="http://www.w3.org/2000/svg">
  <path d="M6.375,10.875H13.625C13.8125,10.875 14,10.7188 14,10.5V9.5C14,9.3125 13.8125,9.125 13.625,9.125H6.375C6.1563,9.125 6,9.3125 6,9.5V10.5C6,10.7188 6.1563,10.875 6.375,10.875ZM17.75,10C17.75,5.7188 14.2812,2.25 10,2.25C5.7188,2.25 2.25,5.7188 2.25,10C2.25,14.2812 5.7188,17.75 10,17.75C14.2812,17.75 17.75,14.2812 17.75,10ZM16.25,10C16.25,13.4688 13.4375,16.25 10,16.25C6.5313,16.25 3.75,13.4688 3.75,10C3.75,6.5625 6.5313,3.75 10,3.75C13.4375,3.75 16.25,6.5625 16.25,10Z" fill="#898E9E"/>
</svg>
