<svg width="24" height="19" viewBox="0 0 24 19" fill="none" xmlns="http://www.w3.org/2000/svg">
<path d="M23.0039 16.8438C23.25 17.0195 23.3203 17.3711 23.1094 17.6172L22.7578 18.0391C22.5469 18.2852 22.1953 18.3555 21.9844 18.1445L0.960938 1.69141C0.714844 1.51562 0.644531 1.16406 0.855469 0.917969L1.20703 0.460938C1.41797 0.25 1.76953 0.179688 2.01562 0.390625L23.0039 16.8438ZM6.48047 13.1875H12.9141L15.0586 14.875H5.25C4.54688 14.875 4.125 14.3477 4.125 13.75C4.08984 13.5039 4.19531 13.2227 4.40625 13.0117C5.03906 12.3086 6.23438 11.2539 6.33984 8.05469L7.92188 9.32031C7.71094 11.2539 7.07812 12.4141 6.48047 13.1875ZM12 3.625C11.1562 3.625 10.418 3.90625 9.78516 4.32812L8.41406 3.27344C9.11719 2.71094 9.96094 2.32422 10.875 2.11328V1.375C10.875 0.777344 11.3672 0.25 12 0.25C12.5977 0.25 13.0898 0.777344 13.0898 1.375V2.11328C15.6914 2.67578 17.5898 4.85547 17.5898 7.5625C17.5898 9.03906 17.8008 10.0586 18.1172 10.832L16.0078 9.21484C15.9727 8.72266 15.9023 8.19531 15.9023 7.59766C15.9023 7.59766 15.9375 7.59766 15.9375 7.5625C15.9375 5.41797 14.1445 3.625 12 3.625ZM12 18.25C10.7344 18.25 9.75 17.2656 9.75 16H14.2148C14.2148 17.2656 13.2305 18.25 12 18.25Z" fill="#292B32"/>
</svg>
