<svg width="21" height="20" viewBox="0 0 21 20" fill="none" xmlns="http://www.w3.org/2000/svg">
<path d="M7.5 11C5 11 3 9 3 6.5C3 4.03125 5 2 7.5 2C9.96875 2 12 4.03125 12 6.5C12 9 9.96875 11 7.5 11ZM7.5 3.5C5.84375 3.5 4.5 4.875 4.5 6.5C4.5 8.15625 5.84375 9.5 7.5 9.5C9.125 9.5 10.5 8.15625 10.5 6.5C10.5 4.875 9.125 3.5 7.5 3.5ZM2 16.5H10.7812C11.125 17.0938 11.5312 17.5938 12.0312 18H2C1.15625 18 0.5 17.3438 0.5 16.5V15.7188C0.5 13.4062 2.375 11.5 4.6875 11.5C5.59375 11.5 6 12 7.5 12C9 12 9.34375 11.5 10.3438 11.5312C10.1562 12 10.0625 12.5312 10 13.0625C9.6875 13.125 8.84375 13.5 7.5 13.5C5.875 13.5 5.15625 13 4.6875 13C3.1875 13 2 14.2188 2 15.7188V16.5ZM16 9C18.4688 9 20.5 11.0312 20.5 13.5C20.5 16 18.4688 18 16 18C13.5 18 11.5 16 11.5 13.5C11.5 11.0312 13.5 9 16 9ZM18 13.7188V13.3125C18 13.1562 17.8438 13 17.6875 13H16.5V11.3125C16.5 11.1562 16.3438 11 16.1875 11H15.7812C15.625 11 15.5 11.1562 15.5 11.3125V13.7188C15.5 13.875 15.625 14 15.7812 14H17.6875C17.8438 14 18 13.875 18 13.7188Z" fill="#292B32"/>
</svg>
