<svg width="16" height="15" viewBox="0 0 16 15" fill="none" xmlns="http://www.w3.org/2000/svg">
<path d="M15.1719 6.55762C15.1719 7.40137 15.0371 8.1748 14.7676 8.87793C14.498 9.58105 14.1172 10.1289 13.625 10.5215C13.1328 10.9141 12.5615 11.1104 11.9111 11.1104C11.4775 11.1104 11.0908 11.0078 10.751 10.8027C10.417 10.5918 10.1797 10.3164 10.0391 9.97656H9.89844C9.61133 10.3281 9.2627 10.6064 8.85254 10.8115C8.44238 11.0107 7.98535 11.1104 7.48145 11.1104C6.44434 11.1104 5.62695 10.7998 5.0293 10.1787C4.43164 9.55176 4.13281 8.69922 4.13281 7.62109C4.13281 6.39648 4.51953 5.40332 5.29297 4.6416C6.07227 3.87988 7.10352 3.49902 8.38672 3.49902C8.86133 3.49902 9.40918 3.5459 10.0303 3.63965C10.6514 3.72754 11.1582 3.8418 11.5508 3.98242L11.3486 8.28027C11.3486 9.10059 11.5713 9.51074 12.0166 9.51074C12.3916 9.51074 12.6904 9.23828 12.9131 8.69336C13.1357 8.14258 13.2471 7.4248 13.2471 6.54004C13.2471 5.59668 13.0508 4.76465 12.6582 4.04395C12.2715 3.31738 11.7207 2.76367 11.0059 2.38281C10.2969 1.99609 9.48242 1.80273 8.5625 1.80273C7.38477 1.80273 6.35645 2.04883 5.47754 2.54102C4.59863 3.0332 3.92773 3.73633 3.46484 4.65039C3.00195 5.56445 2.77051 6.61914 2.77051 7.81445C2.77051 9.4375 3.20117 10.6826 4.0625 11.5498C4.92969 12.4111 6.18359 12.8418 7.82422 12.8418C8.48047 12.8418 9.18359 12.7686 9.93359 12.6221C10.6836 12.4756 11.3955 12.2764 12.0693 12.0244V13.7207C10.8271 14.248 9.43555 14.5117 7.89453 14.5117C5.66797 14.5117 3.93066 13.9258 2.68262 12.7539C1.44043 11.582 0.819336 9.95312 0.819336 7.86719C0.819336 6.41992 1.13867 5.10449 1.77734 3.9209C2.42188 2.7373 3.33301 1.81445 4.51074 1.15234C5.68848 0.484375 7.0332 0.150391 8.54492 0.150391C9.83398 0.150391 10.9854 0.414062 11.999 0.941406C13.0127 1.46875 13.7949 2.21875 14.3457 3.19141C14.8965 4.16406 15.1719 5.28613 15.1719 6.55762ZM6.17188 7.65625C6.17188 8.89258 6.67578 9.51074 7.68359 9.51074C8.20508 9.51074 8.60352 9.32617 8.87891 8.95703C9.16016 8.58203 9.33008 7.97266 9.38867 7.12891L9.50293 5.18652C9.2334 5.12793 8.89648 5.09863 8.49219 5.09863C7.75977 5.09863 7.18848 5.32715 6.77832 5.78418C6.37402 6.24121 6.17188 6.86523 6.17188 7.65625Z" fill="white"/>
</svg>
