<svg width="22" height="22" viewBox="0 0 22 22" fill="none" xmlns="http://www.w3.org/2000/svg">
<path d="M18.7809 16.3104C19.0622 16.6229 19.0622 17.0917 18.7497 17.3729L17.8747 18.2479C17.5934 18.5604 17.1247 18.5604 16.8122 18.2479L13.7184 15.1542C13.5622 14.9979 13.4997 14.8104 13.4997 14.6229V14.0917C12.3747 14.9667 10.9997 15.4667 9.49967 15.4667C5.90592 15.4667 2.99967 12.5604 2.99967 8.96667C2.99967 5.40417 5.90592 2.46667 9.49967 2.46667C13.0622 2.46667 15.9997 5.40417 15.9997 8.96667C15.9997 10.4979 15.4684 11.8729 14.6247 12.9667H15.1247C15.3122 12.9667 15.4997 13.0604 15.6559 13.1854L18.7809 16.3104ZM9.49967 12.9667C11.6872 12.9667 13.4997 11.1854 13.4997 8.96667C13.4997 6.77917 11.6872 4.96667 9.49967 4.96667C7.28092 4.96667 5.49967 6.77917 5.49967 8.96667C5.49967 11.1854 7.28092 12.9667 9.49967 12.9667Z" fill="#292B32"/>
</svg>
