<svg width="18" height="18" viewBox="0 0 18 18" fill="none" xmlns="http://www.w3.org/2000/svg">
<path d="M16.7885 15.5565L0.577635 2.86977C0.387876 2.73423 0.333659 2.46315 0.49631 2.27339L0.767394 1.92098C0.930045 1.75833 1.20113 1.70411 1.39089 1.86676L17.6017 14.5535C17.7644 14.6891 17.8186 14.9601 17.6559 15.1499L17.3849 15.4752C17.2222 15.665 16.9511 15.7192 16.7885 15.5565Z" fill="#D9E5FC"/>
<path d="M3.45141 6.20496V13.0174C3.45141 13.1258 3.50563 13.18 3.61406 13.18H12.3884L14.0556 14.4812H3.45141C2.71948 14.4812 2.14992 13.9119 2.14992 13.18V5.37279C2.14992 5.31386 2.15406 5.25569 2.16178 5.19856L3.45141 6.20496Z" fill="#D9E5FC"/>
<path d="M14.7285 4.07158C15.4333 4.07166 16.0297 4.66801 16.0297 5.37279V13.18C16.0297 13.2265 16.0268 13.2722 16.0221 13.3173L14.7285 12.3046V5.53544C14.7285 5.45416 14.6471 5.37288 14.5659 5.37279H5.87084L4.20819 4.07158H14.7285Z" fill="#D9E5FC"/>
<path d="M5.80985 9.52038C5.94538 9.38491 6.13517 9.38486 6.27069 9.52038L7.35503 10.5776L8.09966 9.83269L10.721 11.8788H4.75262V10.5776L5.80985 9.52038Z" fill="#D9E5FC"/>
<path d="M10.5809 7.3517C10.7165 7.21623 10.9063 7.21618 11.0418 7.3517L13.4273 9.71014V11.2864L9.6231 8.30925L10.5809 7.3517Z" fill="#D9E5FC"/>
<path d="M6.2769 8.41034C6.09427 8.54674 5.86655 8.62577 5.62009 8.6258C4.99659 8.6258 4.53575 8.16496 4.53575 7.54146C4.53575 7.39075 4.565 7.24694 4.61905 7.1162L6.2769 8.41034Z" fill="#D9E5FC"/>
</svg>
