<svg width="61" height="61" viewBox="0 0 61 61" fill="none" xmlns="http://www.w3.org/2000/svg">
<path d="M10.25 15.5625C9.30078 15.5625 8.5625 14.8242 8.5625 13.875C8.5625 13.0312 9.30078 12.1875 10.25 12.1875C11.0938 12.1875 11.9375 13.0312 11.9375 13.875C11.9375 14.8242 11.0938 15.5625 10.25 15.5625ZM10.25 20.625C6.45312 20.625 3.5 17.6719 3.5 13.875C3.5 10.1836 6.45312 7.125 10.25 7.125C13.9414 7.125 17 10.1836 17 13.875C17 17.6719 13.9414 20.625 10.25 20.625ZM13.625 13.875C13.625 12.082 12.043 10.5 10.25 10.5C8.35156 10.5 6.875 12.082 6.875 13.875C6.875 15.7734 8.35156 17.25 10.25 17.25C12.043 17.25 13.625 15.7734 13.625 13.875ZM23.75 13.875C23.75 13.0312 24.4883 12.1875 25.4375 12.1875H55.8125C56.6562 12.1875 57.5 13.0312 57.5 13.875C57.5 14.8242 56.6562 15.5625 55.8125 15.5625H25.4375C24.4883 15.5625 23.75 14.8242 23.75 13.875ZM23.75 30.75C23.75 29.9062 24.4883 29.0625 25.4375 29.0625H55.8125C56.6562 29.0625 57.5 29.9062 57.5 30.75C57.5 31.6992 56.6562 32.4375 55.8125 32.4375H25.4375C24.4883 32.4375 23.75 31.6992 23.75 30.75ZM23.75 47.625C23.75 46.7812 24.4883 45.9375 25.4375 45.9375H55.8125C56.6562 45.9375 57.5 46.7812 57.5 47.625C57.5 48.5742 56.6562 49.3125 55.8125 49.3125H25.4375C24.4883 49.3125 23.75 48.5742 23.75 47.625ZM10.25 24C13.9414 24 17 27.0586 17 30.75C17 34.5469 13.9414 37.5 10.25 37.5C6.45312 37.5 3.5 34.5469 3.5 30.75C3.5 27.0586 6.45312 24 10.25 24ZM6.875 30.75C6.875 32.6484 8.35156 34.125 10.25 34.125C12.043 34.125 13.625 32.6484 13.625 30.75C13.625 28.957 12.043 27.375 10.25 27.375C8.35156 27.375 6.875 28.957 6.875 30.75ZM10.25 54.375C6.45312 54.375 3.5 51.4219 3.5 47.625C3.5 43.9336 6.45312 40.875 10.25 40.875C13.9414 40.875 17 43.9336 17 47.625C17 51.4219 13.9414 54.375 10.25 54.375ZM13.625 47.625C13.625 45.832 12.043 44.25 10.25 44.25C8.35156 44.25 6.875 45.832 6.875 47.625C6.875 49.5234 8.35156 51 10.25 51C12.043 51 13.625 49.5234 13.625 47.625Z" fill="#EBECEF"/>
</svg>
