<svg width="24" height="24" viewBox="0 0 24 24" fill="none" xmlns="http://www.w3.org/2000/svg">
<g clip-path="url(#clip0_6795_10887)">
<path d="M12 10.5625C12.9141 10.5625 13.6875 11.3359 13.6875 12.25C13.6875 13.1992 12.9141 13.9375 12 13.9375C11.0508 13.9375 10.3125 13.1992 10.3125 12.25C10.3125 11.3359 11.0508 10.5625 12 10.5625ZM10.3125 6.90625C10.3125 5.99219 11.0508 5.21875 12 5.21875C12.9141 5.21875 13.6875 5.99219 13.6875 6.90625C13.6875 7.85547 12.9141 8.59375 12 8.59375C11.0508 8.59375 10.3125 7.85547 10.3125 6.90625ZM10.3125 17.5938C10.3125 16.6797 11.0508 15.9062 12 15.9062C12.9141 15.9062 13.6875 16.6797 13.6875 17.5938C13.6875 18.543 12.9141 19.2812 12 19.2812C11.0508 19.2812 10.3125 18.543 10.3125 17.5938Z" fill="#292B32"/>
</g>
<defs>
<clipPath id="clip0_6795_10887">
<rect width="24" height="24" fill="white"/>
</clipPath>
</defs>
</svg>
