<svg width="64" height="38" viewBox="0 0 64 38" fill="none" xmlns="http://www.w3.org/2000/svg">
<path d="M32 0C34.4754 0 36.8493 0.961753 38.5997 2.67368C40.35 4.38561 41.3333 6.70749 41.3333 9.12853C41.3333 11.5496 40.35 13.8714 38.5997 15.5834C36.8493 17.2953 34.4754 18.2571 32 18.2571C29.5246 18.2571 27.1507 17.2953 25.4003 15.5834C23.65 13.8714 22.6667 11.5496 22.6667 9.12853C22.6667 6.70749 23.65 4.38561 25.4003 2.67368C27.1507 0.961753 29.5246 0 32 0ZM13.3333 6.52038C14.8267 6.52038 16.2133 6.9116 17.4133 7.6158C17.0133 11.3455 18.1333 15.049 20.4267 17.9441C19.0933 20.4479 16.4267 22.1693 13.3333 22.1693C11.2116 22.1693 9.17677 21.3449 7.67648 19.8776C6.17619 18.4102 5.33333 16.42 5.33333 14.3448C5.33333 12.2697 6.17619 10.2795 7.67648 8.8121C9.17677 7.34473 11.2116 6.52038 13.3333 6.52038ZM50.6667 6.52038C52.7884 6.52038 54.8232 7.34473 56.3235 8.8121C57.8238 10.2795 58.6667 12.2697 58.6667 14.3448C58.6667 16.42 57.8238 18.4102 56.3235 19.8776C54.8232 21.3449 52.7884 22.1693 50.6667 22.1693C47.5733 22.1693 44.9067 20.4479 43.5733 17.9441C45.8667 15.049 46.9867 11.3455 46.5867 7.6158C47.7867 6.9116 49.1733 6.52038 50.6667 6.52038ZM14.6667 33.2539C14.6667 27.855 22.4267 23.4734 32 23.4734C41.5733 23.4734 49.3333 27.855 49.3333 33.2539V37.8182H14.6667V33.2539ZM0 37.8182V33.906C0 30.2806 5.04 27.2291 11.8667 26.3423C10.2933 28.1159 9.33333 30.5675 9.33333 33.2539V37.8182H0ZM64 37.8182H54.6667V33.2539C54.6667 30.5675 53.7067 28.1159 52.1333 26.3423C58.96 27.2291 64 30.2806 64 33.906V37.8182Z" fill="white"/>
</svg>
