<svg width="25" height="24" viewBox="0 0 25 24" fill="none" xmlns="http://www.w3.org/2000/svg">
<path d="M8.5625 10.5625C9.16016 10.5625 9.65234 11.0898 9.65234 11.6875C9.65234 12.3203 9.16016 12.8125 8.5625 12.8125C7.92969 12.8125 7.4375 12.3203 7.4375 11.6875C7.4375 11.0898 7.92969 10.5625 8.5625 10.5625ZM12.5 10.5625C13.0977 10.5625 13.5898 11.0898 13.5898 11.6875C13.5898 12.25 13.0625 12.7773 12.5 12.7773C11.9023 12.7773 11.375 12.2852 11.375 11.6875C11.375 11.0547 11.8672 10.5625 12.5 10.5625ZM16.4375 10.5625C17.0352 10.5625 17.5625 11.0898 17.5273 11.6875C17.5273 12.3203 17.0352 12.8125 16.4375 12.8125C15.8398 12.8125 15.3125 12.3203 15.3125 11.6875C15.3125 11.0898 15.8047 10.5625 16.4375 10.5625ZM12.5 4.375C17.457 4.375 21.4648 7.71484 21.4648 11.7227C21.4648 15.7305 17.457 19 12.5 19C11.3398 19 10.2148 18.8242 9.23047 18.5078C8.17578 19.2461 6.48828 20.125 4.34375 20.125C3.99219 20.125 3.67578 19.9492 3.57031 19.5977C3.46484 19.2812 3.5 18.9297 3.74609 18.6836C3.74609 18.6836 4.83594 17.4883 5.36328 16.1172C4.20312 14.8867 3.5 13.3398 3.5 11.6875C3.5 7.64453 7.50781 4.375 12.5 4.375ZM12.5 17.3125C16.5078 17.3125 19.7422 14.8164 19.7422 11.6875C19.7422 8.59375 16.4727 6.0625 12.4648 6.0625C8.45703 6.0625 5.1875 8.59375 5.1875 11.6875C5.1875 13.1992 5.92578 14.3242 6.55859 14.9922L7.29688 15.7656L6.91016 16.75C6.73438 17.2422 6.48828 17.7344 6.20703 18.1562C7.05078 17.875 7.75391 17.4883 8.24609 17.1367L8.91406 16.6445L9.72266 16.8906C10.6016 17.1719 11.5508 17.3125 12.5 17.3125Z" fill="#292B32"/>
</svg>
