<svg width="33" height="33" viewBox="0 0 33 33" fill="none" xmlns="http://www.w3.org/2000/svg">
<circle opacity="0.6" cx="16.5" cy="16.5" r="16" fill="#EBECEF"/>
<path d="M24 24H9C8.60218 24 8.22064 23.842 7.93934 23.5607C7.65804 23.2794 7.5 22.8978 7.5 22.5V12C7.5 11.6022 7.65804 11.2206 7.93934 10.9393C8.22064 10.658 8.60218 10.5 9 10.5H11.9995L13.4995 8.25H19.4995L20.9995 10.5H24C24.3978 10.5 24.7794 10.658 25.0607 10.9393C25.342 11.2206 25.5 11.6022 25.5 12V22.5C25.5 22.8978 25.342 23.2794 25.0607 23.5607C24.7794 23.842 24.3978 24 24 24Z" stroke="#292B32" stroke-width="1.3" stroke-linecap="round" stroke-linejoin="round"/>
<path d="M16.5 20.25C18.364 20.25 19.875 18.739 19.875 16.875C19.875 15.011 18.364 13.5 16.5 13.5C14.636 13.5 13.125 15.011 13.125 16.875C13.125 18.739 14.636 20.25 16.5 20.25Z" stroke="#292B32" stroke-width="1.3" stroke-linecap="round" stroke-linejoin="round"/>
</svg>
