<svg width="24" height="25" viewBox="0 0 24 25" fill="none" xmlns="http://www.w3.org/2000/svg">
<path d="M12 3.90234C16.7812 3.90234 20.7188 7.83984 20.7188 12.6211C20.7188 17.4375 16.7812 21.3398 12 21.3398C7.18359 21.3398 3.28125 17.4375 3.28125 12.6211C3.28125 7.83984 7.18359 3.90234 12 3.90234ZM16.957 7.66406C14.3906 5.09766 10.3828 4.95703 7.64062 7.10156L17.5195 16.9805C19.6641 14.2383 19.5234 10.2305 16.957 7.66406ZM7.00781 17.6133C9.57422 20.1797 13.582 20.3203 16.3242 18.1758L6.44531 8.29688C4.30078 11.0391 4.44141 15.0469 7.00781 17.6133Z" fill="#292B32"/>
</svg>
