<svg width="24" height="24" viewBox="0 0 24 24" fill="none" xmlns="http://www.w3.org/2000/svg">
<path d="M13.6523 12.25L17.4492 16.0469C17.6602 16.2578 17.6602 16.6445 17.4492 16.8555L16.5703 17.7344C16.3594 17.9453 15.9727 17.9453 15.7617 17.7344L12 13.9375L8.20312 17.7344C7.99219 17.9453 7.60547 17.9453 7.39453 17.7344L6.51562 16.8555C6.30469 16.6445 6.30469 16.2578 6.51562 16.0469L10.3125 12.25L6.51562 8.48828C6.30469 8.27734 6.30469 7.89062 6.51562 7.67969L7.39453 6.80078C7.60547 6.58984 7.99219 6.58984 8.20312 6.80078L12 10.5977L15.7617 6.80078C15.9727 6.58984 16.3594 6.58984 16.5703 6.80078L17.4492 7.67969C17.6602 7.89062 17.6602 8.27734 17.4492 8.48828L13.6523 12.25Z" fill="#292B32"/>
</svg>
