<svg width="18" height="16" viewBox="0 0 18 16" fill="none" xmlns="http://www.w3.org/2000/svg">
<path d="M16.4062 1.78125C17.1875 2.5625 17.1875 3.8125 16.4062 4.59375L14.0625 6.9375L13 8L5.375 15.625L1.8125 16C1.78125 16 1.75 16 1.71875 16C1.28125 16 0.9375 15.625 1 15.1875L1.375 11.625L9 4L10.0625 2.9375L12.4062 0.59375C12.7812 0.21875 13.3125 0 13.8125 0C14.3125 0 14.8438 0.21875 15.2188 0.59375L16.4062 1.78125ZM4.6875 14.1875L11.9375 6.96875L12.9062 6L11 4.09375L10.0312 5.0625L2.8125 12.3125L2.59375 14.4062L4.6875 14.1875ZM15.3438 3.53125C15.5312 3.34375 15.5312 3.03125 15.3438 2.84375L14.1562 1.65625C14.0312 1.53125 13.875 1.5 13.8125 1.5C13.75 1.5 13.5938 1.53125 13.4688 1.65625L12.0625 3.03125L13.9688 4.9375L15.3438 3.53125Z" fill="#292B32"/>
</svg>
