<svg width="33" height="33" viewBox="0 0 33 33" fill="none" xmlns="http://www.w3.org/2000/svg">
<circle opacity="0.6" cx="16.5" cy="16.5" r="16" fill="#EBECEF"/>
<path d="M24.75 9H8.25C7.83579 9 7.5 9.33579 7.5 9.75V23.25C7.5 23.6642 7.83579 24 8.25 24H24.75C25.1642 24 25.5 23.6642 25.5 23.25V9.75C25.5 9.33579 25.1642 9 24.75 9Z" stroke="#292B32" stroke-width="1.3" stroke-linecap="round" stroke-linejoin="round"/>
<path d="M7.5 20.2499L12.2197 15.5302C12.2893 15.4606 12.372 15.4053 12.463 15.3676C12.554 15.3299 12.6515 15.3105 12.75 15.3105C12.8485 15.3105 12.946 15.3299 13.037 15.3676C13.128 15.4053 13.2107 15.4606 13.2803 15.5302L17.4697 19.7196C17.5393 19.7892 17.622 19.8444 17.713 19.8821C17.804 19.9198 17.9015 19.9392 18 19.9392C18.0985 19.9392 18.196 19.9198 18.287 19.8821C18.378 19.8444 18.4607 19.7892 18.5303 19.7196L20.4697 17.7802C20.5393 17.7106 20.622 17.6553 20.713 17.6176C20.804 17.5799 20.9015 17.5605 21 17.5605C21.0985 17.5605 21.196 17.5799 21.287 17.6176C21.378 17.6553 21.4607 17.7106 21.5303 17.7802L25.5 21.7499" stroke="#292B32" stroke-width="1.3" stroke-linecap="round" stroke-linejoin="round"/>
<path d="M19.125 15C19.7463 15 20.25 14.4963 20.25 13.875C20.25 13.2537 19.7463 12.75 19.125 12.75C18.5037 12.75 18 13.2537 18 13.875C18 14.4963 18.5037 15 19.125 15Z" fill="#292B32"/>
</svg>
