<svg width="24" height="25" viewBox="0 0 24 25" fill="none" xmlns="http://www.w3.org/2000/svg">
<path d="M19.3125 6.43359C19.5938 6.43359 19.875 6.71484 19.875 6.99609V7.55859C19.875 7.875 19.5938 8.12109 19.3125 8.12109H18.75L17.9766 20.0391C17.9414 20.9531 17.2031 21.6211 16.2891 21.6211H7.67578C6.76172 21.6211 6.02344 20.9531 5.98828 20.0391L5.25 8.12109H4.6875C4.37109 8.12109 4.125 7.875 4.125 7.55859V6.99609C4.125 6.71484 4.37109 6.43359 4.6875 6.43359H7.57031L8.76562 4.46484C9.04688 3.97266 9.60938 3.62109 10.207 3.62109H13.7578C14.3555 3.62109 14.918 3.97266 15.1992 4.46484L16.3945 6.43359H19.3125ZM10.207 5.30859L9.53906 6.43359H14.4258L13.7578 5.30859H10.207ZM16.2891 19.9336L17.0273 8.12109H6.9375L7.67578 19.9336H16.2891Z" fill="#FA4D30"/>
</svg>
