<svg width="25" height="24" viewBox="0 0 25 24" fill="none" xmlns="http://www.w3.org/2000/svg">
<path fill-rule="evenodd" clip-rule="evenodd" d="M3.225 15.8693C3.51048 16.543 3.86529 17.1702 4.28943 17.7509C4.52522 18.0737 4.99097 18.0895 5.27295 17.8061L5.72247 17.3543C5.96663 17.1089 5.98651 16.7218 5.79592 16.4329C5.52174 16.0171 5.28977 15.5739 5.1 15.103C4.90556 14.6206 4.75542 14.1181 4.64959 13.5956C4.58148 13.2593 4.29412 13.005 3.95104 13.005H3.25733C2.85178 13.005 2.53269 13.3557 2.60258 13.7552C2.73079 14.488 2.93826 15.1928 3.225 15.8693ZM3.25 8.13065C2.97847 8.80049 2.77092 9.49788 2.62735 10.2228C2.54682 10.6295 2.86816 10.995 3.28269 10.995H3.95104C4.29412 10.995 4.58148 10.7407 4.64959 10.4044C4.75542 9.88192 4.90556 9.37943 5.1 8.89699C5.28977 8.42614 5.52174 7.98285 5.79592 7.56714C5.98651 7.27817 5.96663 6.89109 5.72247 6.6457L5.27295 6.19392C4.99097 5.91052 4.52508 5.92622 4.29048 6.24992C3.86977 6.83043 3.52294 7.45733 3.25 8.13065ZM8.6125 21.2714C9.27792 21.5589 9.9735 21.7671 10.6993 21.896C11.0988 21.967 11.45 21.6477 11.45 21.2419V20.5881C11.45 20.2454 11.1961 19.9586 10.8608 19.8873C10.3455 19.7777 9.85435 19.6192 9.3875 19.4121C8.92514 19.2069 8.47791 18.9626 8.04584 18.6791C7.75662 18.4893 7.37013 18.5189 7.13049 18.7683L6.6689 19.2488C6.39002 19.5391 6.41904 20.0079 6.74969 20.2374C7.33185 20.6417 7.95279 20.9863 8.6125 21.2714ZM6.76063 3.75497C6.42576 3.98688 6.40038 4.46269 6.68769 4.75144L7.16819 5.23436C7.41418 5.48159 7.80486 5.502 8.09378 5.30667C8.50409 5.02926 8.9395 4.78968 9.4 4.58794C9.87606 4.37939 10.3789 4.22025 10.9086 4.11053C11.245 4.04085 11.5 3.75361 11.5 3.4101V2.75564C11.5 2.3507 11.1503 2.03172 10.7511 2.09987C9.99795 2.22845 9.28508 2.43805 8.6125 2.72864C7.95692 3.0119 7.33963 3.35401 6.76063 3.75497ZM14.0869 19.8878C13.7524 19.9574 13.5 20.244 13.5 20.5856V21.234C13.5 21.6427 13.8559 21.9625 14.2581 21.8903C16.4912 21.4892 18.3802 20.437 19.925 18.7337C21.6417 16.8409 22.5 14.5963 22.5 12C22.5 9.40369 21.6417 7.15913 19.925 5.26633C18.3802 3.56303 16.4912 2.51082 14.2581 2.1097C13.8559 2.03745 13.5 2.35735 13.5 2.766V3.41436C13.5 3.75603 13.7524 4.0426 14.0869 4.1122C15.843 4.47761 17.3182 5.3397 18.5125 6.69849C19.8375 8.20603 20.5 9.9732 20.5 12C20.5 14.0268 19.8375 15.794 18.5125 17.3015C17.3182 18.6603 15.843 19.5224 14.0869 19.8878Z" fill="#292B32"/>
<path d="M17.5625 11.375C17.7812 11.375 18 11.5938 18 11.8125V12.6875C18 12.9336 17.7812 13.125 17.5625 13.125H13.625V17.0625C13.625 17.3086 13.4062 17.5 13.1875 17.5H12.3125C12.0664 17.5 11.875 17.3086 11.875 17.0625V13.125H7.9375C7.69141 13.125 7.5 12.9336 7.5 12.6875V11.8125C7.5 11.5938 7.69141 11.375 7.9375 11.375H11.875V7.4375C11.875 7.21875 12.0664 7 12.3125 7H13.1875C13.4062 7 13.625 7.21875 13.625 7.4375V11.375H17.5625Z" fill="#292B32"/>
</svg>
