<svg width="61" height="41" viewBox="0 0 61 41" fill="none" xmlns="http://www.w3.org/2000/svg">
<path d="M59.9258 18.1406C60.5586 18.9844 60.875 20.0391 60.875 21.0938V35.4375C60.875 38.2852 58.5547 40.5 55.8125 40.5H5.1875C2.33984 40.5 0.125 38.2852 0.125 35.4375V21.0938C0.125 20.1445 0.441406 18.8789 0.96875 18.1406L12.043 2.21484C12.8867 1.05469 14.7852 0 16.2617 0H44.6328C46.1094 0 48.0078 1.05469 48.8516 2.21484L59.9258 18.1406ZM16.2617 5.0625L8.03516 16.875H20.9023L24.2773 23.625H36.6172L39.9922 16.875H52.8594L44.6328 5.0625H16.2617ZM55.8125 35.4375V21.9375H43.1562L39.7812 28.6875H21.2188L17.8438 21.9375H5.1875V35.4375H55.8125Z" fill="#EBECEF"/>
</svg>
