<svg width="19" height="21" viewBox="0 0 19 21" fill="none" xmlns="http://www.w3.org/2000/svg">
<path d="M15.4365 8.89844L10.4365 13.8984C9.96777 14.4062 9.14746 14.4062 8.67871 13.8984L3.67871 8.89844C3.1709 8.42969 3.1709 7.60938 3.67871 7.14062C4.14746 6.63281 4.96777 6.63281 5.43652 7.14062L8.32715 9.99219V1.75C8.32715 1.08594 8.87402 0.5 9.57715 0.5C10.2412 0.5 10.8271 1.08594 10.8271 1.75V9.99219L13.6787 7.14062C14.1475 6.63281 14.9678 6.63281 15.4365 7.14062C15.9443 7.60938 15.9443 8.42969 15.4365 8.89844ZM3.32715 14.25V16.75C3.32715 17.4531 3.87402 18 4.57715 18H14.5771C15.2412 18 15.8271 17.4531 15.8271 16.75V14.25C15.8271 13.5859 16.374 13 17.0771 13C17.7412 13 18.3271 13.5859 18.3271 14.25V16.75C18.3271 18.8203 16.6475 20.5 14.5771 20.5H4.57715C2.50684 20.5 0.827148 18.8203 0.827148 16.75V14.25C0.827148 13.5859 1.37402 13 2.07715 13C2.74121 13 3.32715 13.5859 3.32715 14.25Z" fill="white"/>
</svg>
