<svg width="24" height="24" viewBox="0 0 24 24" fill="none" xmlns="http://www.w3.org/2000/svg">
<path d="M10.3828 13.9375C13.7578 13.9375 16.5 16.6797 16.5 20.0547C16.5 20.7227 15.9375 21.25 15.2695 21.25H1.94531C1.27734 21.25 0.75 20.7227 0.75 20.0547C0.75 16.6797 3.45703 13.9375 6.83203 13.9375H10.3828ZM2.4375 19.5625H14.7773C14.4961 17.3828 12.668 15.625 10.3828 15.625H6.83203C4.54688 15.625 2.68359 17.3828 2.4375 19.5625ZM8.625 12.25C6.12891 12.25 4.125 10.2461 4.125 7.75C4.125 5.28906 6.12891 3.25 8.625 3.25C11.0859 3.25 13.125 5.28906 13.125 7.75C13.125 10.2461 11.0859 12.25 8.625 12.25ZM8.625 4.9375C7.04297 4.9375 5.8125 6.20312 5.8125 7.75C5.8125 9.33203 7.04297 10.5625 8.625 10.5625C10.1719 10.5625 11.4375 9.33203 11.4375 7.75C11.4375 6.20312 10.1719 4.9375 8.625 4.9375ZM21.0352 11.125L22.6875 12.7773C23.0391 13.1289 23.0391 13.6562 22.6875 13.9727C22.3711 14.3242 21.8438 14.3242 21.5273 13.9727L19.875 12.3203L18.1875 14.0078C17.8711 14.3242 17.3438 14.3242 17.0273 14.0078C16.6758 13.6562 16.6758 13.1289 17.0273 12.8125L18.6797 11.1602L17.0273 9.50781C16.6758 9.15625 16.6758 8.62891 17.0273 8.3125C17.3438 7.96094 17.8711 7.96094 18.1875 8.3125L19.875 9.96484L21.4922 8.27734C21.8438 7.92578 22.3711 7.92578 22.6875 8.27734C23.0391 8.59375 23.0391 9.12109 22.6875 9.47266L21.0352 11.125Z" fill="#292B32"/>
</svg>
