<svg width="20" height="20" viewBox="0 0 20 20" fill="none" xmlns="http://www.w3.org/2000/svg">
<path d="M16.5 4.5C16.75 4.5 17 4.75 17 5V5.5C17 5.78125 16.75 6 16.5 6H16L15.3125 16.5938C15.2812 17.4062 14.625 18 13.8125 18H6.15625C5.34375 18 4.6875 17.4062 4.65625 16.5938L4 6H3.5C3.21875 6 3 5.78125 3 5.5V5C3 4.75 3.21875 4.5 3.5 4.5H6.0625L7.125 2.75C7.375 2.3125 7.875 2 8.40625 2H11.5625C12.0938 2 12.5938 2.3125 12.8438 2.75L13.9062 4.5H16.5ZM8.40625 3.5L7.8125 4.5H12.1562L11.5625 3.5H8.40625ZM13.8125 16.5L14.4688 6H5.5L6.15625 16.5H13.8125Z" fill="#292B32"/>
</svg>
