<svg width="24" height="24" viewBox="0 0 24 24" fill="none" xmlns="http://www.w3.org/2000/svg">
<path d="M18.1875 11.125C18.4688 11.125 18.75 11.4062 18.75 11.6875V12.8125C18.75 13.1289 18.4688 13.375 18.1875 13.375H13.125V18.4375C13.125 18.7539 12.8438 19 12.5625 19H11.4375C11.1211 19 10.875 18.7539 10.875 18.4375V13.375H5.8125C5.49609 13.375 5.25 13.1289 5.25 12.8125V11.6875C5.25 11.4062 5.49609 11.125 5.8125 11.125H10.875V6.0625C10.875 5.78125 11.1211 5.5 11.4375 5.5H12.5625C12.8438 5.5 13.125 5.78125 13.125 6.0625V11.125H18.1875Z" fill="#292B32"/>
</svg>
