<svg width="161" height="141" viewBox="0 0 161 141" fill="none" xmlns="http://www.w3.org/2000/svg">
<path d="M70.4993 140.5C109.159 140.5 140.499 109.16 140.499 70.5C140.499 31.8401 109.159 0.5 70.4993 0.5C31.8393 0.5 0.499268 31.8401 0.499268 70.5C0.499268 109.16 31.8393 140.5 70.4993 140.5Z" fill="#EBECEF"/>
<path d="M20.5026 80.0847H21.1303H155.501C156.66 80.0847 157.773 80.5453 158.593 81.3653C159.412 82.1853 159.873 83.2974 159.873 84.457V109.457C159.873 110.616 159.412 111.728 158.593 112.548C157.773 113.368 156.66 113.829 155.501 113.829H20.5026C19.343 113.829 18.2309 113.368 17.4109 112.548C16.591 111.728 16.1303 110.616 16.1303 109.457V84.457C16.1303 83.2974 16.591 82.1853 17.4109 81.3653C18.2309 80.5453 19.343 80.0847 20.5026 80.0847Z" fill="white" stroke="#EBECEF" stroke-width="1.25529"/>
<path opacity="0.3" d="M79.5211 87.457H53.5214C51.8646 87.457 50.5215 88.8002 50.5215 90.457C50.5215 92.1138 51.8646 93.457 53.5214 93.457H79.5211C81.1779 93.457 82.5211 92.1138 82.5211 90.457C82.5211 88.8002 81.1779 87.457 79.5211 87.457Z" fill="#A5A9B5"/>
<path opacity="0.15" d="M97.5211 100.457H53.5217C51.8649 100.457 50.5217 101.8 50.5217 103.457C50.5217 105.114 51.8649 106.457 53.5217 106.457H97.5211C99.1779 106.457 100.521 105.114 100.521 103.457C100.521 101.8 99.1779 100.457 97.5211 100.457Z" fill="#A5A9B5"/>
<path d="M33.0403 104.957C37.4586 104.957 41.0403 101.375 41.0403 96.957C41.0403 92.5388 37.4586 88.957 33.0403 88.957C28.622 88.957 25.0403 92.5388 25.0403 96.957C25.0403 101.375 28.622 104.957 33.0403 104.957Z" fill="#A5A9B5"/>
<path d="M5.4992 35.1272H140.497C142.912 35.1272 144.87 37.0847 144.87 39.4994V64.4991C144.87 66.9139 142.912 68.8714 140.497 68.8714H5.4992C3.08445 68.8714 1.12691 66.9139 1.12691 64.4991V39.4994C1.12691 37.0847 3.08445 35.1272 5.4992 35.1272Z" fill="white" stroke="#EBECEF" stroke-width="1.25529"/>
<path opacity="0.3" d="M64.0086 42.4995H38.009C36.3522 42.4995 35.009 43.8426 35.009 45.4995C35.009 47.1563 36.3522 48.4994 38.009 48.4994H64.0086C65.6655 48.4994 67.0086 47.1563 67.0086 45.4995C67.0086 43.8426 65.6655 42.4995 64.0086 42.4995Z" fill="#A5A9B5"/>
<path opacity="0.15" d="M82.0084 55.4995H38.009C36.3522 55.4995 35.009 56.8426 35.009 58.4995C35.009 60.1563 36.3522 61.4994 38.009 61.4994H82.0084C83.6652 61.4994 85.0084 60.1563 85.0084 58.4995C85.0084 56.8426 83.6652 55.4995 82.0084 55.4995Z" fill="#A5A9B5"/>
<path d="M18.1028 59.999C22.5211 59.999 26.1028 56.4173 26.1028 51.999C26.1028 47.5807 22.5211 43.999 18.1028 43.999C13.6845 43.999 10.1028 47.5807 10.1028 51.999C10.1028 56.4173 13.6845 59.999 18.1028 59.999Z" fill="#A5A9B5"/>
</svg>
