<svg width="32" height="33" viewBox="0 0 32 33" fill="none" xmlns="http://www.w3.org/2000/svg">
<rect y="0.5" width="32" height="32" rx="16" fill="#EBECEF"/>
<path d="M17.6523 16.75L21.4492 20.5469C21.6602 20.7578 21.6602 21.1445 21.4492 21.3555L20.5703 22.2344C20.3594 22.4453 19.9727 22.4453 19.7617 22.2344L16 18.4375L12.2031 22.2344C11.9922 22.4453 11.6055 22.4453 11.3945 22.2344L10.5156 21.3555C10.3047 21.1445 10.3047 20.7578 10.5156 20.5469L14.3125 16.75L10.5156 12.9883C10.3047 12.7773 10.3047 12.3906 10.5156 12.1797L11.3945 11.3008C11.6055 11.0898 11.9922 11.0898 12.2031 11.3008L16 15.0977L19.7617 11.3008C19.9727 11.0898 20.3594 11.0898 20.5703 11.3008L21.4492 12.1797C21.6602 12.3906 21.6602 12.7773 21.4492 12.9883L17.6523 16.75Z" fill="#636878"/>
</svg>
