<svg width="21" height="21" viewBox="0 0 21 21" fill="none" xmlns="http://www.w3.org/2000/svg">
<g clip-path="url(#clip0_6074_57187)">
<path d="M20.1035 10.5C20.1035 15.7467 15.8502 20 10.6035 20C5.35681 20 1.10352 15.7467 1.10352 10.5C1.10352 5.25329 5.35681 1 10.6035 1C15.8502 1 20.1035 5.25329 20.1035 10.5Z" stroke="#A5A9B5"/>
<path d="M10.7723 6.71429C12.1786 6.71429 13.702 7.83595 13.702 9.29242C13.702 11.2344 11.6094 11.2679 11.6094 11.9877V12.0714C11.6094 12.3058 11.4252 12.4732 11.2076 12.4732H9.98549C9.76786 12.4732 9.58371 12.3058 9.58371 12.0714V11.9208C9.58371 10.8828 10.3705 10.4643 10.9732 10.1295C11.4754 9.84487 11.7935 9.66072 11.7935 9.27568C11.7935 8.77345 11.1574 8.45537 10.6384 8.45537C9.98549 8.45537 9.66741 8.75671 9.24888 9.27568C9.11496 9.44309 8.86384 9.47657 8.69643 9.34264L7.97656 8.79019C7.79241 8.673 7.75893 8.42188 7.87612 8.25447C8.5625 7.26675 9.43304 6.71429 10.7723 6.71429ZM10.6049 12.9755C11.2411 12.9755 11.76 13.4944 11.76 14.1306C11.76 14.7667 11.2411 15.2857 10.6049 15.2857C9.95201 15.2857 9.43304 14.7667 9.43304 14.1306C9.43304 13.4944 9.95201 12.9755 10.6049 12.9755Z" fill="#A5A9B5"/>
</g>
<defs>
<clipPath id="clip0_6074_57187">
<rect width="20" height="20" fill="white" transform="translate(0.603516 0.5)"/>
</clipPath>
</defs>
</svg>
