<svg width="69" height="61" viewBox="0 0 69 61" fill="none" xmlns="http://www.w3.org/2000/svg">
<path d="M67.1953 53.3203C68.3555 54.1641 68.5664 55.7461 67.6172 56.8008C66.7734 57.9609 65.1914 58.1719 64.1367 57.2227L1.69922 8.28516C0.539062 7.44141 0.328125 5.85938 1.27734 4.80469C1.69922 4.17188 2.4375 3.75 3.28125 3.75C3.80859 3.75 4.33594 3.96094 4.75781 4.38281L21 17.0391C21.1055 9.65625 27.1172 3.75 34.3945 3.75C41.8828 3.75 47.8945 9.86719 48 17.25C48 23.5781 43.7812 28.7461 37.9805 30.3281L67.1953 53.3203ZM31.3359 25.1602C32.2852 25.4766 33.3398 25.6875 34.5 25.6875C39.1406 25.6875 42.9375 21.9961 42.9375 17.25C42.9375 12.6094 39.1406 8.8125 34.5 8.8125C29.7539 8.8125 26.0625 12.6094 26.0625 17.25C26.0625 19.1484 26.5898 20.8359 27.6445 22.207L31.3359 25.1602ZM15.9375 52.6875H50.1094L56.1211 57.4336C55.6992 57.6445 55.1719 57.75 54.75 57.75H14.25C12.3516 57.75 10.875 56.2734 10.875 54.375C10.875 44.4609 18.6797 36.2344 28.5938 35.918L35.0273 40.875H29.4375C22.4766 40.875 16.7812 46.043 15.9375 52.6875Z" fill="#EBECEF"/>
</svg>
