<svg width="33" height="32" viewBox="0 0 33 32" fill="none" xmlns="http://www.w3.org/2000/svg">
<mask id="mask0" mask-type="alpha" maskUnits="userSpaceOnUse" x="0" y="0" width="33" height="32">
    <path d="M16.5 32C25.3366 32 32.5 24.8366 32.5 16C32.5 7.16344 25.3366 0 16.5 0C7.66344 0 0.5 7.16344 0.5 16C0.5 24.8366 7.66344 32 16.5 32Z" fill="white"/>
    <path d="M8.83594 16.4609C8.66016 16.3203 8.66016 16.0391 8.83594 15.8633L16.1836 8.51562C16.3594 8.33984 16.6055 8.33984 16.7812 8.51562L24.1289 15.8633C24.3047 16.0391 24.3047 16.3203 24.1289 16.4609L23.4609 17.1641C23.2852 17.3398 23.0039 17.3398 22.8633 17.1641L17.4141 11.7148V23.7031C17.4141 23.9492 17.2031 24.125 16.9922 24.125H16.0078C15.7617 24.125 15.5859 23.9492 15.5859 23.7031V11.7148L10.1016 17.1641C9.96094 17.3398 9.67969 17.3398 9.50391 17.1641L8.83594 16.4609Z" fill="black"/>
</mask>
<path d="M16.5 32C25.3366 32 32.5 24.8366 32.5 16C32.5 7.16344 25.3366 0 16.5 0C7.66344 0 0.5 7.16344 0.5 16C0.5 24.8366 7.66344 32 16.5 32Z" fill="currentColor" mask="url(#mask0)"/>
</svg>