<svg width="18" height="18" viewBox="0 0 18 18" fill="none" xmlns="http://www.w3.org/2000/svg">
<path d="M13.875 3.25C14.0625 3.25 14.25 3.4375 14.25 3.625V4.375C14.25 4.58594 14.0625 4.75 13.875 4.75H4.125C3.91406 4.75 3.75 4.58594 3.75 4.375V3.625C3.75 3.4375 3.91406 3.25 4.125 3.25H6.9375L7.14844 2.82812C7.21875 2.64062 7.45312 2.5 7.64062 2.5H10.3359C10.5234 2.5 10.7344 2.64062 10.8281 2.82812L11.0625 3.25H13.875ZM4.99219 13.4453L4.5 5.5H13.5L12.9844 13.4453C12.9609 14.0312 12.4453 14.5 11.8594 14.5H6.11719C5.53125 14.5 5.01562 14.0312 4.99219 13.4453Z" fill="#898E9E"/>
</svg>
