<svg width="13" height="12" viewBox="0 0 13 12" fill="none" xmlns="http://www.w3.org/2000/svg">
<path d="M5.47175 11.4777C6.16551 12.1767 6.82797 12.1715 7.52695 11.4777L8.30939 10.6953C8.38242 10.6223 8.44501 10.6014 8.5389 10.6014H9.64475C10.6306 10.6014 11.1001 10.1319 11.1001 9.14605V8.04021C11.1001 7.94632 11.1262 7.8785 11.194 7.81069L11.9764 7.02304C12.6754 6.32928 12.6702 5.66681 11.9764 4.97305L11.194 4.19061C11.1262 4.11758 11.1001 4.05499 11.1001 3.9611V2.85525C11.1001 1.86938 10.6306 1.39991 9.64475 1.39991H8.5389C8.44501 1.39991 8.3772 1.37383 8.30939 1.30602L7.52695 0.523583C6.82797 -0.175395 6.16551 -0.175395 5.47175 0.5288L4.68931 1.30602C4.6215 1.37383 4.55368 1.39991 4.45979 1.39991H3.35395C2.36807 1.39991 1.89861 1.85894 1.89861 2.85525V3.9611C1.89861 4.05499 1.87253 4.1228 1.80472 4.19061L1.02228 4.97305C0.323301 5.66681 0.328517 6.32928 1.02228 7.02304L1.80472 7.81069C1.87253 7.8785 1.89861 7.94632 1.89861 8.04021V9.14605C1.89861 10.1319 2.36807 10.6014 3.35395 10.6014H4.45979C4.55368 10.6014 4.61628 10.6223 4.68931 10.6953L5.47175 11.4777ZM5.63345 8.67138C5.45088 8.67138 5.30482 8.60356 5.19007 8.48359L3.52087 6.61617C3.43219 6.52228 3.38524 6.39187 3.38524 6.26147C3.38524 5.94849 3.60954 5.72419 3.93295 5.72419C4.1103 5.72419 4.24071 5.78157 4.35547 5.90676L5.61258 7.30993L8.12682 3.72115C8.25201 3.5438 8.38763 3.47077 8.59628 3.47077C8.91969 3.47077 9.14921 3.69507 9.14921 3.99761C9.14921 4.10193 9.10748 4.23234 9.02923 4.34188L6.10291 8.44708C5.98294 8.60356 5.82645 8.67138 5.63345 8.67138Z" fill="#1054DE"/>
</svg>
