<svg width="17" height="16" viewBox="0 0 17 16" fill="none" xmlns="http://www.w3.org/2000/svg">
<path d="M14.0938 0C15.1875 0 16.0938 0.90625 16.0938 2V11C16.0938 12.125 15.1875 13 14.0938 13H9.59375L5.6875 15.9375C5.59375 16 5.53125 16 5.46875 16C5.25 16 5.09375 15.875 5.09375 15.625V13H2.09375C0.96875 13 0.09375 12.125 0.09375 11V2C0.09375 0.90625 0.96875 0 2.09375 0H14.0938ZM14.5938 11V2C14.5938 1.75 14.3438 1.5 14.0938 1.5H2.09375C1.8125 1.5 1.59375 1.75 1.59375 2V11C1.59375 11.2812 1.8125 11.5 2.09375 11.5H6.59375V13.375L8.6875 11.8125L9.09375 11.5H14.0938C14.3438 11.5 14.5938 11.2812 14.5938 11Z" fill="#898E9E"/>
</svg>
