<svg width="24" height="24" viewBox="0 0 24 24" fill="none" xmlns="http://www.w3.org/2000/svg">
<path d="M12.1758 19.9141C12.0352 20.0898 11.7539 20.0898 11.5781 19.9141L4.23047 12.5664C4.05469 12.3906 4.05469 12.1445 4.23047 11.9688L11.5781 4.62109C11.7539 4.44531 12.0352 4.44531 12.1758 4.62109L12.8789 5.28906C13.0547 5.46484 13.0547 5.74609 12.8789 5.88672L7.42969 11.3359H19.4531C19.6641 11.3359 19.875 11.5469 19.875 11.7578V12.7422C19.875 12.9883 19.6641 13.1641 19.4531 13.1641H7.42969L12.8789 18.6484C13.0547 18.7891 13.0547 19.0703 12.8789 19.2461L12.1758 19.9141Z" fill="white"/>
</svg>
