<svg width="16" height="16" viewBox="0 0 16 16" fill="none" xmlns="http://www.w3.org/2000/svg">
<circle cx="8" cy="8" r="7.25" fill="#1054DE" stroke="white" stroke-width="1.5"/>
<path d="M11.4375 7.625C11.5938 7.625 11.75 7.78125 11.75 7.9375V8.5625C11.75 8.73828 11.5938 8.875 11.4375 8.875H8.625V11.6875C8.625 11.8633 8.46875 12 8.3125 12H7.6875C7.51172 12 7.375 11.8633 7.375 11.6875V8.875H4.5625C4.38672 8.875 4.25 8.73828 4.25 8.5625V7.9375C4.25 7.78125 4.38672 7.625 4.5625 7.625H7.375V4.8125C7.375 4.65625 7.51172 4.5 7.6875 4.5H8.3125C8.46875 4.5 8.625 4.65625 8.625 4.8125V7.625H11.4375Z" fill="white"/>
</svg>
