<svg width="20" height="20" viewBox="0 0 20 20" fill="none" xmlns="http://www.w3.org/2000/svg">
<path d="M9.8125 3.21875C9.9375 3.0625 10.1875 3.0625 10.3438 3.21875L16.875 9.75C17.0312 9.90625 17.0312 10.125 16.875 10.2812L10.3438 16.8125C10.1875 16.9688 9.9375 16.9688 9.8125 16.8125L9.1875 16.2188C9.03125 16.0625 9.03125 15.8125 9.1875 15.6875L14.0312 10.8125H3.375C3.15625 10.8125 3 10.6562 3 10.4375V9.5625C3 9.375 3.15625 9.1875 3.375 9.1875H14.0312L9.1875 4.34375C9.03125 4.21875 9.03125 3.96875 9.1875 3.8125L9.8125 3.21875Z" fill="#292B32"/>
</svg>
