<svg width="30" height="30" viewBox="0 0 30 30" fill="none" xmlns="http://www.w3.org/2000/svg">
<path d="M24.9756 5.08691C25.3271 4.73535 25.8984 4.99902 25.8984 5.43848V11.7227C25.8984 12.0303 25.6348 12.25 25.3711 12.25H19.043C18.6035 12.25 18.3398 11.7227 18.6914 11.3711L21.0645 8.99805C19.5264 7.41602 17.373 6.44922 15 6.44922C10.3857 6.44922 6.65039 10.0527 6.38672 14.5791C6.34277 14.8867 6.12305 15.0625 5.85938 15.0625H4.62891C4.32129 15.0625 4.05762 14.8428 4.10156 14.5352C4.36523 8.77832 9.15527 4.16406 15 4.16406C17.9883 4.16406 20.7129 5.39453 22.6904 7.37207L24.9756 5.08691ZM25.3271 15.0625C25.6348 15.0625 25.8984 15.3262 25.8545 15.6338C25.5908 21.3906 20.8008 25.9609 15 25.9609C11.9678 25.9609 9.24316 24.7744 7.26562 22.7969L4.98047 25.082C4.62891 25.4336 4.10156 25.1699 4.10156 24.7305V18.4023C4.10156 18.1387 4.32129 17.875 4.62891 17.875H10.9131C11.3525 17.875 11.6162 18.4463 11.2646 18.7979L8.8916 21.1709C10.4297 22.7529 12.583 23.6758 15 23.6758C19.5703 23.6758 23.3057 20.1162 23.5693 15.5898C23.6133 15.2822 23.833 15.0625 24.0967 15.0625H25.3271Z" fill="white"/>
</svg>
