<svg width="22" height="19" viewBox="0 0 22 19" fill="none" xmlns="http://www.w3.org/2000/svg">
<path d="M15.0078 12.3789L16.1328 11.2539C16.3086 11.0781 16.625 11.2188 16.625 11.4648V16.5625C16.625 17.5117 15.8516 18.25 14.9375 18.25H2.5625C1.61328 18.25 0.875 17.5117 0.875 16.5625V4.1875C0.875 3.27344 1.61328 2.5 2.5625 2.5H12.1602C12.4062 2.5 12.5469 2.81641 12.3711 2.99219L11.2461 4.11719C11.1758 4.1875 11.1055 4.1875 11.0352 4.1875H2.5625V16.5625H14.9375V12.5898C14.9375 12.5195 14.9375 12.4492 15.0078 12.3789ZM20.4922 5.3125L11.2812 14.5234L8.08203 14.875C7.16797 14.9805 6.39453 14.207 6.5 13.293L6.85156 10.0938L16.0625 0.882812C16.8711 0.0742188 18.1719 0.0742188 18.9805 0.882812L20.4922 2.39453C21.3008 3.20312 21.3008 4.50391 20.4922 5.3125ZM17.0469 6.36719L15.0078 4.32812L8.46875 10.8672L8.1875 13.1875L10.5078 12.9062L17.0469 6.36719ZM19.2969 3.58984L17.7852 2.07812C17.6445 1.90234 17.3984 1.90234 17.2578 2.07812L16.2031 3.13281L18.2422 5.20703L19.332 4.11719C19.4727 3.94141 19.4727 3.73047 19.2969 3.58984Z" fill="#292B32"/>
</svg>
