<svg width="20" height="20" viewBox="0 0 20 20" fill="none" xmlns="http://www.w3.org/2000/svg">
<path d="M10 6.5C11.9375 6.5 13.5 8.09375 13.5 10C13.5 11.9375 11.9375 13.5 10 13.5C8.0625 13.5 6.5 11.9375 6.5 10C6.5 9.71875 6.5625 9.3125 6.65625 9.03125C6.84375 9.15625 7.25 9.25 7.5 9.25C8.4375 9.25 9.25 8.46875 9.25 7.5C9.21875 7.28125 9.125 6.875 9 6.65625C9.28125 6.59375 9.71875 6.53125 10 6.5ZM18.875 9.5625C18.9375 9.6875 18.9688 9.875 18.9688 10C18.9688 10.1562 18.9375 10.3438 18.875 10.4688C17.1875 13.7812 13.8125 16 10 16C6.15625 16 2.78125 13.7812 1.09375 10.4688C1.03125 10.3438 1 10.1562 1 10.0312C1 9.875 1.03125 9.6875 1.09375 9.5625C2.78125 6.25 6.15625 4 10 4C13.8125 4 17.1875 6.25 18.875 9.5625ZM10 14.5C13.0625 14.5 15.9062 12.7812 17.4062 10C15.9062 7.21875 13.0625 5.5 10 5.5C6.90625 5.5 4.0625 7.21875 2.5625 10C4.0625 12.7812 6.90625 14.5 10 14.5Z" fill="#A5A9B5"/>
</svg>
