<svg width="24" height="19" viewBox="0 0 24 19" fill="none" xmlns="http://www.w3.org/2000/svg">
<path d="M2.08594 0.460938L8.76562 5.66406L14.6016 0.53125C15.0234 0.214844 15.5859 0.179688 16.0078 0.496094C16.4297 0.777344 16.6055 1.33984 16.3945 1.83203L13.6875 8.125H17.625C18.082 8.125 18.5039 8.44141 18.6797 8.86328C18.8203 9.32031 18.7148 9.8125 18.3633 10.0938L16.5 11.7461L22.8984 16.7734C23.2852 17.0547 23.3555 17.582 23.0391 17.9336C22.7578 18.3203 22.2305 18.3906 21.8789 18.0742L1.06641 1.76172C0.679688 1.48047 0.609375 0.953125 0.925781 0.601562C1.20703 0.214844 1.73438 0.144531 2.08594 0.460938ZM5.60156 8.40625L6.16406 7.91406L9.29297 10.375H6.375C5.88281 10.375 5.46094 10.0938 5.32031 9.67188C5.14453 9.21484 5.25 8.72266 5.60156 8.40625ZM7.57031 16.7031L10.0312 10.9727L13.8984 13.9961L9.36328 18.0039C8.94141 18.3203 8.37891 18.3555 7.95703 18.0391C7.53516 17.7578 7.35938 17.1953 7.57031 16.7031Z" fill="white"/>
</svg>
