<svg width="30" height="30" viewBox="0 0 30 30" fill="none" xmlns="http://www.w3.org/2000/svg">
<path d="M24.1406 6.625C25.2832 6.625 26.25 7.5918 26.25 8.73438V21.3906C26.25 22.5771 25.2832 23.5 24.1406 23.5H5.85938C4.67285 23.5 3.75 22.5771 3.75 21.3906V8.73438C3.75 7.5918 4.67285 6.625 5.85938 6.625H24.1406ZM23.877 21.3906C24.0088 21.3906 24.1406 21.3027 24.1406 21.127V8.99805C24.1406 8.86621 24.0088 8.73438 23.877 8.73438H6.12305C5.94727 8.73438 5.85938 8.86621 5.85938 8.99805V21.127C5.85938 21.3027 5.94727 21.3906 6.12305 21.3906H23.877ZM9.375 10.4922C10.3418 10.4922 11.1328 11.2832 11.1328 12.25C11.1328 13.2607 10.3418 14.0078 9.375 14.0078C8.36426 14.0078 7.61719 13.2607 7.61719 12.25C7.61719 11.2832 8.36426 10.4922 9.375 10.4922ZM7.96875 19.2812V17.1719L9.68262 15.458C9.90234 15.2383 10.21 15.2383 10.4297 15.458L12.1875 17.1719L17.417 11.9424C17.6367 11.7227 17.9443 11.7227 18.1641 11.9424L22.0312 15.7656V19.2812H7.96875Z" fill="white"/>
</svg>
