<svg width="24" height="24" viewBox="0 0 24 24" fill="none" xmlns="http://www.w3.org/2000/svg">
<path d="M14.0391 10.2109C15.832 12.0039 15.9375 14.8867 14.3555 16.7852C14.1445 17.0664 14.2852 16.9258 11.4023 19.8086C9.46875 21.7422 6.33984 21.7422 4.44141 19.8086C2.50781 17.9102 2.50781 14.7812 4.44141 12.8477C5.56641 11.7227 6.23438 11.0547 6.65625 10.6328C6.90234 10.3867 7.35938 10.5625 7.35938 10.9141C7.39453 11.3008 7.46484 11.8984 7.53516 12.25C7.57031 12.3906 7.53516 12.5312 7.42969 12.6367L5.8125 14.2539C4.65234 15.4141 4.65234 17.2773 5.8125 18.4375C6.97266 19.5977 8.83594 19.5977 9.99609 18.4375L12.6328 15.8008C13.793 14.6406 13.793 12.7773 12.6328 11.6172C12.457 11.4062 12.0703 11.1602 11.8242 11.0547C11.6836 10.9492 11.5781 10.7734 11.6133 10.5977C11.6484 10.2109 11.8242 9.82422 12.1406 9.54297L12.2812 9.40234C12.4219 9.26172 12.5977 9.22656 12.7734 9.29688C13.2305 9.54297 13.6523 9.82422 14.0391 10.2109ZM19.5234 4.72656C21.457 6.625 21.457 9.75391 19.5234 11.6875C18.3984 12.8125 17.7305 13.4805 17.3086 13.9023C17.0625 14.1484 16.6055 13.9727 16.6055 13.6211C16.5703 13.2344 16.5 12.6367 16.4297 12.2852C16.3945 12.1445 16.4297 12.0039 16.5352 11.8984L18.1523 10.2812C19.3125 9.12109 19.3125 7.25781 18.1523 6.09766C16.9922 4.9375 15.1289 4.9375 13.9688 6.09766L11.332 8.73438C10.1719 9.89453 10.1719 11.7578 11.332 12.918C11.5078 13.1289 11.8945 13.375 12.1406 13.4805C12.2812 13.5859 12.3867 13.7617 12.3516 13.9375C12.3164 14.3242 12.1406 14.7109 11.8242 14.9922L11.6836 15.1328C11.543 15.2734 11.3672 15.3086 11.1914 15.2383C10.7344 14.9922 10.3125 14.7109 9.92578 14.3242C8.13281 12.5312 8.02734 9.64844 9.60938 7.75C9.82031 7.46875 9.67969 7.60938 12.5625 4.72656C14.4961 2.79297 17.625 2.79297 19.5234 4.72656Z" fill="white"/>
</svg>
