<svg width="10" height="12" viewBox="0 0 10 12" fill="none" xmlns="http://www.w3.org/2000/svg">
<path d="M5 9.72656C4.65625 9.72656 4.39844 9.46875 4.39844 9.125V7.75C4.39844 7.42773 4.65625 7.14844 5 7.14844C5.32227 7.14844 5.60156 7.42773 5.60156 7.75V9.125C5.60156 9.46875 5.32227 9.72656 5 9.72656ZM9.8125 6.03125V10.8438C9.8125 11.4238 9.33984 11.875 8.78125 11.875H1.21875C0.638672 11.875 0.1875 11.4238 0.1875 10.8438V6.03125C0.1875 5.47266 0.638672 5 1.21875 5H1.90625V3.96875C1.90625 2.27148 3.28125 0.875 5 0.875C6.71875 0.896484 8.09375 2.29297 8.09375 4.01172V5H8.78125C9.33984 5 9.8125 5.47266 9.8125 6.03125ZM2.9375 5H7.0625V3.96875C7.0625 2.85156 6.11719 1.90625 5 1.90625C3.86133 1.90625 2.9375 2.85156 2.9375 3.96875V5ZM8.78125 6.03125H1.21875V10.8438H8.78125V6.03125Z" fill="#292B32"/>
</svg>
