<svg width="20" height="20" viewBox="0 0 20 20" fill="none" xmlns="http://www.w3.org/2000/svg">
<path d="M11.8125 8.1875C13.4062 9.78125 13.5 12.3438 12.0938 14.0312C11.9062 14.2812 12.0312 14.1562 9.46875 16.7188C7.75 18.4375 4.96875 18.4375 3.28125 16.7188C1.5625 15.0312 1.5625 12.25 3.28125 10.5312C4.28125 9.53125 4.875 8.9375 5.25 8.5625C5.46875 8.34375 5.875 8.5 5.875 8.8125C5.90625 9.15625 5.96875 9.6875 6.03125 10C6.0625 10.125 6.03125 10.25 5.9375 10.3438L4.5 11.7812C3.46875 12.8125 3.46875 14.4688 4.5 15.5C5.53125 16.5312 7.1875 16.5312 8.21875 15.5L10.5625 13.1562C11.5938 12.125 11.5938 10.4688 10.5625 9.4375C10.4062 9.25 10.0625 9.03125 9.84375 8.9375C9.71875 8.84375 9.625 8.6875 9.65625 8.53125C9.6875 8.1875 9.84375 7.84375 10.125 7.59375L10.25 7.46875C10.375 7.34375 10.5312 7.3125 10.6875 7.375C11.0938 7.59375 11.4688 7.84375 11.8125 8.1875ZM16.6875 3.3125C18.4062 5 18.4062 7.78125 16.6875 9.5C15.6875 10.5 15.0938 11.0938 14.7188 11.4688C14.5 11.6875 14.0938 11.5312 14.0938 11.2188C14.0625 10.875 14 10.3438 13.9375 10.0312C13.9062 9.90625 13.9375 9.78125 14.0312 9.6875L15.4688 8.25C16.5 7.21875 16.5 5.5625 15.4688 4.53125C14.4375 3.5 12.7812 3.5 11.75 4.53125L9.40625 6.875C8.375 7.90625 8.375 9.5625 9.40625 10.5938C9.5625 10.7812 9.90625 11 10.125 11.0938C10.25 11.1875 10.3438 11.3438 10.3125 11.5C10.2812 11.8438 10.125 12.1875 9.84375 12.4375L9.71875 12.5625C9.59375 12.6875 9.4375 12.7188 9.28125 12.6562C8.875 12.4375 8.5 12.1875 8.15625 11.8438C6.5625 10.25 6.46875 7.6875 7.875 6C8.0625 5.75 7.9375 5.875 10.5 3.3125C12.2188 1.59375 15 1.59375 16.6875 3.3125Z" fill="#1054DE"/>
</svg>
