<svg width="24" height="24" viewBox="0 0 24 24" fill="none" xmlns="http://www.w3.org/2000/svg">
<circle cx="12" cy="12" r="12" fill="url(#paint0_linear_7853_1922)"/>
<path d="M7.48586 10.575H5.41966C5.05808 10.575 4.7998 10.8586 4.7998 11.1938V17.3813C4.7998 17.7422 5.05808 18 5.41966 18H7.48586C7.82162 18 8.10572 17.7422 8.10572 17.3813V11.1938C8.10572 10.8586 7.82162 10.575 7.48586 10.575ZM6.45276 16.9688C6.09118 16.9688 5.8329 16.711 5.8329 16.35C5.8329 16.0149 6.09118 15.7313 6.45276 15.7313C6.78852 15.7313 7.07262 16.0149 7.07262 16.35C7.07262 16.711 6.78852 16.9688 6.45276 16.9688ZM14.7175 6.91411C14.7175 5.0063 13.4778 4.80005 12.858 4.80005C12.3156 4.80005 12.0831 5.8313 11.9798 6.29536C11.8249 6.86255 11.6957 7.42974 11.3083 7.81646C10.4818 8.66724 10.0428 9.72427 9.00968 10.7297C8.95802 10.8071 8.9322 10.8844 8.9322 10.9618V16.479C8.9322 16.6336 9.06133 16.7625 9.2163 16.7883C9.62954 16.7883 10.1719 17.0204 10.5852 17.2008C11.4116 17.5618 12.4189 18 13.6586 18H13.7361C14.8467 18 16.1639 18 16.6804 17.2524C16.9129 16.943 16.9645 16.5563 16.8354 16.0922C17.2745 15.654 17.4811 14.829 17.2745 14.1586C17.7135 13.5657 17.7652 12.7149 17.5069 12.1219C17.8168 11.8125 18.0235 11.3227 17.9976 10.8586C17.9976 10.0594 17.3261 9.33755 16.4738 9.33755H13.8394C14.046 8.61567 14.7175 7.99692 14.7175 6.91411Z" fill="white"/>
<defs>
<linearGradient id="paint0_linear_7853_1922" x1="9" y1="2.4" x2="19.8" y2="29.4" gradientUnits="userSpaceOnUse">
<stop stop-color="#5B9DFF"/>
<stop offset="1" stop-color="#0041BE"/>
</linearGradient>
</defs>
</svg>
