<svg width="24" height="24" viewBox="0 0 24 24" fill="none" xmlns="http://www.w3.org/2000/svg">
<path d="M4.125 9.57812V5.21875C4.125 4.76172 4.47656 4.375 4.96875 4.375H9.32812C9.53906 4.375 9.75 4.58594 9.75 4.79688V5.64062C9.75 5.88672 9.53906 6.0625 9.32812 6.0625H5.8125V9.57812C5.8125 9.82422 5.60156 10 5.39062 10H4.54688C4.30078 10 4.125 9.82422 4.125 9.57812ZM14.25 4.79688C14.25 4.58594 14.4258 4.375 14.6719 4.375H19.0312C19.4883 4.375 19.875 4.76172 19.875 5.21875V9.57812C19.875 9.82422 19.6641 10 19.4531 10H18.6094C18.3633 10 18.1875 9.82422 18.1875 9.57812V6.0625H14.6719C14.4258 6.0625 14.25 5.88672 14.25 5.64062V4.79688ZM19.4531 14.5C19.6641 14.5 19.875 14.7109 19.875 14.9219V19.2812C19.875 19.7734 19.4883 20.125 19.0312 20.125H14.6719C14.4258 20.125 14.25 19.9492 14.25 19.7031V18.8594C14.25 18.6484 14.4258 18.4375 14.6719 18.4375H18.1875V14.9219C18.1875 14.7109 18.3633 14.5 18.6094 14.5H19.4531ZM9.75 19.7031C9.75 19.9492 9.53906 20.125 9.32812 20.125H4.96875C4.47656 20.125 4.125 19.7734 4.125 19.2812V14.9219C4.125 14.7109 4.30078 14.5 4.54688 14.5H5.39062C5.60156 14.5 5.8125 14.7109 5.8125 14.9219V18.4375H9.32812C9.53906 18.4375 9.75 18.6484 9.75 18.8594V19.7031Z" fill="white"/>
</svg>
