<svg width="24" height="24" viewBox="0 0 24 24" fill="none" xmlns="http://www.w3.org/2000/svg">
<path d="M21.7812 18.3438C22 18.5 22.0625 18.8125 21.875 19.0312L21.2812 19.8125C21.0938 20.0312 20.7812 20.0938 20.5625 19.9062L2.1875 5.6875C1.96875 5.53125 1.90625 5.21875 2.09375 5L2.71875 4.21875C2.875 4 3.1875 3.9375 3.40625 4.125L8.15625 7.78125L9.71875 6.25C10.1875 5.78125 11 6.09375 11 6.78125V9.96875L13.4688 11.9062C13.4375 11.5 13.1875 11.125 12.8438 10.9375C12.4688 10.7188 12.3438 10.2812 12.5312 9.90625C12.75 9.53125 13.1875 9.40625 13.5625 9.625C14.4375 10.0938 15 11.0312 15 12C15 12.3438 14.9062 12.625 14.8125 12.9375L16.0312 13.875C16.3125 13.3125 16.5 12.6875 16.5 12C16.5 10.5625 15.75 9.1875 14.5 8.40625C14.1562 8.1875 14.0625 7.71875 14.2812 7.375C14.5 7.03125 14.9688 6.90625 15.3125 7.125C16.9688 8.1875 18 10.0312 18 12C18 13.0312 17.7188 13.9688 17.25 14.8125L18.4375 15.75C19.0938 14.625 19.4688 13.3438 19.4688 12.0312C19.4688 9.5625 18.25 7.25 16.1562 5.90625C15.8125 5.6875 15.7188 5.21875 15.9375 4.84375C16.1875 4.5 16.6562 4.40625 17 4.625C19.5 6.28125 21 9.03125 21 12C21 13.6875 20.5 15.2812 19.625 16.6562L21.7812 18.3438ZM3 9.75C3 9.5 3.125 9.28125 3.34375 9.125L11 15.0312V17.25C11 17.9375 10.1875 18.25 9.71875 17.7812L6.9375 15H3.75C3.3125 15 3 14.6875 3 14.25V9.75Z" fill="white"/>
</svg>
