<svg width="16" height="16" viewBox="0 0 16 16" fill="none" xmlns="http://www.w3.org/2000/svg">
<circle cx="8" cy="8" r="7.25" fill="#FA4D30" stroke="white" stroke-width="1.5"/>
<path d="M9.25 10.75C9.25 11.4531 8.6875 12 8 12C7.29688 12 6.75 11.4531 6.75 10.75C6.75 10.0625 7.29688 9.5 8 9.5C8.6875 9.5 9.25 10.0625 9.25 10.75ZM6.89062 4.40625C6.875 4.1875 7.04688 4 7.26562 4H8.71875C8.9375 4 9.10938 4.1875 9.09375 4.40625L8.89062 8.65625C8.875 8.84375 8.70312 9 8.51562 9H7.46875C7.28125 9 7.10938 8.84375 7.09375 8.65625L6.89062 4.40625Z" fill="white"/>
</svg>
