<svg width="16" height="16" viewBox="0 0 16 16" fill="none" xmlns="http://www.w3.org/2000/svg">
<path d="M8 0.25C12.25 0.25 15.75 3.75 15.75 8C15.75 12.2812 12.25 15.75 8 15.75C3.71875 15.75 0.25 12.2812 0.25 8C0.25 3.75 3.71875 0.25 8 0.25ZM8 14.25C11.4375 14.25 14.25 11.4688 14.25 8C14.25 4.5625 11.4375 1.75 8 1.75C4.53125 1.75 1.75 4.5625 1.75 8C1.75 11.4688 4.53125 14.25 8 14.25ZM9.3125 11C9.3125 11.75 8.71875 12.3125 8 12.3125C7.25 12.3125 6.6875 11.75 6.6875 11C6.6875 10.2812 7.25 9.6875 8 9.6875C8.71875 9.6875 9.3125 10.2812 9.3125 11ZM6.75 4.40625C6.75 4.1875 6.90625 4 7.125 4H8.84375C9.0625 4 9.21875 4.1875 9.21875 4.40625L9 8.65625C9 8.84375 8.8125 9 8.625 9H7.34375C7.15625 9 6.96875 8.84375 6.96875 8.65625L6.75 4.40625Z" fill="white"/>
</svg>
