<svg width="16" height="16" viewBox="0 0 16 16" fill="none" xmlns="http://www.w3.org/2000/svg">
<path d="M3.25 7C3.65625 7 4 7.34375 4 7.75V15.25C4 15.6875 3.65625 16 3.25 16H0.75C0.3125 16 0 15.6875 0 15.25V7.75C0 7.34375 0.3125 7 0.75 7H3.25ZM2 14.75C2.40625 14.75 2.75 14.4375 2.75 14C2.75 13.5938 2.40625 13.25 2 13.25C1.5625 13.25 1.25 13.5938 1.25 14C1.25 14.4375 1.5625 14.75 2 14.75ZM12 2.5625C12 3.875 11.1875 4.625 10.9375 5.5H14.125C15.1562 5.5 15.9688 6.375 15.9688 7.34375C16 7.90625 15.75 8.5 15.375 8.875C15.6875 9.59375 15.625 10.625 15.0938 11.3438C15.3438 12.1562 15.0938 13.1562 14.5625 13.6875C14.7188 14.25 14.6562 14.7188 14.375 15.0938C13.75 16 12.1562 16 10.8125 16H10.7188C9.21875 16 8 15.4688 7 15.0312C6.5 14.8125 5.84375 14.5312 5.34375 14.5312C5.15625 14.5 5 14.3438 5 14.1562V7.46875C5 7.375 5.03125 7.28125 5.09375 7.1875C6.34375 5.96875 6.875 4.6875 7.875 3.65625C8.34375 3.1875 8.5 2.5 8.6875 1.8125C8.8125 1.25 9.09375 0 9.75 0C10.5 0 12 0.25 12 2.5625Z" fill="#1054DE"/>
</svg>
