<svg width="19" height="18" viewBox="0 0 19 18" fill="none" xmlns="http://www.w3.org/2000/svg">
<path d="M17.625 6.96875C18.2188 7.53125 18.2188 8.5 17.625 9.0625L12.125 14.5625C11.1875 15.5312 9.59375 14.8438 9.59375 13.5V11.0625C5 11.3438 4.625 12.625 5.375 15.0625C5.8125 16.4375 4.28125 17.5312 3.125 16.75C1.28125 15.5312 0.09375 13.625 0.09375 11.3438C0.09375 6 5.28125 5.15625 9.59375 5.03125V2.53125C9.59375 1.1875 11.1875 0.5 12.125 1.46875L17.625 6.96875ZM11.0938 13.5L16.5938 8L11.0938 2.5V6.53125C6.59375 6.53125 1.59375 6.875 1.59375 11.3438C1.59375 13.4375 2.84375 14.75 3.96875 15.5C2.40625 10.5625 5.9375 9.5625 11.0938 9.53125V13.5Z" fill="#898E9E"/>
</svg>
